adventprofmm_bld.ufo
<glyph name="exclam" format="1">
  <advance width="156"/>
  <unicode hex="0021"/>
  <outline>
    <contour>
      <point x="20" y="640" type="curve" smooth="yes"/>
      <point x="38" y="120" type="line"/>
      <point x="114" y="120" type="line"/>
      <point x="136" y="641" type="line" smooth="yes"/>
      <point x="136" y="686"/>
      <point x="116" y="708"/>
      <point x="76" y="708" type="curve" smooth="yes"/>
      <point x="38" y="708"/>
      <point x="20" y="686"/>
    </contour>
    <contour>
      <point x="78" y="105" type="curve" smooth="yes"/>
      <point x="46" y="105"/>
      <point x="19" y="78"/>
      <point x="19" y="45" type="curve" smooth="yes"/>
      <point x="19" y="12"/>
      <point x="46" y="-15"/>
      <point x="78" y="-15" type="curve" smooth="yes"/>
      <point x="111" y="-15"/>
      <point x="137" y="12"/>
      <point x="137" y="45" type="curve" smooth="yes"/>
      <point x="137" y="78"/>
      <point x="111" y="105"/>
    </contour>
  </outline>
</glyph>
<glyph name="quotedbl" format="1">
  <advance width="262"/>
  <unicode hex="0022"/>
  <outline>
    <contour>
      <point x="154" y="694" type="curve"/>
      <point x="167" y="587" type="line"/>
      <point x="230" y="587" type="line"/>
      <point x="243" y="694" type="line"/>
      <point x="243" y="751"/>
      <point x="153" y="751"/>
    </contour>
    <contour>
      <point x="18" y="694" type="curve"/>
      <point x="32" y="587" type="line"/>
      <point x="94" y="587" type="line"/>
      <point x="108" y="694" type="line"/>
      <point x="108" y="751"/>
      <point x="18" y="751"/>
    </contour>
  </outline>
</glyph>
<glyph name="numbersign" format="1">
  <advance width="587"/>
  <unicode hex="0023"/>
  <outline>
    <contour>
      <point x="568" y="356" type="line"/>
      <point x="568" y="469" type="line"/>
      <point x="493" y="469" type="line"/>
      <point x="547" y="698" type="line"/>
      <point x="432" y="698" type="line"/>
      <point x="378" y="469" type="line"/>
      <point x="260" y="469" type="line"/>
      <point x="313" y="698" type="line"/>
      <point x="209" y="698" type="line"/>
      <point x="156" y="469" type="line"/>
      <point x="19" y="469" type="line"/>
      <point x="19" y="356" type="line"/>
      <point x="129" y="356" type="line"/>
      <point x="108" y="269" type="line"/>
      <point x="19" y="269" type="line"/>
      <point x="19" y="166" type="line"/>
      <point x="84" y="166" type="line"/>
      <point x="44" y="0" type="line"/>
      <point x="150" y="0" type="line"/>
      <point x="188" y="166" type="line"/>
      <point x="306" y="166" type="line"/>
      <point x="268" y="0" type="line"/>
      <point x="381" y="0" type="line"/>
      <point x="420" y="166" type="line"/>
      <point x="568" y="166" type="line"/>
      <point x="568" y="269" type="line"/>
      <point x="444" y="269" type="line"/>
      <point x="464" y="356" type="line"/>
    </contour>
    <contour>
      <point x="233" y="356" type="line"/>
      <point x="352" y="356" type="line"/>
      <point x="331" y="269" type="line"/>
      <point x="212" y="269" type="line"/>
    </contour>
  </outline>
</glyph>
<glyph name="dollar" format="1">
  <advance width="522"/>
  <unicode hex="0024"/>
  <outline>
    <contour>
      <point x="406" y="574" type="curve"/>
      <point x="439" y="671" type="line"/>
      <point x="393" y="695"/>
      <point x="334" y="708"/>
      <point x="278" y="708" type="curve" smooth="yes"/>
      <point x="220" y="708"/>
      <point x="164" y="697"/>
      <point x="119" y="667" type="curve" smooth="yes"/>
      <point x="70" y="635"/>
      <point x="51" y="586"/>
      <point x="51" y="537" type="curve" smooth="yes"/>
      <point x="51" y="428"/>
      <point x="139" y="387"/>
      <point x="224" y="346" type="curve" smooth="yes"/>
      <point x="246" y="337"/>
      <point x="269" y="326"/>
      <point x="290" y="313" type="curve" smooth="yes"/>
      <point x="341" y="286"/>
      <point x="381" y="252"/>
      <point x="381" y="198" type="curve" smooth="yes"/>
      <point x="381" y="167"/>
      <point x="366" y="137"/>
      <point x="344" y="121" type="curve" smooth="yes"/>
      <point x="319" y="102"/>
      <point x="284" y="96"/>
      <point x="254" y="96" type="curve" smooth="yes"/>
      <point x="234" y="96"/>
      <point x="198" y="99"/>
      <point x="161" y="122" type="curve" smooth="yes"/>
      <point x="140" y="135"/>
      <point x="120" y="155"/>
      <point x="103" y="183" type="curve"/>
      <point x="18" y="127" type="line"/>
      <point x="47" y="81"/>
      <point x="71" y="55"/>
      <point x="106" y="31" type="curve" smooth="yes"/>
      <point x="152" y="-2"/>
      <point x="206" y="-12"/>
      <point x="252" y="-12" type="curve" smooth="yes"/>
      <point x="311" y="-12"/>
      <point x="371" y="-1"/>
      <point x="417" y="29" type="curve" smooth="yes"/>
      <point x="479" y="69"/>
      <point x="504" y="136"/>
      <point x="504" y="199" type="curve" smooth="yes"/>
      <point x="504" y="297"/>
      <point x="437" y="360"/>
      <point x="362" y="404" type="curve" smooth="yes"/>
      <point x="333" y="422"/>
      <point x="301" y="437"/>
      <point x="274" y="449" type="curve" smooth="yes"/>
      <point x="216" y="475"/>
      <point x="174" y="496"/>
      <point x="173" y="537" type="curve" smooth="yes"/>
      <point x="173" y="559"/>
      <point x="183" y="575"/>
      <point x="198" y="586" type="curve" smooth="yes"/>
      <point x="215" y="598"/>
      <point x="242" y="606"/>
      <point x="276" y="606" type="curve" smooth="yes"/>
      <point x="312" y="606"/>
      <point x="358" y="597"/>
    </contour>
    <contour>
      <point x="327" y="816" type="line"/>
      <point x="217" y="816" type="line"/>
      <point x="217" y="-114" type="line"/>
      <point x="327" y="-114" type="line"/>
    </contour>
  </outline>
</glyph>
<glyph name="percent" format="1">
  <advance width="701"/>
  <unicode hex="0025"/>
  <outline>
    <contour>
      <point x="682" y="698" type="line"/>
      <point x="555" y="698" type="line"/>
      <point x="18" y="0" type="line"/>
      <point x="142" y="0" type="line"/>
    </contour>
    <contour>
      <point x="175" y="713" type="curve" smooth="yes"/>
      <point x="94" y="713"/>
      <point x="29" y="648"/>
      <point x="29" y="568" type="curve" smooth="yes"/>
      <point x="29" y="487"/>
      <point x="94" y="422"/>
      <point x="175" y="422" type="curve" smooth="yes"/>
      <point x="254" y="422"/>
      <point x="320" y="487"/>
      <point x="320" y="568" type="curve" smooth="yes"/>
      <point x="320" y="648"/>
      <point x="254" y="713"/>
    </contour>
    <contour>
      <point x="175" y="620" type="curve" smooth="yes"/>
      <point x="202" y="620"/>
      <point x="227" y="596"/>
      <point x="227" y="568" type="curve" smooth="yes"/>
      <point x="227" y="539"/>
      <point x="202" y="515"/>
      <point x="175" y="515" type="curve" smooth="yes"/>
      <point x="145" y="515"/>
      <point x="122" y="539"/>
      <point x="122" y="568" type="curve" smooth="yes"/>
      <point x="122" y="596"/>
      <point x="145" y="620"/>
    </contour>
    <contour>
      <point x="535" y="277" type="curve" smooth="yes"/>
      <point x="454" y="277"/>
      <point x="389" y="212"/>
      <point x="389" y="131" type="curve" smooth="yes"/>
      <point x="389" y="51"/>
      <point x="454" y="-14"/>
      <point x="535" y="-14" type="curve" smooth="yes"/>
      <point x="615" y="-14"/>
      <point x="680" y="51"/>
      <point x="680" y="131" type="curve" smooth="yes"/>
      <point x="680" y="212"/>
      <point x="615" y="277"/>
    </contour>
    <contour>
      <point x="535" y="184" type="curve" smooth="yes"/>
      <point x="563" y="184"/>
      <point x="586" y="159"/>
      <point x="586" y="131" type="curve" smooth="yes"/>
      <point x="586" y="103"/>
      <point x="563" y="79"/>
      <point x="535" y="79" type="curve" smooth="yes"/>
      <point x="506" y="79"/>
      <point x="483" y="103"/>
      <point x="483" y="131" type="curve" smooth="yes"/>
      <point x="483" y="159"/>
      <point x="506" y="184"/>
    </contour>
  </outline>
</glyph>
<glyph name="ampersand" format="1">
  <advance width="504"/>
  <unicode hex="0026"/>
  <outline>
    <contour>
      <point x="371" y="588" type="curve"/>
      <point x="392" y="700" type="line"/>
      <point x="392" y="700"/>
      <point x="304" y="700"/>
      <point x="224" y="700" type="curve" smooth="yes"/>
      <point x="134" y="700"/>
      <point x="81" y="640"/>
      <point x="81" y="554" type="curve" smooth="yes"/>
      <point x="81" y="486"/>
      <point x="120" y="433"/>
      <point x="170" y="403" type="curve"/>
      <point x="168" y="403"/>
      <point x="151" y="403"/>
      <point x="143" y="403" type="curve" smooth="yes"/>
      <point x="69" y="403"/>
      <point x="19" y="358"/>
      <point x="19" y="256" type="curve"/>
      <point x="19" y="256"/>
      <point x="19" y="161"/>
      <point x="19" y="161" type="curve"/>
      <point x="19" y="34"/>
      <point x="102" y="-2"/>
      <point x="180" y="-2" type="curve" smooth="yes"/>
      <point x="222" y="-2"/>
      <point x="267" y="16"/>
      <point x="302" y="48" type="curve"/>
      <point x="327" y="12"/>
      <point x="370" y="-7"/>
      <point x="431" y="-8" type="curve"/>
      <point x="464" y="80" type="line"/>
      <point x="418" y="80"/>
      <point x="392" y="91"/>
      <point x="392" y="136" type="curve" smooth="yes"/>
      <point x="392" y="306" type="line"/>
      <point x="463" y="306" type="line"/>
      <point x="486" y="403" type="line"/>
      <point x="387" y="403" type="line"/>
      <point x="387" y="506" type="line"/>
      <point x="277" y="506" type="line"/>
      <point x="277" y="403" type="line"/>
      <point x="276" y="403"/>
      <point x="275" y="403"/>
      <point x="275" y="403" type="curve"/>
      <point x="228" y="437"/>
      <point x="190" y="493"/>
      <point x="190" y="549" type="curve" smooth="yes"/>
      <point x="190" y="576"/>
      <point x="208" y="588"/>
      <point x="234" y="588" type="curve" smooth="yes"/>
      <point x="257" y="588"/>
      <point x="371" y="588"/>
    </contour>
    <contour>
      <point x="277" y="310" type="curve"/>
      <point x="277" y="167" type="line"/>
      <point x="269" y="125"/>
      <point x="237" y="98"/>
      <point x="197" y="98" type="curve" smooth="yes"/>
      <point x="154" y="98"/>
      <point x="128" y="127"/>
      <point x="128" y="164" type="curve" smooth="yes"/>
      <point x="128" y="169"/>
      <point x="128" y="255"/>
      <point x="128" y="258" type="curve" smooth="yes"/>
      <point x="128" y="296"/>
      <point x="157" y="310"/>
      <point x="189" y="310" type="curve" smooth="yes"/>
      <point x="206" y="310"/>
      <point x="248" y="310"/>
    </contour>
  </outline>
</glyph>
<glyph name="quotesingle" format="1">
  <advance width="127"/>
  <unicode hex="0027"/>
  <outline>
    <contour>
      <point x="18" y="694" type="curve"/>
      <point x="32" y="587" type="line"/>
      <point x="94" y="587" type="line"/>
      <point x="108" y="694" type="line"/>
      <point x="108" y="751"/>
      <point x="18" y="751"/>
    </contour>
  </outline>
</glyph>
<glyph name="parenleft" format="1">
  <advance width="212"/>
  <unicode hex="0028"/>
  <outline>
    <contour>
      <point x="196" y="729" type="curve"/>
      <point x="141" y="816" type="line"/>
      <point x="50" y="763"/>
      <point x="22" y="684"/>
      <point x="22" y="604" type="curve" smooth="yes"/>
      <point x="22" y="94" type="line" smooth="yes"/>
      <point x="22" y="13"/>
      <point x="44" y="-61"/>
      <point x="142" y="-116" type="curve"/>
      <point x="197" y="-35" type="line"/>
      <point x="197" y="-35"/>
      <point x="131" y="0"/>
      <point x="131" y="103" type="curve" smooth="yes"/>
      <point x="131" y="182"/>
      <point x="131" y="324"/>
      <point x="131" y="606" type="curve" smooth="yes"/>
      <point x="131" y="701"/>
      <point x="196" y="729"/>
    </contour>
  </outline>
</glyph>
<glyph name="parenright" format="1">
  <advance width="212"/>
  <unicode hex="0029"/>
  <outline>
    <contour>
      <point x="16" y="729" type="curve"/>
      <point x="71" y="816" type="line"/>
      <point x="163" y="763"/>
      <point x="190" y="684"/>
      <point x="190" y="604" type="curve" smooth="yes"/>
      <point x="190" y="94" type="line" smooth="yes"/>
      <point x="190" y="13"/>
      <point x="168" y="-61"/>
      <point x="70" y="-116" type="curve"/>
      <point x="15" y="-35" type="line"/>
      <point x="15" y="-35"/>
      <point x="81" y="0"/>
      <point x="81" y="103" type="curve" smooth="yes"/>
      <point x="81" y="182"/>
      <point x="81" y="324"/>
      <point x="81" y="606" type="curve" smooth="yes"/>
      <point x="81" y="701"/>
      <point x="16" y="729"/>
    </contour>
  </outline>
</glyph>
<glyph name="asterisk" format="1">
  <advance width="359"/>
  <unicode hex="002A"/>
  <outline>
    <contour>
      <point x="132" y="540" type="line"/>
      <point x="41" y="466" type="line"/>
      <point x="139" y="396" type="line"/>
      <point x="177" y="514" type="line"/>
      <point x="215" y="396" type="line"/>
      <point x="317" y="464" type="line"/>
      <point x="221" y="539" type="line"/>
      <point x="342" y="549" type="line"/>
      <point x="297" y="654" type="line"/>
      <point x="204" y="586" type="line"/>
      <point x="238" y="698" type="line"/>
      <point x="118" y="698" type="line"/>
      <point x="151" y="586" type="line"/>
      <point x="54" y="653" type="line"/>
      <point x="15" y="550" type="line"/>
    </contour>
  </outline>
</glyph>
<glyph name="plus" format="1">
  <advance width="356"/>
  <unicode hex="002B"/>
  <outline>
    <contour>
      <point x="122" y="419" type="line"/>
      <point x="18" y="419" type="line"/>
      <point x="18" y="313" type="line"/>
      <point x="122" y="313" type="line"/>
      <point x="122" y="210" type="line"/>
      <point x="233" y="210" type="line"/>
      <point x="233" y="313" type="line"/>
      <point x="338" y="313" type="line"/>
      <point x="338" y="419" type="line"/>
      <point x="233" y="419" type="line"/>
      <point x="233" y="529" type="line"/>
      <point x="122" y="529" type="line"/>
    </contour>
  </outline>
</glyph>
<glyph name="comma" format="1">
  <advance width="154"/>
  <unicode hex="002C"/>
  <outline>
    <contour>
      <point x="45" y="-66" type="curve"/>
      <point x="69" y="-83" type="line"/>
      <point x="69" y="-83"/>
      <point x="136" y="-41"/>
      <point x="136" y="50" type="curve" smooth="yes"/>
      <point x="136" y="82"/>
      <point x="110" y="109"/>
      <point x="78" y="109" type="curve" smooth="yes"/>
      <point x="45" y="109"/>
      <point x="18" y="82"/>
      <point x="18" y="50" type="curve" smooth="yes"/>
      <point x="18" y="22"/>
      <point x="36" y="-1"/>
      <point x="63" y="-8" type="curve"/>
      <point x="59" y="-28"/>
      <point x="55" y="-48"/>
    </contour>
  </outline>
</glyph>
<glyph name="hyphen" format="1">
  <advance width="362"/>
  <unicode hex="002D"/>
  <outline>
    <contour>
      <point x="340" y="413" type="line"/>
      <point x="21" y="413" type="line"/>
      <point x="21" y="306" type="line"/>
      <point x="340" y="306" type="line"/>
    </contour>
  </outline>
</glyph>
<glyph name="period" format="1">
  <advance width="156"/>
  <unicode hex="002E"/>
  <outline>
    <contour>
      <point x="78" y="103" type="curve" smooth="yes"/>
      <point x="45" y="103"/>
      <point x="19" y="76"/>
      <point x="19" y="43" type="curve" smooth="yes"/>
      <point x="19" y="10"/>
      <point x="45" y="-17"/>
      <point x="78" y="-17" type="curve" smooth="yes"/>
      <point x="111" y="-17"/>
      <point x="139" y="10"/>
      <point x="139" y="43" type="curve" smooth="yes"/>
      <point x="139" y="76"/>
      <point x="111" y="103"/>
    </contour>
  </outline>
</glyph>
<glyph name="one" format="1">
  <advance width="248"/>
  <unicode hex="0031"/>
  <outline>
    <contour>
      <point x="0" y="627" type="curve"/>
      <point x="33" y="531" type="line"/>
      <point x="33" y="531"/>
      <point x="91" y="541"/>
      <point x="114" y="557" type="curve"/>
      <point x="113" y="0" type="line"/>
      <point x="224" y="0" type="line"/>
      <point x="224" y="698" type="line"/>
      <point x="114" y="698" type="line"/>
      <point x="75" y="643"/>
      <point x="0" y="627"/>
    </contour>
  </outline>
</glyph>
<glyph name="two" format="1">
  <advance width="405"/>
  <unicode hex="0032"/>
  <outline>
    <contour>
      <point x="30" y="588" type="curve"/>
      <point x="121" y="541" type="line"/>
      <point x="135" y="580"/>
      <point x="169" y="601"/>
      <point x="206" y="601" type="curve" smooth="yes"/>
      <point x="242" y="599"/>
      <point x="276" y="576"/>
      <point x="276" y="529" type="curve" smooth="yes"/>
      <point x="276" y="501"/>
      <point x="269" y="479"/>
      <point x="233" y="422" type="curve" smooth="yes"/>
      <point x="157" y="317"/>
      <point x="86" y="209"/>
      <point x="14" y="101" type="curve"/>
      <point x="14" y="0" type="line"/>
      <point x="387" y="0" type="line"/>
      <point x="387" y="100" type="line"/>
      <point x="141" y="100" type="line"/>
      <point x="230" y="235"/>
      <point x="277" y="304"/>
      <point x="321" y="372" type="curve" smooth="yes"/>
      <point x="358" y="428"/>
      <point x="384" y="476"/>
      <point x="384" y="538" type="curve" smooth="yes"/>
      <point x="384" y="650"/>
      <point x="297" y="708"/>
      <point x="207" y="708" type="curve" smooth="yes"/>
      <point x="127" y="708"/>
      <point x="58" y="662"/>
    </contour>
  </outline>
</glyph>
<glyph name="three" format="1">
  <advance width="416"/>
  <unicode hex="0033"/>
  <outline>
    <contour>
      <point x="230" y="411" type="curve"/>
      <point x="227" y="413" type="line"/>
      <point x="346" y="588" type="line"/>
      <point x="346" y="698" type="line"/>
      <point x="56" y="698" type="line"/>
      <point x="56" y="588" type="line"/>
      <point x="224" y="588" type="line"/>
      <point x="37" y="306" type="line"/>
      <point x="146" y="306" type="line" smooth="yes"/>
      <point x="188" y="306"/>
      <point x="221" y="297"/>
      <point x="244" y="284" type="curve" smooth="yes"/>
      <point x="276" y="266"/>
      <point x="291" y="239"/>
      <point x="291" y="201" type="curve" smooth="yes"/>
      <point x="291" y="170"/>
      <point x="282" y="144"/>
      <point x="263" y="124" type="curve" smooth="yes"/>
      <point x="245" y="106"/>
      <point x="219" y="95"/>
      <point x="186" y="95" type="curve" smooth="yes"/>
      <point x="142" y="95"/>
      <point x="99" y="122"/>
      <point x="80" y="161" type="curve"/>
      <point x="12" y="82" type="line"/>
      <point x="52" y="24"/>
      <point x="117" y="-12"/>
      <point x="188" y="-12" type="curve" smooth="yes"/>
      <point x="248" y="-12"/>
      <point x="297" y="9"/>
      <point x="338" y="50" type="curve" smooth="yes"/>
      <point x="381" y="91"/>
      <point x="402" y="142"/>
      <point x="402" y="201" type="curve" smooth="yes"/>
      <point x="402" y="256"/>
      <point x="384" y="302"/>
      <point x="349" y="341" type="curve" smooth="yes"/>
      <point x="315" y="378"/>
      <point x="275" y="403"/>
    </contour>
  </outline>
</glyph>
<glyph name="four" format="1">
  <advance width="507"/>
  <unicode hex="0034"/>
  <outline>
    <contour>
      <point x="426" y="306" type="line"/>
      <point x="476" y="306" type="line"/>
      <point x="495" y="413" type="line"/>
      <point x="426" y="413" type="line"/>
      <point x="426" y="698" type="line"/>
      <point x="316" y="698" type="line"/>
      <point x="316" y="413" type="line"/>
      <point x="180" y="413" type="line"/>
      <point x="307" y="698" type="line"/>
      <point x="195" y="698" type="line"/>
      <point x="2" y="306" type="line"/>
      <point x="316" y="306" type="line"/>
      <point x="316" y="0" type="line"/>
      <point x="426" y="0" type="line"/>
    </contour>
  </outline>
</glyph>
<glyph name="five" format="1">
  <advance width="411"/>
  <unicode hex="0035"/>
  <outline>
    <contour>
      <point x="158" y="413" type="curve"/>
      <point x="177" y="588" type="line"/>
      <point x="341" y="588" type="line"/>
      <point x="341" y="698" type="line"/>
      <point x="75" y="698" type="line"/>
      <point x="32" y="310" type="line"/>
      <point x="142" y="310" type="line"/>
      <point x="228" y="306"/>
      <point x="286" y="277"/>
      <point x="286" y="201" type="curve" smooth="yes"/>
      <point x="286" y="142"/>
      <point x="241" y="97"/>
      <point x="183" y="97" type="curve" smooth="yes"/>
      <point x="122" y="97"/>
      <point x="53" y="137"/>
      <point x="53" y="137" type="curve"/>
      <point x="13" y="42" type="line"/>
      <point x="13" y="42"/>
      <point x="98" y="-12"/>
      <point x="185" y="-12" type="curve" smooth="yes"/>
      <point x="326" y="-12"/>
      <point x="397" y="107"/>
      <point x="397" y="199" type="curve" smooth="yes"/>
      <point x="397" y="313"/>
      <point x="327" y="406"/>
      <point x="178" y="411" type="curve" smooth="yes"/>
      <point x="172" y="411"/>
      <point x="165" y="413"/>
    </contour>
  </outline>
</glyph>
<glyph name="six" format="1">
  <advance width="452"/>
  <unicode hex="0036"/>
  <outline>
    <contour>
      <point x="255" y="598" type="curve" smooth="yes"/>
      <point x="294" y="598" type="line"/>
      <point x="294" y="698" type="line"/>
      <point x="260" y="698" type="line" smooth="yes"/>
      <point x="170" y="698"/>
      <point x="102" y="664"/>
      <point x="67" y="615" type="curve" smooth="yes"/>
      <point x="31" y="564"/>
      <point x="16" y="513"/>
      <point x="16" y="460" type="curve" smooth="yes"/>
      <point x="16" y="204" type="line" smooth="yes"/>
      <point x="16" y="144"/>
      <point x="37" y="94"/>
      <point x="78" y="52" type="curve" smooth="yes"/>
      <point x="118" y="11"/>
      <point x="168" y="-10"/>
      <point x="228" y="-10" type="curve" smooth="yes"/>
      <point x="286" y="-10"/>
      <point x="337" y="11"/>
      <point x="378" y="52" type="curve" smooth="yes"/>
      <point x="419" y="94"/>
      <point x="440" y="144"/>
      <point x="440" y="204" type="curve" smooth="yes"/>
      <point x="440" y="262"/>
      <point x="419" y="312"/>
      <point x="378" y="353" type="curve" smooth="yes"/>
      <point x="337" y="394"/>
      <point x="286" y="413"/>
      <point x="228" y="413" type="curve" smooth="yes"/>
      <point x="162" y="413"/>
      <point x="124" y="384"/>
      <point x="124" y="384" type="curve"/>
      <point x="124" y="437" type="line" smooth="yes"/>
      <point x="124" y="488"/>
      <point x="137" y="530"/>
      <point x="162" y="558" type="curve" smooth="yes"/>
      <point x="184" y="584"/>
      <point x="216" y="598"/>
    </contour>
    <contour>
      <point x="228" y="305" type="curve" smooth="yes"/>
      <point x="285" y="305"/>
      <point x="331" y="258"/>
      <point x="331" y="202" type="curve" smooth="yes"/>
      <point x="331" y="145"/>
      <point x="285" y="98"/>
      <point x="228" y="98" type="curve" smooth="yes"/>
      <point x="172" y="98"/>
      <point x="124" y="145"/>
      <point x="124" y="202" type="curve" smooth="yes"/>
      <point x="124" y="258"/>
      <point x="172" y="305"/>
    </contour>
  </outline>
</glyph>
<glyph name="seven" format="1">
  <advance width="429"/>
  <unicode hex="0037"/>
  <outline>
    <contour>
      <point x="424" y="698" type="line"/>
      <point x="31" y="698" type="line"/>
      <point x="31" y="588" type="line"/>
      <point x="300" y="588" type="line"/>
      <point x="10" y="0" type="line"/>
      <point x="131" y="0" type="line"/>
      <point x="424" y="588" type="line"/>
    </contour>
  </outline>
</glyph>
<glyph name="eight" format="1">
  <advance width="453"/>
  <unicode hex="0038"/>
  <outline>
    <contour>
      <point x="227" y="708" type="curve" smooth="yes"/>
      <point x="177" y="708"/>
      <point x="136" y="691"/>
      <point x="103" y="656" type="curve" smooth="yes"/>
      <point x="69" y="621"/>
      <point x="53" y="581"/>
      <point x="53" y="532" type="curve" smooth="yes"/>
      <point x="53" y="498"/>
      <point x="59" y="468"/>
      <point x="76" y="442" type="curve"/>
      <point x="88" y="421"/>
      <point x="105" y="404"/>
      <point x="127" y="389" type="curve"/>
      <point x="100" y="375"/>
      <point x="78" y="356"/>
      <point x="61" y="334" type="curve" smooth="yes"/>
      <point x="31" y="297"/>
      <point x="13" y="251"/>
      <point x="13" y="201" type="curve" smooth="yes"/>
      <point x="13" y="142"/>
      <point x="34" y="91"/>
      <point x="76" y="50" type="curve" smooth="yes"/>
      <point x="117" y="9"/>
      <point x="166" y="-12"/>
      <point x="226" y="-12" type="curve" smooth="yes"/>
      <point x="285" y="-12"/>
      <point x="334" y="9"/>
      <point x="375" y="50" type="curve" smooth="yes"/>
      <point x="417" y="91"/>
      <point x="439" y="142"/>
      <point x="439" y="201" type="curve" smooth="yes"/>
      <point x="439" y="258"/>
      <point x="416" y="311"/>
      <point x="376" y="350" type="curve"/>
      <point x="362" y="365"/>
      <point x="344" y="377"/>
      <point x="326" y="388" type="curve"/>
      <point x="349" y="403"/>
      <point x="366" y="421"/>
      <point x="380" y="442" type="curve" smooth="yes"/>
      <point x="395" y="468"/>
      <point x="403" y="498"/>
      <point x="403" y="532" type="curve" smooth="yes"/>
      <point x="403" y="581"/>
      <point x="385" y="621"/>
      <point x="351" y="656" type="curve" smooth="yes"/>
      <point x="317" y="691"/>
      <point x="275" y="708"/>
    </contour>
    <contour>
      <point x="226" y="466" type="curve" smooth="yes"/>
      <point x="206" y="466"/>
      <point x="187" y="476"/>
      <point x="176" y="490" type="curve" smooth="yes"/>
      <point x="165" y="502"/>
      <point x="159" y="517"/>
      <point x="159" y="533" type="curve" smooth="yes"/>
      <point x="159" y="571"/>
      <point x="189" y="599"/>
      <point x="226" y="599" type="curve" smooth="yes"/>
      <point x="263" y="599"/>
      <point x="293" y="571"/>
      <point x="293" y="533" type="curve" smooth="yes"/>
      <point x="293" y="517"/>
      <point x="285" y="501"/>
      <point x="275" y="490" type="curve" smooth="yes"/>
      <point x="263" y="476"/>
      <point x="245" y="466"/>
    </contour>
    <contour>
      <point x="226" y="96" type="curve" smooth="yes"/>
      <point x="167" y="96"/>
      <point x="121" y="143"/>
      <point x="121" y="201" type="curve" smooth="yes"/>
      <point x="121" y="228"/>
      <point x="132" y="253"/>
      <point x="148" y="272" type="curve" smooth="yes"/>
      <point x="167" y="293"/>
      <point x="196" y="306"/>
      <point x="226" y="306" type="curve" smooth="yes"/>
      <point x="252" y="306"/>
      <point x="274" y="297"/>
      <point x="293" y="282" type="curve" smooth="yes"/>
      <point x="316" y="263"/>
      <point x="330" y="234"/>
      <point x="330" y="201" type="curve" smooth="yes"/>
      <point x="330" y="143"/>
      <point x="284" y="96"/>
    </contour>
  </outline>
</glyph>
<glyph name="nine" format="1">
  <advance width="450"/>
  <unicode hex="0039"/>
  <outline>
    <contour>
      <point x="221" y="708" type="curve" smooth="yes"/>
      <point x="162" y="708"/>
      <point x="112" y="687"/>
      <point x="70" y="647" type="curve" smooth="yes"/>
      <point x="30" y="606"/>
      <point x="9" y="554"/>
      <point x="9" y="496" type="curve" smooth="yes"/>
      <point x="9" y="437"/>
      <point x="30" y="387"/>
      <point x="70" y="345" type="curve" smooth="yes"/>
      <point x="111" y="305"/>
      <point x="163" y="286"/>
      <point x="221" y="286" type="curve" smooth="yes"/>
      <point x="288" y="286"/>
      <point x="323" y="315"/>
      <point x="323" y="315" type="curve"/>
      <point x="323" y="262" type="line" smooth="yes"/>
      <point x="323" y="211"/>
      <point x="311" y="169"/>
      <point x="287" y="140" type="curve"/>
      <point x="265" y="116"/>
      <point x="234" y="100"/>
      <point x="193" y="100" type="curve" smooth="yes"/>
      <point x="154" y="100" type="line"/>
      <point x="154" y="-1" type="line"/>
      <point x="189" y="-1" type="line" smooth="yes"/>
      <point x="278" y="-1"/>
      <point x="346" y="34"/>
      <point x="382" y="82" type="curve" smooth="yes"/>
      <point x="418" y="134"/>
      <point x="432" y="185"/>
      <point x="432" y="238" type="curve" smooth="yes"/>
      <point x="432" y="496" type="line" smooth="yes"/>
      <point x="432" y="554"/>
      <point x="411" y="606"/>
      <point x="371" y="647" type="curve" smooth="yes"/>
      <point x="330" y="687"/>
      <point x="279" y="708"/>
    </contour>
    <contour>
      <point x="221" y="599" type="curve" smooth="yes"/>
      <point x="278" y="599"/>
      <point x="323" y="554"/>
      <point x="323" y="497" type="curve" smooth="yes"/>
      <point x="323" y="440"/>
      <point x="278" y="394"/>
      <point x="221" y="394" type="curve" smooth="yes"/>
      <point x="164" y="394"/>
      <point x="117" y="440"/>
      <point x="117" y="497" type="curve" smooth="yes"/>
      <point x="117" y="554"/>
      <point x="164" y="599"/>
    </contour>
  </outline>
</glyph>
<glyph name="colon" format="1">
  <advance width="159"/>
  <unicode hex="003A"/>
  <outline>
    <contour>
      <point x="139" y="143" type="curve" smooth="yes"/>
      <point x="139" y="176"/>
      <point x="111" y="204"/>
      <point x="78" y="204" type="curve" smooth="yes"/>
      <point x="45" y="204"/>
      <point x="20" y="176"/>
      <point x="20" y="143" type="curve" smooth="yes"/>
      <point x="20" y="110"/>
      <point x="45" y="84"/>
      <point x="78" y="84" type="curve" smooth="yes"/>
      <point x="111" y="84"/>
      <point x="139" y="110"/>
    </contour>
    <contour>
      <point x="139" y="385" type="curve" smooth="yes"/>
      <point x="139" y="417"/>
      <point x="111" y="444"/>
      <point x="78" y="444" type="curve" smooth="yes"/>
      <point x="45" y="444"/>
      <point x="20" y="417"/>
      <point x="20" y="385" type="curve" smooth="yes"/>
      <point x="20" y="352"/>
      <point x="45" y="324"/>
      <point x="78" y="324" type="curve" smooth="yes"/>
      <point x="111" y="324"/>
      <point x="139" y="352"/>
    </contour>
  </outline>
</glyph>
<glyph name="semicolon" format="1">
  <advance width="158"/>
  <unicode hex="003B"/>
  <outline>
    <contour>
      <point x="45" y="28" type="curve"/>
      <point x="70" y="11" type="line"/>
      <point x="70" y="11"/>
      <point x="137" y="52"/>
      <point x="137" y="143" type="curve" smooth="yes"/>
      <point x="137" y="176"/>
      <point x="110" y="202"/>
      <point x="78" y="202" type="curve" smooth="yes"/>
      <point x="45" y="202"/>
      <point x="19" y="176"/>
      <point x="19" y="143" type="curve" smooth="yes"/>
      <point x="19" y="116"/>
      <point x="37" y="92"/>
      <point x="64" y="85" type="curve"/>
      <point x="61" y="66"/>
      <point x="55" y="45"/>
    </contour>
    <contour>
      <point x="139" y="385" type="curve" smooth="yes"/>
      <point x="139" y="417"/>
      <point x="111" y="444"/>
      <point x="78" y="444" type="curve" smooth="yes"/>
      <point x="45" y="444"/>
      <point x="20" y="417"/>
      <point x="20" y="385" type="curve" smooth="yes"/>
      <point x="20" y="352"/>
      <point x="45" y="324"/>
      <point x="78" y="324" type="curve" smooth="yes"/>
      <point x="111" y="324"/>
      <point x="139" y="352"/>
    </contour>
  </outline>
</glyph>
<glyph name="equal" format="1">
  <advance width="363"/>
  <unicode hex="003D"/>
  <outline>
    <contour>
      <point x="341" y="461" type="line"/>
      <point x="21" y="461" type="line"/>
      <point x="21" y="356" type="line"/>
      <point x="341" y="356" type="line"/>
    </contour>
    <contour>
      <point x="341" y="309" type="line"/>
      <point x="21" y="309" type="line"/>
      <point x="21" y="204" type="line"/>
      <point x="341" y="204" type="line"/>
    </contour>
  </outline>
</glyph>
<glyph name="question" format="1">
  <advance width="404"/>
  <unicode hex="003F"/>
  <outline>
    <contour>
      <point x="16" y="531" type="curve"/>
      <point x="129" y="531" type="line"/>
      <point x="129" y="580"/>
      <point x="162" y="603"/>
      <point x="197" y="603" type="curve" smooth="yes"/>
      <point x="245" y="603"/>
      <point x="275" y="565"/>
      <point x="275" y="525" type="curve" smooth="yes"/>
      <point x="275" y="481"/>
      <point x="240" y="444"/>
      <point x="205" y="400" type="curve" smooth="yes"/>
      <point x="167" y="354"/>
      <point x="129" y="298"/>
      <point x="129" y="212" type="curve" smooth="yes"/>
      <point x="129" y="119" type="line"/>
      <point x="238" y="119" type="line"/>
      <point x="238" y="156"/>
      <point x="238" y="183"/>
      <point x="238" y="210" type="curve" smooth="yes"/>
      <point x="241" y="282"/>
      <point x="255" y="306"/>
      <point x="308" y="365" type="curve" smooth="yes"/>
      <point x="351" y="413"/>
      <point x="386" y="455"/>
      <point x="386" y="521" type="curve" smooth="yes"/>
      <point x="386" y="634"/>
      <point x="299" y="708"/>
      <point x="196" y="708" type="curve" smooth="yes"/>
      <point x="108" y="708"/>
      <point x="16" y="652"/>
    </contour>
    <contour>
      <point x="184" y="103" type="curve" smooth="yes"/>
      <point x="151" y="103"/>
      <point x="124" y="76"/>
      <point x="124" y="43" type="curve" smooth="yes"/>
      <point x="124" y="10"/>
      <point x="151" y="-17"/>
      <point x="184" y="-17" type="curve" smooth="yes"/>
      <point x="217" y="-17"/>
      <point x="243" y="10"/>
      <point x="243" y="43" type="curve" smooth="yes"/>
      <point x="243" y="76"/>
      <point x="217" y="103"/>
    </contour>
  </outline>
</glyph>
<glyph name="at" format="1">
  <advance width="792"/>
  <unicode hex="0040"/>
  <outline>
    <contour>
      <point x="774" y="415" type="curve"/>
      <point x="743" y="484" type="line"/>
      <point x="649" y="466"/>
      <point x="629" y="415"/>
      <point x="629" y="348" type="curve" smooth="yes"/>
      <point x="629" y="332"/>
      <point x="629" y="179"/>
      <point x="629" y="162" type="curve" smooth="yes"/>
      <point x="629" y="57"/>
      <point x="548" y="5"/>
      <point x="384" y="5" type="curve" smooth="yes"/>
      <point x="195" y="5"/>
      <point x="122" y="70"/>
      <point x="122" y="226" type="curve" smooth="yes"/>
      <point x="122" y="261"/>
      <point x="122" y="295"/>
      <point x="122" y="330" type="curve" smooth="yes"/>
      <point x="122" y="443"/>
      <point x="153" y="504"/>
      <point x="300" y="504" type="curve" smooth="yes"/>
      <point x="385" y="504"/>
      <point x="435" y="496"/>
      <point x="435" y="443" type="curve"/>
      <point x="435" y="443"/>
      <point x="334" y="443"/>
      <point x="324" y="443" type="curve" smooth="yes"/>
      <point x="246" y="443"/>
      <point x="188" y="400"/>
      <point x="185" y="285" type="curve"/>
      <point x="185" y="234" type="line" smooth="yes"/>
      <point x="185" y="141"/>
      <point x="223" y="61"/>
      <point x="346" y="61" type="curve" smooth="yes"/>
      <point x="425" y="61"/>
      <point x="544" y="70"/>
      <point x="544" y="70" type="curve"/>
      <point x="544" y="163"/>
      <point x="544" y="253"/>
      <point x="544" y="345" type="curve"/>
      <point x="575" y="345" type="line"/>
      <point x="602" y="443" type="line"/>
      <point x="541" y="443" type="line"/>
      <point x="541" y="576"/>
      <point x="437" y="604"/>
      <point x="296" y="604" type="curve" smooth="yes"/>
      <point x="120" y="604"/>
      <point x="19" y="522"/>
      <point x="19" y="323" type="curve" smooth="yes"/>
      <point x="19" y="280"/>
      <point x="19" y="234"/>
      <point x="19" y="184" type="curve" smooth="yes"/>
      <point x="19" y="-2"/>
      <point x="168" y="-94"/>
      <point x="380" y="-94" type="curve" smooth="yes"/>
      <point x="638" y="-94"/>
      <point x="730" y="38"/>
      <point x="730" y="178" type="curve" smooth="yes"/>
      <point x="730" y="335" type="line" smooth="yes"/>
      <point x="730" y="372"/>
      <point x="733" y="395"/>
    </contour>
    <contour>
      <point x="352" y="345" type="curve" smooth="yes"/>
      <point x="354" y="345"/>
      <point x="409" y="345"/>
      <point x="438" y="345" type="curve"/>
      <point x="438" y="156" type="line"/>
      <point x="411" y="153"/>
      <point x="388" y="153"/>
      <point x="365" y="153" type="curve" smooth="yes"/>
      <point x="319" y="153"/>
      <point x="295" y="167"/>
      <point x="295" y="233" type="curve" smooth="yes"/>
      <point x="295" y="282" type="line" smooth="yes"/>
      <point x="295" y="332"/>
      <point x="330" y="345"/>
    </contour>
  </outline>
</glyph>
<glyph name="A" format="1">
  <advance width="513"/>
  <unicode hex="0041"/>
  <outline>
    <contour>
      <point x="178" y="698" type="line"/>
      <point x="9" y="0" type="line"/>
      <point x="133" y="0" type="line"/>
      <point x="173" y="183" type="line"/>
      <point x="334" y="183" type="line"/>
      <point x="374" y="0" type="line"/>
      <point x="505" y="0" type="line"/>
      <point x="333" y="698" type="line"/>
    </contour>
    <contour>
      <point x="309" y="300" type="line"/>
      <point x="200" y="300" type="line"/>
      <point x="254" y="515" type="line"/>
    </contour>
  </outline>
</glyph>
<glyph name="B" format="1">
  <advance width="470"/>
  <unicode hex="0042"/>
  <outline>
    <contour>
      <point x="226" y="698" type="curve" smooth="yes"/>
      <point x="22" y="698" type="line"/>
      <point x="22" y="0" type="line"/>
      <point x="241" y="0" type="line" smooth="yes"/>
      <point x="317" y="0"/>
      <point x="369" y="25"/>
      <point x="403" y="61" type="curve" smooth="yes"/>
      <point x="441" y="100"/>
      <point x="455" y="154"/>
      <point x="455" y="205" type="curve" smooth="yes"/>
      <point x="455" y="296"/>
      <point x="411" y="354"/>
      <point x="352" y="381" type="curve"/>
      <point x="352" y="382" type="line" smooth="yes"/>
      <point x="352" y="383"/>
      <point x="352" y="383"/>
      <point x="353" y="384" type="curve"/>
      <point x="397" y="414"/>
      <point x="419" y="459"/>
      <point x="419" y="521" type="curve" smooth="yes"/>
      <point x="419" y="579"/>
      <point x="402" y="621"/>
      <point x="364" y="653" type="curve" smooth="yes"/>
      <point x="327" y="684"/>
      <point x="280" y="698"/>
    </contour>
    <contour>
      <point x="180" y="413" type="curve" smooth="yes"/>
      <point x="132" y="413" type="line"/>
      <point x="132" y="588" type="line"/>
      <point x="190" y="588" type="line" smooth="yes"/>
      <point x="258" y="588"/>
      <point x="291" y="568"/>
      <point x="291" y="505" type="curve" smooth="yes"/>
      <point x="291" y="476"/>
      <point x="286" y="455"/>
      <point x="273" y="441" type="curve" smooth="yes"/>
      <point x="255" y="421"/>
      <point x="224" y="413"/>
    </contour>
    <contour>
      <point x="212" y="101" type="curve" smooth="yes"/>
      <point x="132" y="101" type="line"/>
      <point x="132" y="307" type="line"/>
      <point x="202" y="307" type="line" smooth="yes"/>
      <point x="287" y="307"/>
      <point x="329" y="274"/>
      <point x="329" y="207" type="curve" smooth="yes"/>
      <point x="329" y="120"/>
      <point x="260" y="101"/>
    </contour>
  </outline>
</glyph>
<glyph name="C" format="1">
  <advance width="392"/>
  <unicode hex="0043"/>
  <outline>
    <contour>
      <point x="324" y="582" type="curve"/>
      <point x="354" y="675" type="line"/>
      <point x="307" y="698"/>
      <point x="258" y="710"/>
      <point x="210" y="710" type="curve" smooth="yes"/>
      <point x="161" y="710"/>
      <point x="114" y="697"/>
      <point x="79" y="664" type="curve" smooth="yes"/>
      <point x="43" y="632"/>
      <point x="18" y="581"/>
      <point x="18" y="503" type="curve" smooth="yes"/>
      <point x="18" y="183" type="line" smooth="yes"/>
      <point x="18" y="113"/>
      <point x="41" y="64"/>
      <point x="77" y="32" type="curve" smooth="yes"/>
      <point x="112" y="2"/>
      <point x="161" y="-12"/>
      <point x="215" y="-12" type="curve" smooth="yes"/>
      <point x="266" y="-11"/>
      <point x="321" y="1"/>
      <point x="378" y="23" type="curve"/>
      <point x="362" y="127" type="line"/>
      <point x="350" y="127"/>
      <point x="282" y="100"/>
      <point x="221" y="100" type="curve" smooth="yes"/>
      <point x="193" y="100"/>
      <point x="168" y="105"/>
      <point x="152" y="120" type="curve" smooth="yes"/>
      <point x="136" y="133"/>
      <point x="128" y="154"/>
      <point x="128" y="185" type="curve" smooth="yes"/>
      <point x="128" y="512" type="line" smooth="yes"/>
      <point x="128" y="542"/>
      <point x="135" y="563"/>
      <point x="153" y="577" type="curve" smooth="yes"/>
      <point x="169" y="592"/>
      <point x="195" y="599"/>
      <point x="230" y="599" type="curve" smooth="yes"/>
      <point x="260" y="599"/>
      <point x="297" y="592"/>
    </contour>
  </outline>
</glyph>
<glyph name="D" format="1">
  <advance width="460"/>
  <unicode hex="0044"/>
  <outline>
    <contour>
      <point x="210" y="700" type="curve" smooth="yes"/>
      <point x="22" y="700" type="line"/>
      <point x="22" y="0" type="line"/>
      <point x="230" y="0" type="line" smooth="yes"/>
      <point x="371" y="0"/>
      <point x="442" y="74"/>
      <point x="442" y="206" type="curve" smooth="yes"/>
      <point x="442" y="473" type="line" smooth="yes"/>
      <point x="442" y="609"/>
      <point x="361" y="700"/>
    </contour>
    <contour>
      <point x="215" y="101" type="curve" smooth="yes"/>
      <point x="132" y="101" type="line"/>
      <point x="132" y="588" type="line"/>
      <point x="220" y="588" type="line" smooth="yes"/>
      <point x="296" y="588"/>
      <point x="332" y="555"/>
      <point x="332" y="483" type="curve" smooth="yes"/>
      <point x="332" y="196" type="line" smooth="yes"/>
      <point x="332" y="156"/>
      <point x="326" y="101"/>
    </contour>
  </outline>
</glyph>
<glyph name="G" format="1">
  <advance width="446"/>
  <unicode hex="0047"/>
  <outline>
    <contour>
      <point x="321" y="576" type="curve"/>
      <point x="354" y="675" type="line"/>
      <point x="315" y="695"/>
      <point x="272" y="706"/>
      <point x="224" y="708" type="curve" smooth="yes"/>
      <point x="170" y="708"/>
      <point x="135" y="700"/>
      <point x="105" y="683" type="curve"/>
      <point x="47" y="648"/>
      <point x="18" y="587"/>
      <point x="18" y="502" type="curve" smooth="yes"/>
      <point x="18" y="189" type="line" smooth="yes"/>
      <point x="18" y="123"/>
      <point x="37" y="73"/>
      <point x="79" y="40" type="curve" smooth="yes"/>
      <point x="120" y="7"/>
      <point x="169" y="-10"/>
      <point x="229" y="-10" type="curve" smooth="yes"/>
      <point x="254" y="-10"/>
      <point x="284" y="-4"/>
      <point x="319" y="8" type="curve"/>
      <point x="324" y="0" type="line"/>
      <point x="429" y="0" type="line"/>
      <point x="429" y="300" type="line"/>
      <point x="227" y="300" type="line"/>
      <point x="262" y="195" type="line"/>
      <point x="319" y="195" type="line"/>
      <point x="319" y="186" type="line" smooth="yes"/>
      <point x="319" y="159"/>
      <point x="311" y="139"/>
      <point x="299" y="125" type="curve" smooth="yes"/>
      <point x="284" y="109"/>
      <point x="260" y="101"/>
      <point x="228" y="101" type="curve" smooth="yes"/>
      <point x="163" y="101"/>
      <point x="128" y="123"/>
      <point x="128" y="187" type="curve" smooth="yes"/>
      <point x="128" y="510" type="line" smooth="yes"/>
      <point x="128" y="549"/>
      <point x="141" y="571"/>
      <point x="165" y="583" type="curve" smooth="yes"/>
      <point x="182" y="591"/>
      <point x="204" y="594"/>
      <point x="230" y="594" type="curve" smooth="yes"/>
      <point x="258" y="594"/>
      <point x="289" y="587"/>
    </contour>
  </outline>
</glyph>
<glyph name="I" format="1">
  <advance width="201"/>
  <unicode hex="0049"/>
  <outline>
    <contour>
      <point x="68" y="0" type="line"/>
      <point x="178" y="0" type="line"/>
      <point x="178" y="698" type="line"/>
      <point x="5" y="698" type="line"/>
      <point x="5" y="593" type="line"/>
      <point x="68" y="591" type="line"/>
    </contour>
  </outline>
</glyph>
<glyph name="J" format="1">
  <advance width="245"/>
  <unicode hex="004A"/>
  <outline>
    <contour>
      <point x="224" y="139" type="curve" smooth="yes"/>
      <point x="224" y="698" type="line"/>
      <point x="56" y="698" type="line"/>
      <point x="56" y="593" type="line"/>
      <point x="117" y="591" type="line"/>
      <point x="117" y="156" type="line" smooth="yes"/>
      <point x="117" y="90"/>
      <point x="81" y="57"/>
      <point x="11" y="57" type="curve"/>
      <point x="47" y="-37" type="line"/>
      <point x="84" y="-36"/>
      <point x="131" y="-28"/>
      <point x="168" y="3" type="curve" smooth="yes"/>
      <point x="200" y="29"/>
      <point x="224" y="71"/>
    </contour>
  </outline>
</glyph>
<glyph name="L" format="1">
  <advance width="394"/>
  <unicode hex="004C"/>
  <outline>
    <contour>
      <point x="383" y="101" type="line"/>
      <point x="132" y="101" type="line"/>
      <point x="132" y="698" type="line"/>
      <point x="22" y="698" type="line"/>
      <point x="22" y="0" type="line"/>
      <point x="383" y="0" type="line"/>
    </contour>
  </outline>
</glyph>
<glyph name="M" format="1">
  <advance width="581"/>
  <unicode hex="004D"/>
  <outline>
    <contour>
      <point x="22" y="0" type="line"/>
      <point x="132" y="0" type="line"/>
      <point x="132" y="369" type="line"/>
      <point x="248" y="0" type="line"/>
      <point x="331" y="0" type="line"/>
      <point x="448" y="370" type="line"/>
      <point x="448" y="0" type="line"/>
      <point x="558" y="0" type="line"/>
      <point x="558" y="698" type="line"/>
      <point x="448" y="698" type="line"/>
      <point x="289" y="237" type="line"/>
      <point x="132" y="698" type="line"/>
      <point x="22" y="698" type="line"/>
    </contour>
  </outline>
</glyph>
<glyph name="O" format="1">
  <advance width="457"/>
  <unicode hex="004F"/>
  <outline>
    <contour>
      <point x="18" y="506" type="curve" smooth="yes"/>
      <point x="18" y="185" type="line" smooth="yes"/>
      <point x="18" y="56"/>
      <point x="110" y="-11"/>
      <point x="229" y="-11" type="curve" smooth="yes"/>
      <point x="354" y="-11"/>
      <point x="438" y="63"/>
      <point x="438" y="185" type="curve" smooth="yes"/>
      <point x="438" y="505" type="line" smooth="yes"/>
      <point x="438" y="636"/>
      <point x="362" y="715"/>
      <point x="230" y="715" type="curve" smooth="yes"/>
      <point x="98" y="715"/>
      <point x="18" y="642"/>
    </contour>
    <contour>
      <point x="128" y="204" type="curve" smooth="yes"/>
      <point x="128" y="470" type="line" smooth="yes"/>
      <point x="128" y="557"/>
      <point x="158" y="598"/>
      <point x="228" y="598" type="curve" smooth="yes"/>
      <point x="305" y="598"/>
      <point x="328" y="554"/>
      <point x="328" y="469" type="curve" smooth="yes"/>
      <point x="328" y="206" type="line" smooth="yes"/>
      <point x="328" y="143"/>
      <point x="291" y="101"/>
      <point x="228" y="101" type="curve" smooth="yes"/>
      <point x="161" y="101"/>
      <point x="128" y="140"/>
    </contour>
  </outline>
</glyph>
<glyph name="P" format="1">
  <advance width="471"/>
  <unicode hex="0050"/>
  <outline>
    <contour>
      <point x="239" y="698" type="curve" smooth="yes"/>
      <point x="22" y="698" type="line"/>
      <point x="22" y="0" type="line"/>
      <point x="132" y="0" type="line"/>
      <point x="132" y="195" type="line"/>
      <point x="132" y="195"/>
      <point x="234" y="195"/>
      <point x="239" y="195" type="curve" smooth="yes"/>
      <point x="346" y="195"/>
      <point x="457" y="235"/>
      <point x="457" y="451" type="curve" smooth="yes"/>
      <point x="457" y="648"/>
      <point x="344" y="698"/>
    </contour>
    <contour>
      <point x="132" y="300" type="curve"/>
      <point x="132" y="588" type="line"/>
      <point x="198" y="588" type="line" smooth="yes"/>
      <point x="300" y="588"/>
      <point x="346" y="576"/>
      <point x="346" y="451" type="curve" smooth="yes"/>
      <point x="346" y="317"/>
      <point x="301" y="300"/>
      <point x="198" y="300" type="curve" smooth="yes"/>
      <point x="193" y="300"/>
      <point x="132" y="300"/>
    </contour>
  </outline>
</glyph>
<glyph name="Q" format="1">
  <advance width="457"/>
  <unicode hex="0051"/>
  <outline>
    <contour>
      <point x="18" y="506" type="curve" smooth="yes"/>
      <point x="18" y="185" type="line" smooth="yes"/>
      <point x="18" y="56"/>
      <point x="110" y="-11"/>
      <point x="229" y="-11" type="curve" smooth="yes"/>
      <point x="354" y="-11"/>
      <point x="438" y="63"/>
      <point x="438" y="185" type="curve" smooth="yes"/>
      <point x="438" y="505" type="line" smooth="yes"/>
      <point x="438" y="636"/>
      <point x="362" y="715"/>
      <point x="230" y="715" type="curve" smooth="yes"/>
      <point x="98" y="715"/>
      <point x="18" y="642"/>
    </contour>
    <contour>
      <point x="128" y="184" type="curve" smooth="yes"/>
      <point x="128" y="470" type="line" smooth="yes"/>
      <point x="128" y="557"/>
      <point x="158" y="598"/>
      <point x="228" y="598" type="curve" smooth="yes"/>
      <point x="305" y="598"/>
      <point x="328" y="554"/>
      <point x="328" y="469" type="curve" smooth="yes"/>
      <point x="328" y="186" type="line" smooth="yes"/>
      <point x="328" y="123"/>
      <point x="308" y="81"/>
      <point x="228" y="81" type="curve" smooth="yes"/>
      <point x="139" y="81"/>
      <point x="128" y="140"/>
    </contour>
    <contour>
      <point x="285" y="50" type="curve" smooth="yes"/>
      <point x="285" y="94"/>
      <point x="284" y="133"/>
      <point x="285" y="173" type="curve"/>
      <point x="172" y="173" type="line"/>
      <point x="170" y="123"/>
      <point x="172" y="77"/>
      <point x="172" y="31" type="curve" smooth="yes"/>
      <point x="172" y="-50"/>
      <point x="209" y="-117"/>
      <point x="372" y="-117" type="curve"/>
      <point x="386" y="-22" type="line"/>
      <point x="291" y="-22"/>
      <point x="285" y="5"/>
    </contour>
  </outline>
</glyph>
<glyph name="S" format="1">
  <advance width="512"/>
  <unicode hex="0053"/>
  <outline>
    <contour>
      <point x="400" y="574" type="curve"/>
      <point x="433" y="671" type="line"/>
      <point x="387" y="695"/>
      <point x="329" y="708"/>
      <point x="273" y="708" type="curve" smooth="yes"/>
      <point x="215" y="708"/>
      <point x="158" y="697"/>
      <point x="113" y="667" type="curve" smooth="yes"/>
      <point x="65" y="635"/>
      <point x="45" y="586"/>
      <point x="45" y="537" type="curve" smooth="yes"/>
      <point x="45" y="428"/>
      <point x="133" y="387"/>
      <point x="218" y="346" type="curve" smooth="yes"/>
      <point x="241" y="337"/>
      <point x="264" y="326"/>
      <point x="285" y="313" type="curve" smooth="yes"/>
      <point x="335" y="286"/>
      <point x="375" y="252"/>
      <point x="375" y="198" type="curve" smooth="yes"/>
      <point x="375" y="167"/>
      <point x="361" y="137"/>
      <point x="338" y="121" type="curve" smooth="yes"/>
      <point x="313" y="102"/>
      <point x="278" y="96"/>
      <point x="249" y="96" type="curve" smooth="yes"/>
      <point x="229" y="96"/>
      <point x="193" y="99"/>
      <point x="155" y="122" type="curve" smooth="yes"/>
      <point x="134" y="135"/>
      <point x="114" y="155"/>
      <point x="97" y="183" type="curve"/>
      <point x="12" y="127" type="line"/>
      <point x="42" y="81"/>
      <point x="66" y="55"/>
      <point x="100" y="31" type="curve" smooth="yes"/>
      <point x="146" y="-2"/>
      <point x="200" y="-12"/>
      <point x="246" y="-12" type="curve" smooth="yes"/>
      <point x="305" y="-12"/>
      <point x="365" y="-1"/>
      <point x="411" y="29" type="curve" smooth="yes"/>
      <point x="473" y="69"/>
      <point x="498" y="136"/>
      <point x="498" y="199" type="curve" smooth="yes"/>
      <point x="498" y="297"/>
      <point x="431" y="360"/>
      <point x="356" y="404" type="curve" smooth="yes"/>
      <point x="327" y="422"/>
      <point x="296" y="437"/>
      <point x="268" y="449" type="curve" smooth="yes"/>
      <point x="210" y="475"/>
      <point x="168" y="496"/>
      <point x="167" y="537" type="curve" smooth="yes"/>
      <point x="167" y="559"/>
      <point x="177" y="575"/>
      <point x="193" y="586" type="curve" smooth="yes"/>
      <point x="209" y="598"/>
      <point x="237" y="606"/>
      <point x="271" y="606" type="curve" smooth="yes"/>
      <point x="307" y="606"/>
      <point x="352" y="597"/>
    </contour>
  </outline>
</glyph>
<glyph name="V" format="1">
  <advance width="480"/>
  <unicode hex="0056"/>
  <outline>
    <contour>
      <point x="302" y="0" type="line"/>
      <point x="477" y="698" type="line"/>
      <point x="350" y="698" type="line"/>
      <point x="238" y="216" type="line"/>
      <point x="123" y="698" type="line"/>
      <point x="-1" y="698" type="line"/>
      <point x="174" y="0" type="line"/>
    </contour>
  </outline>
</glyph>
<glyph name="W" format="1">
  <advance width="705"/>
  <unicode hex="0057"/>
  <outline>
    <contour>
      <point x="207" y="252" type="line"/>
      <point x="124" y="698" type="line"/>
      <point x="3" y="698" type="line"/>
      <point x="137" y="0" type="line"/>
      <point x="265" y="0" type="line"/>
      <point x="352" y="353" type="line"/>
      <point x="441" y="0" type="line"/>
      <point x="565" y="0" type="line"/>
      <point x="700" y="698" type="line"/>
      <point x="573" y="698" type="line"/>
      <point x="498" y="252" type="line"/>
      <point x="392" y="698" type="line"/>
      <point x="313" y="698" type="line"/>
    </contour>
  </outline>
</glyph>
<glyph name="bracketleft" format="1">
  <advance width="201"/>
  <unicode hex="005B"/>
  <outline>
    <contour>
      <point x="184" y="816" type="line"/>
      <point x="23" y="816" type="line"/>
      <point x="23" y="-114" type="line"/>
      <point x="184" y="-114" type="line"/>
      <point x="184" y="-9" type="line"/>
      <point x="133" y="1" type="line"/>
      <point x="133" y="701" type="line"/>
      <point x="184" y="711" type="line"/>
    </contour>
  </outline>
</glyph>
<glyph name="bracketright" format="1">
  <advance width="201"/>
  <unicode hex="005D"/>
  <outline>
    <contour>
      <point x="178" y="816" type="line"/>
      <point x="18" y="816" type="line"/>
      <point x="18" y="711" type="line"/>
      <point x="68" y="701" type="line"/>
      <point x="68" y="1" type="line"/>
      <point x="18" y="-9" type="line"/>
      <point x="18" y="-114" type="line"/>
      <point x="178" y="-114" type="line"/>
    </contour>
  </outline>
</glyph>
<glyph name="grave" format="1">
  <advance width="237"/>
  <unicode hex="0060"/>
  <outline>
    <contour>
      <point x="133" y="704" type="line"/>
      <point x="122" y="730"/>
      <point x="94" y="749"/>
      <point x="67" y="734" type="curve" smooth="yes"/>
      <point x="38" y="718"/>
      <point x="43" y="682"/>
      <point x="61" y="663" type="curve"/>
      <point x="119" y="587" type="line"/>
      <point x="163" y="587" type="line"/>
    </contour>
  </outline>
</glyph>
<glyph name="b" format="1">
  <advance width="421"/>
  <unicode hex="0062"/>
  <outline>
    <contour>
      <point x="132" y="482" type="curve"/>
      <point x="132" y="698" type="line"/>
      <point x="22" y="698" type="line"/>
      <point x="22" y="0" type="line"/>
      <point x="81" y="-4"/>
      <point x="140" y="-11"/>
      <point x="198" y="-11" type="curve" smooth="yes"/>
      <point x="312" y="-11"/>
      <point x="400" y="25"/>
      <point x="406" y="155" type="curve" smooth="yes"/>
      <point x="406" y="156"/>
      <point x="406" y="359"/>
      <point x="406" y="359" type="curve"/>
      <point x="406" y="461"/>
      <point x="332" y="508"/>
      <point x="257" y="508" type="curve" smooth="yes"/>
      <point x="212" y="508"/>
      <point x="175" y="501"/>
    </contour>
    <contour>
      <point x="132" y="94" type="curve"/>
      <point x="132" y="94"/>
      <point x="132" y="370"/>
      <point x="132" y="370" type="curve"/>
      <point x="143" y="377"/>
      <point x="180" y="394"/>
      <point x="227" y="394" type="curve" smooth="yes"/>
      <point x="257" y="394"/>
      <point x="296" y="382"/>
      <point x="296" y="345" type="curve" smooth="yes"/>
      <point x="296" y="324"/>
      <point x="296" y="193"/>
      <point x="296" y="174" type="curve" smooth="yes"/>
      <point x="296" y="123"/>
      <point x="283" y="91"/>
      <point x="191" y="91" type="curve" smooth="yes"/>
      <point x="175" y="91"/>
      <point x="132" y="94"/>
    </contour>
  </outline>
</glyph>
<glyph name="d" format="1">
  <advance width="422"/>
  <unicode hex="0064"/>
  <outline>
    <contour>
      <point x="399" y="0" type="curve"/>
      <point x="399" y="698" type="line"/>
      <point x="289" y="698" type="line"/>
      <point x="289" y="482" type="line"/>
      <point x="246" y="501"/>
      <point x="209" y="508"/>
      <point x="163" y="508" type="curve" smooth="yes"/>
      <point x="89" y="508"/>
      <point x="14" y="461"/>
      <point x="14" y="359" type="curve"/>
      <point x="14" y="359"/>
      <point x="14" y="156"/>
      <point x="14" y="155" type="curve" smooth="yes"/>
      <point x="20" y="25"/>
      <point x="109" y="-11"/>
      <point x="222" y="-11" type="curve" smooth="yes"/>
      <point x="287" y="-11"/>
      <point x="345" y="-8"/>
    </contour>
    <contour>
      <point x="289" y="370" type="curve"/>
      <point x="289" y="370"/>
      <point x="289" y="94"/>
      <point x="289" y="94" type="curve"/>
      <point x="289" y="94"/>
      <point x="245" y="91"/>
      <point x="229" y="91" type="curve" smooth="yes"/>
      <point x="139" y="91"/>
      <point x="125" y="123"/>
      <point x="125" y="174" type="curve" smooth="yes"/>
      <point x="125" y="193"/>
      <point x="125" y="324"/>
      <point x="125" y="345" type="curve" smooth="yes"/>
      <point x="125" y="382"/>
      <point x="164" y="394"/>
      <point x="195" y="394" type="curve" smooth="yes"/>
      <point x="241" y="394"/>
      <point x="277" y="377"/>
    </contour>
  </outline>
</glyph>
<glyph name="e" format="1">
  <advance width="388"/>
  <unicode hex="0065"/>
  <outline>
    <contour>
      <point x="125" y="148" type="curve" smooth="yes"/>
      <point x="125" y="173" type="line"/>
      <point x="374" y="186" type="line"/>
      <point x="374" y="342" type="line" smooth="yes"/>
      <point x="374" y="402"/>
      <point x="352" y="449"/>
      <point x="313" y="477" type="curve" smooth="yes"/>
      <point x="284" y="498"/>
      <point x="245" y="509"/>
      <point x="198" y="509" type="curve" smooth="yes"/>
      <point x="147" y="509"/>
      <point x="105" y="496"/>
      <point x="74" y="472" type="curve" smooth="yes"/>
      <point x="36" y="442"/>
      <point x="14" y="397"/>
      <point x="14" y="339" type="curve" smooth="yes"/>
      <point x="14" y="134" type="line" smooth="yes"/>
      <point x="14" y="80"/>
      <point x="34" y="43"/>
      <point x="64" y="20" type="curve" smooth="yes"/>
      <point x="95" y="-3"/>
      <point x="135" y="-13"/>
      <point x="179" y="-13" type="curve" smooth="yes"/>
      <point x="239" y="-13"/>
      <point x="302" y="5"/>
      <point x="349" y="35" type="curve"/>
      <point x="309" y="130" type="line"/>
      <point x="266" y="108"/>
      <point x="218" y="90"/>
      <point x="182" y="90" type="curve" smooth="yes"/>
      <point x="163" y="90"/>
      <point x="150" y="95"/>
      <point x="140" y="106" type="curve"/>
      <point x="130" y="116"/>
      <point x="125" y="129"/>
    </contour>
    <contour>
      <point x="263" y="312" type="curve" smooth="yes"/>
      <point x="263" y="305"/>
      <point x="263" y="289"/>
      <point x="263" y="283" type="curve"/>
      <point x="125" y="274" type="line"/>
      <point x="125" y="284"/>
      <point x="125" y="304"/>
      <point x="125" y="313" type="curve" smooth="yes"/>
      <point x="125" y="345"/>
      <point x="127" y="367"/>
      <point x="144" y="385" type="curve"/>
      <point x="155" y="395"/>
      <point x="173" y="403"/>
      <point x="197" y="404" type="curve" smooth="yes"/>
      <point x="218" y="404"/>
      <point x="232" y="397"/>
      <point x="242" y="388" type="curve" smooth="yes"/>
      <point x="261" y="371"/>
      <point x="263" y="348"/>
    </contour>
  </outline>
</glyph>
<glyph name="f" format="1">
  <advance width="241"/>
  <unicode hex="0066"/>
  <outline>
    <contour>
      <point x="212" y="606" type="curve"/>
      <point x="230" y="706" type="line"/>
      <point x="211" y="708"/>
      <point x="186" y="711"/>
      <point x="168" y="711" type="curve" smooth="yes"/>
      <point x="87" y="711"/>
      <point x="21" y="659"/>
      <point x="21" y="548" type="curve" smooth="yes"/>
      <point x="21" y="0" type="line"/>
      <point x="134" y="0" type="line"/>
      <point x="134" y="396" type="line"/>
      <point x="197" y="396" type="line"/>
      <point x="221" y="499" type="line"/>
      <point x="134" y="499" type="line"/>
      <point x="134" y="555"/>
      <point x="134" y="557"/>
      <point x="134" y="558" type="curve" smooth="yes"/>
      <point x="134" y="594"/>
      <point x="147" y="612"/>
      <point x="173" y="612" type="curve" smooth="yes"/>
      <point x="186" y="612"/>
      <point x="201" y="609"/>
    </contour>
  </outline>
</glyph>
<glyph name="g" format="1">
  <advance width="404"/>
  <unicode hex="0067"/>
  <outline>
    <contour>
      <point x="384" y="-64" type="curve" smooth="yes"/>
      <point x="384" y="499" type="line"/>
      <point x="274" y="499" type="line"/>
      <point x="274" y="477" type="line"/>
      <point x="243" y="498"/>
      <point x="209" y="509"/>
      <point x="172" y="509" type="curve" smooth="yes"/>
      <point x="69" y="509"/>
      <point x="14" y="446"/>
      <point x="14" y="345" type="curve" smooth="yes"/>
      <point x="14" y="176" type="line" smooth="yes"/>
      <point x="14" y="53"/>
      <point x="73" y="-12"/>
      <point x="184" y="-12" type="curve" smooth="yes"/>
      <point x="217" y="-12"/>
      <point x="251" y="-3"/>
      <point x="274" y="12" type="curve"/>
      <point x="274" y="-53" type="line" smooth="yes"/>
      <point x="274" y="-106"/>
      <point x="234" y="-124"/>
      <point x="201" y="-124" type="curve"/>
      <point x="228" y="-210" type="line"/>
      <point x="323" y="-210"/>
      <point x="384" y="-169"/>
    </contour>
    <contour>
      <point x="274" y="386" type="curve"/>
      <point x="274" y="139" type="line" smooth="yes"/>
      <point x="274" y="116"/>
      <point x="248" y="92"/>
      <point x="193" y="88" type="curve"/>
      <point x="146" y="88"/>
      <point x="124" y="120"/>
      <point x="124" y="159" type="curve" smooth="yes"/>
      <point x="124" y="337" type="line" smooth="yes"/>
      <point x="124" y="393"/>
      <point x="159" y="410"/>
      <point x="198" y="410" type="curve" smooth="yes"/>
      <point x="232" y="410"/>
      <point x="274" y="386"/>
    </contour>
  </outline>
</glyph>
<glyph name="h" format="1">
  <advance width="409"/>
  <unicode hex="0068"/>
  <outline>
    <contour>
      <point x="131" y="476" type="curve"/>
      <point x="131" y="698" type="line"/>
      <point x="22" y="698" type="line"/>
      <point x="22" y="0" type="line"/>
      <point x="131" y="0" type="line"/>
      <point x="131" y="386" type="line"/>
      <point x="163" y="402"/>
      <point x="188" y="409"/>
      <point x="211" y="409" type="curve" smooth="yes"/>
      <point x="253" y="409"/>
      <point x="283" y="381"/>
      <point x="283" y="343" type="curve" smooth="yes"/>
      <point x="283" y="0" type="line"/>
      <point x="392" y="0" type="line"/>
      <point x="392" y="345" type="line" smooth="yes"/>
      <point x="392" y="473"/>
      <point x="310" y="509"/>
      <point x="231" y="509" type="curve" smooth="yes"/>
      <point x="190" y="509"/>
      <point x="148" y="488"/>
    </contour>
  </outline>
</glyph>
<glyph name="i" format="1">
  <advance width="159"/>
  <unicode hex="0069"/>
  <outline>
    <contour>
      <point x="134" y="499" type="line"/>
      <point x="24" y="499" type="line"/>
      <point x="24" y="0" type="line"/>
      <point x="134" y="0" type="line"/>
    </contour>
    <contour>
      <point x="79" y="708" type="curve" smooth="yes"/>
      <point x="46" y="708"/>
      <point x="20" y="683"/>
      <point x="20" y="650" type="curve" smooth="yes"/>
      <point x="20" y="617"/>
      <point x="46" y="590"/>
      <point x="79" y="590" type="curve" smooth="yes"/>
      <point x="112" y="590"/>
      <point x="139" y="617"/>
      <point x="139" y="650" type="curve" smooth="yes"/>
      <point x="139" y="683"/>
      <point x="112" y="708"/>
    </contour>
  </outline>
</glyph>
<glyph name="j" format="1">
  <advance width="221"/>
  <unicode hex="006A"/>
  <outline>
    <contour>
      <point x="194" y="-61" type="curve" smooth="yes"/>
      <point x="194" y="499" type="line"/>
      <point x="11" y="499" type="line"/>
      <point x="11" y="410" type="line"/>
      <point x="84" y="400" type="line"/>
      <point x="84" y="-50" type="line" smooth="yes"/>
      <point x="84" y="-74"/>
      <point x="75" y="-91"/>
      <point x="63" y="-102" type="curve" smooth="yes"/>
      <point x="50" y="-116"/>
      <point x="35" y="-120"/>
      <point x="12" y="-125" type="curve"/>
      <point x="42" y="-215" type="line"/>
      <point x="71" y="-215"/>
      <point x="118" y="-202"/>
      <point x="146" y="-177" type="curve" smooth="yes"/>
      <point x="175" y="-151"/>
      <point x="194" y="-116"/>
    </contour>
    <contour>
      <point x="200" y="649" type="curve" smooth="yes"/>
      <point x="200" y="682"/>
      <point x="173" y="708"/>
      <point x="140" y="708" type="curve" smooth="yes"/>
      <point x="107" y="708"/>
      <point x="80" y="682"/>
      <point x="80" y="649" type="curve" smooth="yes"/>
      <point x="80" y="617"/>
      <point x="107" y="590"/>
      <point x="140" y="590" type="curve" smooth="yes"/>
      <point x="173" y="590"/>
      <point x="200" y="617"/>
    </contour>
  </outline>
</glyph>
<glyph name="k" format="1">
  <advance width="438"/>
  <unicode hex="006B"/>
  <outline>
    <contour>
      <point x="231" y="332" type="curve"/>
      <point x="362" y="443" type="line"/>
      <point x="282" y="519" type="line"/>
      <point x="132" y="382" type="line"/>
      <point x="132" y="698" type="line"/>
      <point x="22" y="698" type="line"/>
      <point x="22" y="0" type="line"/>
      <point x="132" y="0" type="line"/>
      <point x="132" y="240" type="line"/>
      <point x="146" y="254" type="line"/>
      <point x="296" y="0" type="line"/>
      <point x="435" y="0" type="line"/>
      <point x="396" y="61"/>
      <point x="328" y="170"/>
    </contour>
  </outline>
</glyph>
<glyph name="m" format="1">
  <advance width="681"/>
  <unicode hex="006D"/>
  <outline>
    <contour>
      <point x="553" y="341" type="curve" smooth="yes"/>
      <point x="553" y="0" type="line"/>
      <point x="663" y="0" type="line"/>
      <point x="663" y="344" type="line" smooth="yes"/>
      <point x="663" y="472"/>
      <point x="574" y="507"/>
      <point x="495" y="507" type="curve" smooth="yes"/>
      <point x="461" y="507"/>
      <point x="400" y="488"/>
      <point x="358" y="459" type="curve"/>
      <point x="324" y="495"/>
      <point x="276" y="507"/>
      <point x="229" y="507" type="curve" smooth="yes"/>
      <point x="188" y="507"/>
      <point x="146" y="486"/>
      <point x="130" y="475" type="curve"/>
      <point x="130" y="499" type="line"/>
      <point x="20" y="499" type="line"/>
      <point x="20" y="0" type="line"/>
      <point x="130" y="0" type="line"/>
      <point x="130" y="384" type="line"/>
      <point x="161" y="400"/>
      <point x="187" y="408"/>
      <point x="210" y="408" type="curve" smooth="yes"/>
      <point x="252" y="408"/>
      <point x="286" y="380"/>
      <point x="286" y="341" type="curve" smooth="yes"/>
      <point x="286" y="0" type="line"/>
      <point x="396" y="0" type="line"/>
      <point x="396" y="344" type="line" smooth="yes"/>
      <point x="396" y="359"/>
      <point x="395" y="372"/>
      <point x="393" y="384" type="curve"/>
      <point x="424" y="400"/>
      <point x="457" y="408"/>
      <point x="475" y="408" type="curve" smooth="yes"/>
      <point x="517" y="408"/>
      <point x="553" y="381"/>
    </contour>
  </outline>
</glyph>
<glyph name="n" format="1">
  <advance width="407"/>
  <unicode hex="006E"/>
  <outline>
    <contour>
      <point x="280" y="342" type="curve" smooth="yes"/>
      <point x="280" y="-1" type="line"/>
      <point x="389" y="-1" type="line"/>
      <point x="389" y="345" type="line" smooth="yes"/>
      <point x="389" y="473"/>
      <point x="308" y="508"/>
      <point x="229" y="508" type="curve" smooth="yes"/>
      <point x="188" y="508"/>
      <point x="146" y="487"/>
      <point x="129" y="476" type="curve"/>
      <point x="129" y="499" type="line"/>
      <point x="20" y="499" type="line"/>
      <point x="20" y="-1" type="line"/>
      <point x="129" y="-1" type="line"/>
      <point x="129" y="385" type="line"/>
      <point x="161" y="402"/>
      <point x="186" y="409"/>
      <point x="209" y="409" type="curve" smooth="yes"/>
      <point x="251" y="409"/>
      <point x="280" y="380"/>
    </contour>
  </outline>
</glyph>
<glyph name="o" format="1">
  <advance width="396"/>
  <unicode hex="006F"/>
  <outline>
    <contour>
      <point x="382" y="184" type="curve" smooth="yes"/>
      <point x="382" y="316" type="line" smooth="yes"/>
      <point x="382" y="437"/>
      <point x="316" y="510"/>
      <point x="200" y="510" type="curve" smooth="yes"/>
      <point x="79" y="510"/>
      <point x="13" y="443"/>
      <point x="13" y="316" type="curve" smooth="yes"/>
      <point x="13" y="184" type="line" smooth="yes"/>
      <point x="13" y="82"/>
      <point x="68" y="-10"/>
      <point x="200" y="-10" type="curve" smooth="yes"/>
      <point x="324" y="-10"/>
      <point x="382" y="71"/>
    </contour>
    <contour>
      <point x="269" y="322" type="curve" smooth="yes"/>
      <point x="269" y="176" type="line" smooth="yes"/>
      <point x="269" y="131"/>
      <point x="249" y="98"/>
      <point x="199" y="98" type="curve" smooth="yes"/>
      <point x="146" y="98"/>
      <point x="124" y="135"/>
      <point x="124" y="176" type="curve" smooth="yes"/>
      <point x="124" y="322" type="line" smooth="yes"/>
      <point x="124" y="373"/>
      <point x="151" y="400"/>
      <point x="199" y="400" type="curve" smooth="yes"/>
      <point x="246" y="400"/>
      <point x="269" y="370"/>
    </contour>
  </outline>
</glyph>
<glyph name="q" format="1">
  <advance width="404"/>
  <unicode hex="0071"/>
  <outline>
    <contour>
      <point x="274" y="13" type="curve"/>
      <point x="274" y="-198" type="line"/>
      <point x="384" y="-212" type="line"/>
      <point x="384" y="499" type="line"/>
      <point x="274" y="499" type="line"/>
      <point x="274" y="477" type="line"/>
      <point x="244" y="498"/>
      <point x="210" y="510"/>
      <point x="174" y="510" type="curve" smooth="yes"/>
      <point x="70" y="510"/>
      <point x="14" y="448"/>
      <point x="14" y="345" type="curve" smooth="yes"/>
      <point x="14" y="176" type="line" smooth="yes"/>
      <point x="14" y="54"/>
      <point x="73" y="-11"/>
      <point x="184" y="-11" type="curve" smooth="yes"/>
      <point x="216" y="-11"/>
      <point x="250" y="-2"/>
    </contour>
    <contour>
      <point x="274" y="387" type="curve"/>
      <point x="274" y="140" type="line" smooth="yes"/>
      <point x="274" y="117"/>
      <point x="248" y="92"/>
      <point x="193" y="89" type="curve"/>
      <point x="144" y="89"/>
      <point x="124" y="122"/>
      <point x="124" y="161" type="curve" smooth="yes"/>
      <point x="124" y="338" type="line" smooth="yes"/>
      <point x="124" y="394"/>
      <point x="161" y="411"/>
      <point x="197" y="411" type="curve" smooth="yes"/>
      <point x="232" y="411"/>
      <point x="274" y="387"/>
    </contour>
  </outline>
</glyph>
<glyph name="r" format="1">
  <advance width="335"/>
  <unicode hex="0072"/>
  <outline>
    <contour>
      <point x="312" y="409" type="curve"/>
      <point x="328" y="499" type="line"/>
      <point x="307" y="507"/>
      <point x="279" y="514"/>
      <point x="249" y="514" type="curve" smooth="yes"/>
      <point x="206" y="514"/>
      <point x="163" y="501"/>
      <point x="130" y="479" type="curve"/>
      <point x="130" y="499" type="line"/>
      <point x="20" y="499" type="line"/>
      <point x="20" y="0" type="line"/>
      <point x="130" y="0" type="line"/>
      <point x="130" y="388" type="line"/>
      <point x="172" y="407"/>
      <point x="215" y="416"/>
      <point x="260" y="416" type="curve" smooth="yes"/>
      <point x="296" y="416"/>
      <point x="312" y="409"/>
    </contour>
  </outline>
</glyph>
<glyph name="u" format="1">
  <advance width="405"/>
  <unicode hex="0075"/>
  <outline>
    <contour>
      <point x="275" y="26" type="curve"/>
      <point x="275" y="0" type="line"/>
      <point x="385" y="0" type="line"/>
      <point x="385" y="501" type="line"/>
      <point x="275" y="501" type="line"/>
      <point x="275" y="175" type="line" smooth="yes"/>
      <point x="275" y="129"/>
      <point x="240" y="94"/>
      <point x="195" y="94" type="curve" smooth="yes"/>
      <point x="155" y="94"/>
      <point x="127" y="124"/>
      <point x="127" y="159" type="curve" smooth="yes"/>
      <point x="127" y="501" type="line"/>
      <point x="16" y="501" type="line"/>
      <point x="16" y="157" type="line" smooth="yes"/>
      <point x="16" y="29"/>
      <point x="98" y="-7"/>
      <point x="176" y="-7" type="curve" smooth="yes"/>
      <point x="218" y="-7"/>
      <point x="262" y="12"/>
    </contour>
  </outline>
</glyph>
<glyph name="v" format="1">
  <advance width="432"/>
  <unicode hex="0076"/>
  <outline>
    <contour>
      <point x="268" y="0" type="line"/>
      <point x="425" y="499" type="line"/>
      <point x="306" y="499" type="line"/>
      <point x="216" y="195" type="line"/>
      <point x="122" y="499" type="line"/>
      <point x="3" y="499" type="line"/>
      <point x="162" y="0" type="line"/>
    </contour>
  </outline>
</glyph>
<glyph name="w" format="1">
  <advance width="690"/>
  <unicode hex="0077"/>
  <outline>
    <contour>
      <point x="215" y="194" type="line"/>
      <point x="123" y="499" type="line"/>
      <point x="3" y="499" type="line"/>
      <point x="164" y="0" type="line"/>
      <point x="272" y="0" type="line"/>
      <point x="344" y="267" type="line"/>
      <point x="416" y="0" type="line"/>
      <point x="521" y="0" type="line"/>
      <point x="683" y="499" type="line"/>
      <point x="565" y="499" type="line"/>
      <point x="483" y="194" type="line"/>
      <point x="399" y="499" type="line"/>
      <point x="295" y="499" type="line"/>
    </contour>
  </outline>
</glyph>
<glyph name="x" format="1">
  <advance width="475"/>
  <unicode hex="0078"/>
  <outline>
    <contour>
      <point x="13" y="499" type="line"/>
      <point x="169" y="248" type="line"/>
      <point x="13" y="0" type="line"/>
      <point x="151" y="0" type="line"/>
      <point x="238" y="140" type="line"/>
      <point x="326" y="0" type="line"/>
      <point x="457" y="0" type="line"/>
      <point x="306" y="249" type="line"/>
      <point x="464" y="499" type="line"/>
      <point x="328" y="499" type="line"/>
      <point x="239" y="356" type="line"/>
      <point x="153" y="499" type="line"/>
    </contour>
  </outline>
</glyph>
<glyph name="z" format="1">
  <advance width="398"/>
  <unicode hex="007A"/>
  <outline>
    <contour>
      <point x="24" y="397" type="line"/>
      <point x="224" y="397" type="line"/>
      <point x="15" y="105" type="line"/>
      <point x="15" y="0" type="line"/>
      <point x="383" y="0" type="line"/>
      <point x="383" y="105" type="line"/>
      <point x="163" y="105" type="line"/>
      <point x="373" y="400" type="line"/>
      <point x="373" y="499" type="line"/>
      <point x="24" y="499" type="line"/>
    </contour>
  </outline>
</glyph>
<glyph name="braceleft" format="1">
  <advance width="272"/>
  <unicode hex="007B"/>
  <outline>
    <contour>
      <point x="207" y="516" type="curve" smooth="yes"/>
      <point x="207" y="629" type="line" smooth="yes"/>
      <point x="207" y="704"/>
      <point x="232" y="725"/>
      <point x="257" y="739" type="curve"/>
      <point x="207" y="821" type="line"/>
      <point x="202" y="820"/>
      <point x="98" y="790"/>
      <point x="98" y="629" type="curve" smooth="yes"/>
      <point x="98" y="516" type="line" smooth="yes"/>
      <point x="98" y="459"/>
      <point x="91" y="409"/>
      <point x="28" y="360" type="curve" smooth="yes"/>
      <point x="18" y="352" type="line"/>
      <point x="28" y="345" type="line"/>
      <point x="91" y="296"/>
      <point x="98" y="245"/>
      <point x="98" y="189" type="curve" smooth="yes"/>
      <point x="98" y="76" type="line" smooth="yes"/>
      <point x="98" y="-84"/>
      <point x="201" y="-116"/>
      <point x="207" y="-117" type="curve"/>
      <point x="257" y="-34" type="line"/>
      <point x="232" y="-20"/>
      <point x="207" y="1"/>
      <point x="207" y="76" type="curve" smooth="yes"/>
      <point x="207" y="189" type="line" smooth="yes"/>
      <point x="207" y="246"/>
      <point x="202" y="301"/>
      <point x="141" y="352" type="curve"/>
      <point x="202" y="404"/>
      <point x="207" y="459"/>
    </contour>
  </outline>
</glyph>
<glyph name="braceright" format="1">
  <advance width="274"/>
  <unicode hex="007D"/>
  <outline>
    <contour>
      <point x="66" y="821" type="curve"/>
      <point x="15" y="739" type="line"/>
      <point x="41" y="725"/>
      <point x="66" y="704"/>
      <point x="66" y="629" type="curve" smooth="yes"/>
      <point x="66" y="516" type="line" smooth="yes"/>
      <point x="66" y="459"/>
      <point x="70" y="404"/>
      <point x="132" y="352" type="curve"/>
      <point x="70" y="301"/>
      <point x="66" y="246"/>
      <point x="66" y="189" type="curve" smooth="yes"/>
      <point x="66" y="76" type="line" smooth="yes"/>
      <point x="66" y="1"/>
      <point x="41" y="-20"/>
      <point x="15" y="-34" type="curve"/>
      <point x="66" y="-117" type="line"/>
      <point x="71" y="-116"/>
      <point x="176" y="-84"/>
      <point x="176" y="76" type="curve" smooth="yes"/>
      <point x="176" y="189" type="line" smooth="yes"/>
      <point x="176" y="245"/>
      <point x="182" y="296"/>
      <point x="245" y="345" type="curve"/>
      <point x="255" y="352" type="line"/>
      <point x="244" y="360" type="line"/>
      <point x="182" y="409"/>
      <point x="176" y="459"/>
      <point x="176" y="516" type="curve" smooth="yes"/>
      <point x="176" y="629" type="line" smooth="yes"/>
      <point x="176" y="790"/>
      <point x="70" y="820"/>
    </contour>
  </outline>
</glyph>
<glyph name="asciitilde" format="1">
  <advance width="353"/>
  <unicode hex="007E"/>
  <outline>
    <contour>
      <point x="334" y="299" type="curve"/>
      <point x="301" y="355" type="line"/>
      <point x="277" y="337"/>
      <point x="256" y="331"/>
      <point x="238" y="331" type="curve" smooth="yes"/>
      <point x="196" y="331"/>
      <point x="159" y="360"/>
      <point x="113" y="360" type="curve" smooth="yes"/>
      <point x="76" y="360"/>
      <point x="45" y="341"/>
      <point x="18" y="319" type="curve"/>
      <point x="51" y="263" type="line"/>
      <point x="75" y="279"/>
      <point x="97" y="286"/>
      <point x="117" y="286" type="curve" smooth="yes"/>
      <point x="158" y="285"/>
      <point x="194" y="257"/>
      <point x="237" y="256" type="curve" smooth="yes"/>
      <point x="277" y="256"/>
      <point x="308" y="276"/>
    </contour>
  </outline>
</glyph>
<glyph name="exclamdown" format="1">
  <advance width="157"/>
  <unicode hex="00A1"/>
  <outline>
    <contour>
      <point x="136" y="68" type="curve" smooth="yes"/>
      <point x="114" y="588" type="line"/>
      <point x="38" y="588" type="line"/>
      <point x="20" y="69" type="line"/>
      <point x="20" y="23"/>
      <point x="38" y="0"/>
      <point x="76" y="0" type="curve" smooth="yes"/>
      <point x="116" y="0"/>
      <point x="136" y="23"/>
    </contour>
    <contour>
      <point x="137" y="664" type="curve" smooth="yes"/>
      <point x="137" y="697"/>
      <point x="111" y="724"/>
      <point x="78" y="724" type="curve" smooth="yes"/>
      <point x="46" y="724"/>
      <point x="19" y="697"/>
      <point x="19" y="664" type="curve" smooth="yes"/>
      <point x="19" y="631"/>
      <point x="46" y="605"/>
      <point x="78" y="605" type="curve" smooth="yes"/>
      <point x="111" y="605"/>
      <point x="137" y="631"/>
    </contour>
  </outline>
</glyph>
<glyph name="cent" format="1">
  <advance width="359"/>
  <unicode hex="00A2"/>
  <outline>
    <contour>
      <point x="313" y="392" type="curve"/>
      <point x="339" y="477" type="line"/>
      <point x="280" y="503"/>
      <point x="217" y="518"/>
      <point x="157" y="505" type="curve" smooth="yes"/>
      <point x="112" y="495"/>
      <point x="73" y="471"/>
      <point x="47" y="427" type="curve" smooth="yes"/>
      <point x="28" y="395"/>
      <point x="21" y="363"/>
      <point x="19" y="319" type="curve"/>
      <point x="19" y="173" type="line" smooth="yes"/>
      <point x="19" y="75"/>
      <point x="63" y="23"/>
      <point x="131" y="1" type="curve" smooth="yes"/>
      <point x="201" y="-20"/>
      <point x="276" y="-12"/>
      <point x="341" y="5" type="curve"/>
      <point x="321" y="94" type="line"/>
      <point x="321" y="94"/>
      <point x="275" y="84"/>
      <point x="231" y="84" type="curve" smooth="yes"/>
      <point x="170" y="84"/>
      <point x="128" y="113"/>
      <point x="128" y="174" type="curve" smooth="yes"/>
      <point x="128" y="331" type="line" smooth="yes"/>
      <point x="128" y="351"/>
      <point x="133" y="367"/>
      <point x="141" y="380" type="curve" smooth="yes"/>
      <point x="153" y="398"/>
      <point x="174" y="409"/>
      <point x="197" y="413" type="curve"/>
      <point x="235" y="420"/>
      <point x="279" y="408"/>
    </contour>
    <contour>
      <point x="286" y="623" type="line"/>
      <point x="180" y="623" type="line"/>
      <point x="180" y="-113" type="line"/>
      <point x="286" y="-113" type="line"/>
    </contour>
  </outline>
</glyph>
<glyph name="sterling" format="1">
  <advance width="399"/>
  <unicode hex="00A3"/>
  <outline>
    <contour>
      <point x="119" y="100" type="curve"/>
      <point x="20" y="100" type="line"/>
      <point x="20" y="0" type="line"/>
      <point x="380" y="0" type="line"/>
      <point x="380" y="100" type="line"/>
      <point x="276" y="100" type="line"/>
      <point x="284" y="108"/>
      <point x="291" y="116"/>
      <point x="298" y="125" type="curve" smooth="yes"/>
      <point x="335" y="182"/>
      <point x="326" y="252"/>
      <point x="304" y="311" type="curve" smooth="yes"/>
      <point x="300" y="321"/>
      <point x="296" y="330"/>
      <point x="290" y="340" type="curve"/>
      <point x="380" y="340" type="line"/>
      <point x="380" y="443" type="line"/>
      <point x="226" y="443" type="line"/>
      <point x="216" y="454"/>
      <point x="207" y="465"/>
      <point x="200" y="476" type="curve"/>
      <point x="174" y="514"/>
      <point x="163" y="548"/>
      <point x="163" y="565" type="curve" smooth="yes"/>
      <point x="163" y="594"/>
      <point x="195" y="603"/>
      <point x="217" y="603" type="curve" smooth="yes"/>
      <point x="256" y="603"/>
      <point x="287" y="594"/>
      <point x="312" y="582" type="curve"/>
      <point x="346" y="672" type="line"/>
      <point x="313" y="695"/>
      <point x="257" y="708"/>
      <point x="222" y="708" type="curve" smooth="yes"/>
      <point x="131" y="708"/>
      <point x="50" y="661"/>
      <point x="45" y="569" type="curve"/>
      <point x="45" y="532"/>
      <point x="58" y="497"/>
      <point x="77" y="463" type="curve" smooth="yes"/>
      <point x="81" y="455"/>
      <point x="85" y="449"/>
      <point x="89" y="443" type="curve"/>
      <point x="20" y="443" type="line"/>
      <point x="20" y="340" type="line"/>
      <point x="156" y="340" type="line"/>
      <point x="159" y="333"/>
      <point x="164" y="328"/>
      <point x="167" y="323" type="curve"/>
      <point x="205" y="263"/>
      <point x="229" y="189"/>
      <point x="182" y="131" type="curve" smooth="yes"/>
      <point x="165" y="112"/>
      <point x="140" y="103"/>
    </contour>
  </outline>
</glyph>
<glyph name="currency" format="1">
  <advance width="469"/>
  <unicode hex="00A4"/>
  <outline>
    <contour>
      <point x="363" y="349" type="curve"/>
      <point x="450" y="435" type="line"/>
      <point x="386" y="498" type="line"/>
      <point x="300" y="411" type="line"/>
      <point x="280" y="422"/>
      <point x="258" y="428"/>
      <point x="234" y="428" type="curve" smooth="yes"/>
      <point x="210" y="428"/>
      <point x="188" y="422"/>
      <point x="168" y="411" type="curve"/>
      <point x="82" y="498" type="line"/>
      <point x="19" y="435" type="line"/>
      <point x="105" y="348" type="line"/>
      <point x="95" y="329"/>
      <point x="89" y="306"/>
      <point x="89" y="283" type="curve" smooth="yes"/>
      <point x="89" y="258"/>
      <point x="95" y="237"/>
      <point x="105" y="217" type="curve"/>
      <point x="19" y="131" type="line"/>
      <point x="82" y="68" type="line"/>
      <point x="168" y="154" type="line"/>
      <point x="188" y="144"/>
      <point x="210" y="137"/>
      <point x="234" y="137" type="curve" smooth="yes"/>
      <point x="257" y="137"/>
      <point x="280" y="143"/>
      <point x="299" y="153" type="curve"/>
      <point x="386" y="68" type="line"/>
      <point x="450" y="131" type="line"/>
      <point x="363" y="217" type="line"/>
      <point x="374" y="237"/>
      <point x="380" y="258"/>
      <point x="380" y="283" type="curve" smooth="yes"/>
      <point x="380" y="307"/>
      <point x="374" y="329"/>
    </contour>
    <contour>
      <point x="234" y="231" type="curve" smooth="yes"/>
      <point x="206" y="231"/>
      <point x="183" y="254"/>
      <point x="183" y="283" type="curve" smooth="yes"/>
      <point x="183" y="312"/>
      <point x="206" y="334"/>
      <point x="234" y="334" type="curve" smooth="yes"/>
      <point x="264" y="334"/>
      <point x="286" y="312"/>
      <point x="286" y="283" type="curve" smooth="yes"/>
      <point x="286" y="254"/>
      <point x="264" y="231"/>
    </contour>
  </outline>
</glyph>
<glyph name="yen" format="1">
  <advance width="504"/>
  <unicode hex="00A5"/>
  <outline>
    <contour>
      <point x="196" y="150" type="line"/>
      <point x="91" y="150" type="line"/>
      <point x="91" y="45" type="line"/>
      <point x="196" y="45" type="line"/>
      <point x="196" y="0" type="line"/>
      <point x="307" y="0" type="line"/>
      <point x="307" y="45" type="line"/>
      <point x="411" y="45" type="line"/>
      <point x="411" y="150" type="line"/>
      <point x="307" y="150" type="line"/>
      <point x="307" y="198" type="line"/>
      <point x="411" y="198" type="line"/>
      <point x="411" y="301" type="line"/>
      <point x="307" y="301" type="line"/>
      <point x="307" y="315" type="line"/>
      <point x="487" y="698" type="line"/>
      <point x="371" y="698" type="line"/>
      <point x="251" y="433" type="line"/>
      <point x="132" y="698" type="line"/>
      <point x="15" y="698" type="line"/>
      <point x="196" y="315" type="line"/>
      <point x="196" y="301" type="line"/>
      <point x="91" y="301" type="line"/>
      <point x="91" y="198" type="line"/>
      <point x="196" y="198" type="line"/>
    </contour>
  </outline>
</glyph>
<glyph name="dieresis" format="1">
  <advance width="397"/>
  <unicode hex="00A8"/>
  <outline>
    <contour>
      <point x="30" y="767" type="curve" smooth="yes"/>
      <point x="-3" y="767"/>
      <point x="-30" y="740"/>
      <point x="-30" y="708" type="curve" smooth="yes"/>
      <point x="-30" y="675"/>
      <point x="-3" y="648"/>
      <point x="30" y="648" type="curve" smooth="yes"/>
      <point x="63" y="648"/>
      <point x="89" y="675"/>
      <point x="89" y="708" type="curve" smooth="yes"/>
      <point x="89" y="740"/>
      <point x="63" y="767"/>
    </contour>
    <contour>
      <point x="188" y="767" type="curve" smooth="yes"/>
      <point x="155" y="767"/>
      <point x="128" y="740"/>
      <point x="128" y="708" type="curve" smooth="yes"/>
      <point x="128" y="675"/>
      <point x="155" y="648"/>
      <point x="188" y="648" type="curve" smooth="yes"/>
      <point x="221" y="648"/>
      <point x="248" y="675"/>
      <point x="248" y="708" type="curve" smooth="yes"/>
      <point x="248" y="740"/>
      <point x="221" y="767"/>
    </contour>
  </outline>
</glyph>
<glyph name="copyright" format="1">
  <advance width="757"/>
  <unicode hex="00A9"/>
  <outline>
    <contour>
      <point x="737" y="185" type="curve" smooth="yes"/>
      <point x="737" y="326" type="line" smooth="yes"/>
      <point x="737" y="510"/>
      <point x="587" y="602"/>
      <point x="378" y="603" type="curve" smooth="yes"/>
      <point x="168" y="602"/>
      <point x="19" y="510"/>
      <point x="19" y="326" type="curve" smooth="yes"/>
      <point x="19" y="185" type="line" smooth="yes"/>
      <point x="19" y="0"/>
      <point x="168" y="-91"/>
      <point x="378" y="-94" type="curve" smooth="yes"/>
      <point x="587" y="-91"/>
      <point x="737" y="0"/>
    </contour>
    <contour>
      <point x="635" y="289" type="curve" smooth="yes"/>
      <point x="635" y="222" type="line" smooth="yes"/>
      <point x="635" y="44"/>
      <point x="561" y="9"/>
      <point x="378" y="7" type="curve" smooth="yes"/>
      <point x="195" y="9"/>
      <point x="121" y="44"/>
      <point x="121" y="222" type="curve" smooth="yes"/>
      <point x="121" y="289" type="line" smooth="yes"/>
      <point x="121" y="466"/>
      <point x="195" y="501"/>
      <point x="378" y="503" type="curve" smooth="yes"/>
      <point x="561" y="501"/>
      <point x="635" y="466"/>
    </contour>
    <contour>
      <point x="505" y="331" type="curve"/>
      <point x="533" y="421" type="line"/>
      <point x="493" y="441"/>
      <point x="443" y="454"/>
      <point x="394" y="455" type="curve" smooth="yes"/>
      <point x="344" y="455"/>
      <point x="295" y="442"/>
      <point x="258" y="410" type="curve" smooth="yes"/>
      <point x="221" y="378"/>
      <point x="197" y="327"/>
      <point x="197" y="249" type="curve" smooth="yes"/>
      <point x="197" y="180"/>
      <point x="219" y="132"/>
      <point x="256" y="100" type="curve" smooth="yes"/>
      <point x="291" y="70"/>
      <point x="339" y="56"/>
      <point x="394" y="56" type="curve" smooth="yes"/>
      <point x="446" y="56"/>
      <point x="502" y="69"/>
      <point x="558" y="91" type="curve"/>
      <point x="541" y="195" type="line"/>
      <point x="541" y="195"/>
      <point x="458" y="163"/>
      <point x="395" y="163" type="curve" smooth="yes"/>
      <point x="371" y="163"/>
      <point x="348" y="167"/>
      <point x="331" y="182" type="curve" smooth="yes"/>
      <point x="316" y="196"/>
      <point x="307" y="224"/>
      <point x="307" y="255" type="curve" smooth="yes"/>
      <point x="307" y="284"/>
      <point x="316" y="311"/>
      <point x="332" y="327" type="curve" smooth="yes"/>
      <point x="349" y="342"/>
      <point x="374" y="350"/>
      <point x="409" y="350" type="curve" smooth="yes"/>
      <point x="457" y="350"/>
      <point x="505" y="331"/>
    </contour>
  </outline>
</glyph>
<glyph name="ordfeminine" format="1">
  <advance width="291"/>
  <unicode hex="00AA"/>
  <outline>
    <contour>
      <point x="276" y="391" type="curve"/>
      <point x="276" y="389"/>
      <point x="276" y="554"/>
      <point x="276" y="554" type="curve"/>
      <point x="276" y="617"/>
      <point x="265" y="662"/>
      <point x="232" y="687" type="curve" smooth="yes"/>
      <point x="198" y="714"/>
      <point x="146" y="713"/>
      <point x="110" y="708" type="curve"/>
      <point x="100" y="647" type="line"/>
      <point x="117" y="649"/>
      <point x="131" y="650"/>
      <point x="142" y="650" type="curve" smooth="yes"/>
      <point x="188" y="650"/>
      <point x="188" y="634"/>
      <point x="188" y="609" type="curve"/>
      <point x="163" y="624"/>
      <point x="136" y="631"/>
      <point x="112" y="631" type="curve" smooth="yes"/>
      <point x="45" y="630"/>
      <point x="8" y="581"/>
      <point x="7" y="518" type="curve"/>
      <point x="7" y="406"/>
      <point x="67" y="378"/>
      <point x="155" y="378" type="curve" smooth="yes"/>
      <point x="189" y="378"/>
      <point x="232" y="384"/>
    </contour>
    <contour>
      <point x="188" y="533" type="curve"/>
      <point x="188" y="460" type="line"/>
      <point x="178" y="460"/>
      <point x="167" y="458"/>
      <point x="152" y="458" type="curve" smooth="yes"/>
      <point x="123" y="458"/>
      <point x="91" y="466"/>
      <point x="90" y="507" type="curve" smooth="yes"/>
      <point x="90" y="533"/>
      <point x="101" y="555"/>
      <point x="127" y="555" type="curve" smooth="yes"/>
      <point x="148" y="555"/>
      <point x="172" y="543"/>
    </contour>
  </outline>
</glyph>
<glyph name="registered" format="1">
  <advance width="757"/>
  <unicode hex="00AE"/>
  <outline>
    <contour>
      <point x="737" y="185" type="curve" smooth="yes"/>
      <point x="737" y="326" type="line" smooth="yes"/>
      <point x="737" y="510"/>
      <point x="587" y="602"/>
      <point x="377" y="603" type="curve" smooth="yes"/>
      <point x="167" y="602"/>
      <point x="19" y="510"/>
      <point x="19" y="326" type="curve" smooth="yes"/>
      <point x="19" y="185" type="line" smooth="yes"/>
      <point x="19" y="0"/>
      <point x="167" y="-91"/>
      <point x="377" y="-94" type="curve" smooth="yes"/>
      <point x="587" y="-91"/>
      <point x="737" y="0"/>
    </contour>
    <contour>
      <point x="635" y="288" type="curve" smooth="yes"/>
      <point x="635" y="222" type="line" smooth="yes"/>
      <point x="635" y="44"/>
      <point x="560" y="9"/>
      <point x="377" y="7" type="curve" smooth="yes"/>
      <point x="195" y="9"/>
      <point x="121" y="44"/>
      <point x="121" y="222" type="curve" smooth="yes"/>
      <point x="121" y="288" type="line" smooth="yes"/>
      <point x="121" y="466"/>
      <point x="195" y="501"/>
      <point x="377" y="503" type="curve" smooth="yes"/>
      <point x="560" y="501"/>
      <point x="635" y="466"/>
    </contour>
    <contour>
      <point x="218" y="443" type="line"/>
      <point x="218" y="61" type="line"/>
      <point x="328" y="61" type="line"/>
      <point x="328" y="128" type="line"/>
      <point x="402" y="128" type="line"/>
      <point x="433" y="61" type="line"/>
      <point x="559" y="61" type="line"/>
      <point x="506" y="150" type="line"/>
      <point x="541" y="173"/>
      <point x="557" y="216"/>
      <point x="557" y="283" type="curve" smooth="yes"/>
      <point x="557" y="397"/>
      <point x="519" y="443"/>
      <point x="414" y="443" type="curve" smooth="yes"/>
    </contour>
    <contour>
      <point x="406" y="233" type="curve" smooth="yes"/>
      <point x="328" y="233" type="line"/>
      <point x="328" y="333" type="line"/>
      <point x="405" y="333" type="line" smooth="yes"/>
      <point x="427" y="333"/>
      <point x="448" y="330"/>
      <point x="448" y="283" type="curve" smooth="yes"/>
      <point x="448" y="237"/>
      <point x="428" y="233"/>
    </contour>
  </outline>
</glyph>
<glyph name="degree" format="1">
  <advance width="326"/>
  <unicode hex="00B0"/>
  <outline>
    <contour>
      <point x="308" y="564" type="curve" smooth="yes"/>
      <point x="308" y="645"/>
      <point x="243" y="710"/>
      <point x="162" y="710" type="curve" smooth="yes"/>
      <point x="81" y="710"/>
      <point x="16" y="645"/>
      <point x="16" y="564" type="curve" smooth="yes"/>
      <point x="16" y="484"/>
      <point x="81" y="419"/>
      <point x="162" y="419" type="curve" smooth="yes"/>
      <point x="243" y="419"/>
      <point x="308" y="484"/>
    </contour>
    <contour>
      <point x="162" y="617" type="curve" smooth="yes"/>
      <point x="190" y="617"/>
      <point x="215" y="593"/>
      <point x="215" y="564" type="curve" smooth="yes"/>
      <point x="215" y="536"/>
      <point x="190" y="512"/>
      <point x="162" y="512" type="curve" smooth="yes"/>
      <point x="133" y="512"/>
      <point x="110" y="536"/>
      <point x="110" y="564" type="curve" smooth="yes"/>
      <point x="110" y="593"/>
      <point x="133" y="617"/>
    </contour>
  </outline>
</glyph>
<glyph name="plusminus" format="1">
  <advance width="360"/>
  <unicode hex="00B1"/>
  <outline>
    <contour>
      <point x="124" y="246" type="line"/>
      <point x="19" y="246" type="line"/>
      <point x="19" y="146" type="line"/>
      <point x="339" y="146" type="line"/>
      <point x="339" y="246" type="line"/>
      <point x="235" y="246" type="line"/>
      <point x="235" y="349" type="line"/>
      <point x="340" y="349" type="line"/>
      <point x="340" y="454" type="line"/>
      <point x="235" y="454" type="line"/>
      <point x="235" y="564" type="line"/>
      <point x="124" y="564" type="line"/>
      <point x="124" y="454" type="line"/>
      <point x="20" y="454" type="line"/>
      <point x="20" y="349" type="line"/>
      <point x="124" y="349" type="line"/>
    </contour>
  </outline>
</glyph>
<glyph name="mu" format="1">
  <advance width="424"/>
  <unicode hex="00B5"/>
  <outline>
    <contour>
      <point x="388" y="112" type="curve" smooth="yes"/>
      <point x="388" y="509" type="line"/>
      <point x="277" y="496" type="line"/>
      <point x="277" y="158" type="line" smooth="yes"/>
      <point x="277" y="121"/>
      <point x="260" y="92"/>
      <point x="217" y="92" type="curve" smooth="yes"/>
      <point x="197" y="92"/>
      <point x="129" y="110"/>
      <point x="129" y="132" type="curve" smooth="yes"/>
      <point x="129" y="499" type="line"/>
      <point x="20" y="499" type="line"/>
      <point x="20" y="-201" type="line"/>
      <point x="129" y="-210" type="line"/>
      <point x="129" y="29" type="line"/>
      <point x="158" y="-3"/>
      <point x="188" y="-9"/>
      <point x="212" y="-9" type="curve" smooth="yes"/>
      <point x="231" y="-9"/>
      <point x="290" y="7"/>
      <point x="290" y="25" type="curve"/>
      <point x="290" y="25"/>
      <point x="304" y="5"/>
      <point x="316" y="-1" type="curve"/>
      <point x="411" y="25" type="line"/>
      <point x="411" y="25"/>
      <point x="388" y="48"/>
    </contour>
  </outline>
</glyph>
<glyph name="paragraph" format="1">
  <advance width="643"/>
  <unicode hex="00B6"/>
  <outline>
    <contour>
      <point x="341" y="195" type="line"/>
      <point x="341" y="1" type="line"/>
      <point x="451" y="1" type="line"/>
      <point x="451" y="594" type="line"/>
      <point x="510" y="592" type="line"/>
      <point x="510" y="1" type="line"/>
      <point x="620" y="1" type="line"/>
      <point x="620" y="700" type="line"/>
      <point x="234" y="700" type="line" smooth="yes"/>
      <point x="130" y="700"/>
      <point x="18" y="648"/>
      <point x="18" y="452" type="curve" smooth="yes"/>
      <point x="18" y="237"/>
      <point x="128" y="195"/>
      <point x="234" y="195" type="curve" smooth="yes"/>
    </contour>
    <contour>
      <point x="275" y="590" type="curve" smooth="yes"/>
      <point x="341" y="590" type="line"/>
      <point x="341" y="300" type="line"/>
      <point x="275" y="300" type="line" smooth="yes"/>
      <point x="173" y="300"/>
      <point x="128" y="318"/>
      <point x="128" y="452" type="curve" smooth="yes"/>
      <point x="128" y="577"/>
      <point x="174" y="590"/>
    </contour>
  </outline>
</glyph>
<glyph name="guillemotright" format="1">
  <advance width="516"/>
  <unicode hex="00BB"/>
  <outline>
    <contour>
      <point x="90" y="80" type="line"/>
      <point x="277" y="267" type="line"/>
      <point x="90" y="454" type="line"/>
      <point x="18" y="383" type="line"/>
      <point x="137" y="267" type="line"/>
      <point x="19" y="148" type="line"/>
    </contour>
    <contour>
      <point x="310" y="80" type="line"/>
      <point x="497" y="267" type="line"/>
      <point x="310" y="454" type="line"/>
      <point x="238" y="383" type="line"/>
      <point x="358" y="267" type="line"/>
      <point x="239" y="148" type="line"/>
    </contour>
  </outline>
</glyph>
<glyph name="questiondown" format="1">
  <advance width="405"/>
  <unicode hex="00BF"/>
  <outline>
    <contour>
      <point x="386" y="161" type="curve"/>
      <point x="275" y="161" type="line"/>
      <point x="273" y="116"/>
      <point x="243" y="89"/>
      <point x="201" y="89" type="curve"/>
      <point x="166" y="91"/>
      <point x="129" y="117"/>
      <point x="129" y="167" type="curve" smooth="yes"/>
      <point x="129" y="211"/>
      <point x="164" y="246"/>
      <point x="198" y="290" type="curve" smooth="yes"/>
      <point x="235" y="338"/>
      <point x="275" y="394"/>
      <point x="275" y="480" type="curve" smooth="yes"/>
      <point x="275" y="573" type="line"/>
      <point x="166" y="573" type="line"/>
      <point x="166" y="499"/>
      <point x="166" y="492"/>
      <point x="166" y="483" type="curve"/>
      <point x="163" y="411"/>
      <point x="148" y="386"/>
      <point x="96" y="328" type="curve" smooth="yes"/>
      <point x="53" y="279"/>
      <point x="18" y="237"/>
      <point x="18" y="170" type="curve" smooth="yes"/>
      <point x="18" y="55"/>
      <point x="110" y="-10"/>
      <point x="202" y="-15" type="curve"/>
      <point x="319" y="-15"/>
      <point x="385" y="58"/>
    </contour>
    <contour>
      <point x="220" y="708" type="curve" smooth="yes"/>
      <point x="187" y="708"/>
      <point x="161" y="682"/>
      <point x="161" y="649" type="curve" smooth="yes"/>
      <point x="161" y="616"/>
      <point x="187" y="588"/>
      <point x="220" y="588" type="curve" smooth="yes"/>
      <point x="253" y="588"/>
      <point x="279" y="616"/>
      <point x="279" y="649" type="curve" smooth="yes"/>
      <point x="279" y="682"/>
      <point x="253" y="708"/>
    </contour>
  </outline>
</glyph>
<glyph name="Agrave" format="1">
  <advance width="513"/>
  <unicode hex="00C0"/>
  <outline>
    <contour>
      <point x="178" y="698" type="line"/>
      <point x="9" y="0" type="line"/>
      <point x="133" y="0" type="line"/>
      <point x="173" y="183" type="line"/>
      <point x="334" y="183" type="line"/>
      <point x="374" y="0" type="line"/>
      <point x="505" y="0" type="line"/>
      <point x="333" y="698" type="line"/>
    </contour>
    <contour>
      <point x="309" y="300" type="line"/>
      <point x="200" y="300" type="line"/>
      <point x="254" y="515" type="line"/>
    </contour>
    <contour>
      <point x="174" y="817" type="curve" smooth="yes"/>
      <point x="232" y="741" type="line"/>
      <point x="277" y="741" type="line"/>
      <point x="246" y="858" type="line" smooth="yes"/>
      <point x="238" y="887"/>
      <point x="204" y="904"/>
      <point x="182" y="889" type="curve"/>
      <point x="153" y="875"/>
      <point x="157" y="837"/>
    </contour>
  </outline>
</glyph>
<glyph name="Atilde" format="1">
  <advance width="513"/>
  <unicode hex="00C3"/>
  <outline>
    <contour>
      <point x="178" y="698" type="line"/>
      <point x="9" y="0" type="line"/>
      <point x="133" y="0" type="line"/>
      <point x="173" y="183" type="line"/>
      <point x="334" y="183" type="line"/>
      <point x="374" y="0" type="line"/>
      <point x="505" y="0" type="line"/>
      <point x="333" y="698" type="line"/>
    </contour>
    <contour>
      <point x="309" y="300" type="line"/>
      <point x="200" y="300" type="line"/>
      <point x="254" y="515" type="line"/>
    </contour>
    <contour>
      <point x="388" y="773" type="curve"/>
      <point x="362" y="833" type="line"/>
      <point x="346" y="821"/>
      <point x="330" y="814"/>
      <point x="312" y="814" type="curve" smooth="yes"/>
      <point x="276" y="814"/>
      <point x="244" y="833"/>
      <point x="210" y="833" type="curve"/>
      <point x="159" y="829"/>
      <point x="139" y="810"/>
      <point x="127" y="799" type="curve"/>
      <point x="154" y="740" type="line"/>
      <point x="163" y="747"/>
      <point x="175" y="758"/>
      <point x="200" y="760" type="curve"/>
      <point x="241" y="760"/>
      <point x="274" y="743"/>
      <point x="310" y="743" type="curve" smooth="yes"/>
      <point x="337" y="744"/>
      <point x="364" y="754"/>
    </contour>
  </outline>
</glyph>
<glyph name="Adieresis" format="1">
  <advance width="513"/>
  <unicode hex="00C4"/>
  <outline>
    <contour>
      <point x="178" y="698" type="line"/>
      <point x="9" y="0" type="line"/>
      <point x="133" y="0" type="line"/>
      <point x="173" y="183" type="line"/>
      <point x="334" y="183" type="line"/>
      <point x="374" y="0" type="line"/>
      <point x="505" y="0" type="line"/>
      <point x="333" y="698" type="line"/>
    </contour>
    <contour>
      <point x="309" y="300" type="line"/>
      <point x="200" y="300" type="line"/>
      <point x="254" y="515" type="line"/>
    </contour>
    <contour>
      <point x="335" y="861" type="curve" smooth="yes"/>
      <point x="302" y="861"/>
      <point x="277" y="835"/>
      <point x="277" y="802" type="curve" smooth="yes"/>
      <point x="277" y="769"/>
      <point x="302" y="741"/>
      <point x="335" y="741" type="curve" smooth="yes"/>
      <point x="369" y="741"/>
      <point x="396" y="769"/>
      <point x="396" y="802" type="curve" smooth="yes"/>
      <point x="396" y="835"/>
      <point x="369" y="861"/>
    </contour>
    <contour>
      <point x="238" y="802" type="curve" smooth="yes"/>
      <point x="238" y="835"/>
      <point x="211" y="861"/>
      <point x="178" y="861" type="curve" smooth="yes"/>
      <point x="145" y="861"/>
      <point x="118" y="835"/>
      <point x="118" y="802" type="curve" smooth="yes"/>
      <point x="118" y="769"/>
      <point x="145" y="741"/>
      <point x="178" y="741" type="curve" smooth="yes"/>
      <point x="211" y="741"/>
      <point x="238" y="769"/>
    </contour>
  </outline>
</glyph>
<glyph name="Aring" format="1">
  <advance width="513"/>
  <unicode hex="00C5"/>
  <outline>
    <contour>
      <point x="178" y="698" type="line"/>
      <point x="9" y="0" type="line"/>
      <point x="133" y="0" type="line"/>
      <point x="173" y="183" type="line"/>
      <point x="334" y="183" type="line"/>
      <point x="374" y="0" type="line"/>
      <point x="505" y="0" type="line"/>
      <point x="333" y="698" type="line"/>
    </contour>
    <contour>
      <point x="309" y="300" type="line"/>
      <point x="200" y="300" type="line"/>
      <point x="254" y="515" type="line"/>
    </contour>
    <contour>
      <point x="256" y="661" type="curve" smooth="yes"/>
      <point x="319" y="661"/>
      <point x="370" y="712"/>
      <point x="370" y="774" type="curve" smooth="yes"/>
      <point x="370" y="838"/>
      <point x="319" y="889"/>
      <point x="256" y="889" type="curve" smooth="yes"/>
      <point x="194" y="889"/>
      <point x="142" y="838"/>
      <point x="142" y="774" type="curve" smooth="yes"/>
      <point x="142" y="712"/>
      <point x="194" y="661"/>
    </contour>
    <contour>
      <point x="288" y="774" type="curve" smooth="yes"/>
      <point x="288" y="758"/>
      <point x="273" y="744"/>
      <point x="256" y="744" type="curve" smooth="yes"/>
      <point x="239" y="744"/>
      <point x="226" y="758"/>
      <point x="226" y="774" type="curve" smooth="yes"/>
      <point x="226" y="792"/>
      <point x="239" y="806"/>
      <point x="256" y="806" type="curve" smooth="yes"/>
      <point x="273" y="806"/>
      <point x="288" y="792"/>
    </contour>
  </outline>
</glyph>
<glyph name="AE" format="1">
  <advance width="723"/>
  <unicode hex="00C6"/>
  <outline>
    <contour>
      <point x="703" y="100" type="line"/>
      <point x="479" y="100" type="line"/>
      <point x="479" y="306" type="line"/>
      <point x="597" y="306" type="line"/>
      <point x="631" y="413" type="line"/>
      <point x="479" y="413" type="line"/>
      <point x="479" y="588" type="line"/>
      <point x="705" y="588" type="line"/>
      <point x="705" y="698" type="line"/>
      <point x="276" y="698" type="line"/>
      <point x="5" y="0" type="line"/>
      <point x="134" y="0" type="line"/>
      <point x="209" y="193" type="line"/>
      <point x="371" y="193" type="line"/>
      <point x="371" y="0" type="line"/>
      <point x="703" y="0" type="line"/>
    </contour>
    <contour>
      <point x="370" y="588" type="line"/>
      <point x="370" y="300" type="line"/>
      <point x="250" y="300" type="line"/>
      <point x="358" y="588" type="line"/>
    </contour>
  </outline>
</glyph>
<glyph name="Ccedilla" format="1">
  <advance width="392"/>
  <unicode hex="00C7"/>
  <outline>
    <contour>
      <point x="324" y="582" type="curve"/>
      <point x="354" y="675" type="line"/>
      <point x="307" y="698"/>
      <point x="258" y="710"/>
      <point x="210" y="710" type="curve" smooth="yes"/>
      <point x="161" y="710"/>
      <point x="114" y="697"/>
      <point x="79" y="664" type="curve" smooth="yes"/>
      <point x="43" y="632"/>
      <point x="18" y="581"/>
      <point x="18" y="503" type="curve" smooth="yes"/>
      <point x="18" y="183" type="line" smooth="yes"/>
      <point x="18" y="113"/>
      <point x="41" y="64"/>
      <point x="77" y="32" type="curve" smooth="yes"/>
      <point x="112" y="2"/>
      <point x="161" y="-12"/>
      <point x="215" y="-12" type="curve" smooth="yes"/>
      <point x="266" y="-11"/>
      <point x="321" y="1"/>
      <point x="378" y="23" type="curve"/>
      <point x="362" y="127" type="line"/>
      <point x="350" y="127"/>
      <point x="282" y="100"/>
      <point x="221" y="100" type="curve" smooth="yes"/>
      <point x="193" y="100"/>
      <point x="168" y="105"/>
      <point x="152" y="120" type="curve" smooth="yes"/>
      <point x="136" y="133"/>
      <point x="128" y="154"/>
      <point x="128" y="185" type="curve" smooth="yes"/>
      <point x="128" y="512" type="line" smooth="yes"/>
      <point x="128" y="542"/>
      <point x="135" y="563"/>
      <point x="153" y="577" type="curve" smooth="yes"/>
      <point x="169" y="592"/>
      <point x="195" y="599"/>
      <point x="230" y="599" type="curve" smooth="yes"/>
      <point x="260" y="599"/>
      <point x="297" y="592"/>
    </contour>
    <contour>
      <point x="246" y="-42" type="curve" smooth="yes"/>
      <point x="243" y="-42"/>
      <point x="238" y="-43"/>
      <point x="220" y="-44" type="curve"/>
      <point x="244" y="-2" type="line"/>
      <point x="178" y="-2" type="line"/>
      <point x="132" y="-77" type="line"/>
      <point x="150" y="-116" type="line"/>
      <point x="190" y="-113"/>
      <point x="220" y="-109"/>
      <point x="240" y="-109" type="curve" smooth="yes"/>
      <point x="265" y="-109"/>
      <point x="275" y="-122"/>
      <point x="275" y="-140" type="curve" smooth="yes"/>
      <point x="275" y="-157"/>
      <point x="264" y="-171"/>
      <point x="235" y="-171" type="curve" smooth="yes"/>
      <point x="193" y="-171"/>
      <point x="136" y="-161"/>
      <point x="135" y="-160" type="curve"/>
      <point x="130" y="-189"/>
      <point x="129" y="-198"/>
      <point x="123" y="-226" type="curve"/>
      <point x="124" y="-226"/>
      <point x="177" y="-237"/>
      <point x="224" y="-237" type="curve" smooth="yes"/>
      <point x="307" y="-237"/>
      <point x="342" y="-195"/>
      <point x="342" y="-135" type="curve" smooth="yes"/>
      <point x="342" y="-88"/>
      <point x="308" y="-42"/>
    </contour>
  </outline>
</glyph>
<glyph name="Egrave" format="1">
  <advance width="374"/>
  <unicode hex="00C8"/>
  <outline>
    <contour>
      <point x="354" y="100" type="line"/>
      <point x="132" y="100" type="line"/>
      <point x="132" y="308" type="line"/>
      <point x="238" y="308" type="line"/>
      <point x="269" y="413" type="line"/>
      <point x="132" y="413" type="line"/>
      <point x="132" y="588" type="line"/>
      <point x="356" y="588" type="line"/>
      <point x="356" y="698" type="line"/>
      <point x="22" y="698" type="line"/>
      <point x="22" y="0" type="line"/>
      <point x="354" y="0" type="line"/>
    </contour>
    <contour>
      <point x="113" y="820" type="curve"/>
      <point x="172" y="744" type="line"/>
      <point x="217" y="744" type="line"/>
      <point x="186" y="860" type="line" smooth="yes"/>
      <point x="178" y="888"/>
      <point x="146" y="905"/>
      <point x="121" y="891" type="curve" smooth="yes"/>
      <point x="92" y="876"/>
      <point x="96" y="839"/>
    </contour>
  </outline>
</glyph>
<glyph name="Eacute" format="1">
  <advance width="374"/>
  <unicode hex="00C9"/>
  <outline>
    <contour>
      <point x="354" y="100" type="line"/>
      <point x="132" y="100" type="line"/>
      <point x="132" y="308" type="line"/>
      <point x="238" y="308" type="line"/>
      <point x="269" y="413" type="line"/>
      <point x="132" y="413" type="line"/>
      <point x="132" y="588" type="line"/>
      <point x="356" y="588" type="line"/>
      <point x="356" y="698" type="line"/>
      <point x="22" y="698" type="line"/>
      <point x="22" y="0" type="line"/>
      <point x="354" y="0" type="line"/>
    </contour>
    <contour>
      <point x="196" y="853" type="curve"/>
      <point x="168" y="744" type="line"/>
      <point x="209" y="744" type="line"/>
      <point x="264" y="815" type="line" smooth="yes"/>
      <point x="283" y="839"/>
      <point x="279" y="865"/>
      <point x="257" y="881" type="curve"/>
      <point x="230" y="889"/>
      <point x="207" y="881"/>
    </contour>
  </outline>
</glyph>
<glyph name="Ecircumflex" format="1">
  <advance width="374"/>
  <unicode hex="00CA"/>
  <outline>
    <contour>
      <point x="354" y="100" type="line"/>
      <point x="132" y="100" type="line"/>
      <point x="132" y="308" type="line"/>
      <point x="238" y="308" type="line"/>
      <point x="269" y="413" type="line"/>
      <point x="132" y="413" type="line"/>
      <point x="132" y="588" type="line"/>
      <point x="356" y="588" type="line"/>
      <point x="356" y="698" type="line"/>
      <point x="22" y="698" type="line"/>
      <point x="22" y="0" type="line"/>
      <point x="354" y="0" type="line"/>
    </contour>
    <contour>
      <point x="191" y="827" type="line"/>
      <point x="266" y="745" type="line"/>
      <point x="319" y="798" type="line"/>
      <point x="191" y="923" type="line"/>
      <point x="59" y="795" type="line"/>
      <point x="111" y="744" type="line"/>
    </contour>
  </outline>
</glyph>
<glyph name="Edieresis" format="1">
  <advance width="374"/>
  <unicode hex="00CB"/>
  <outline>
    <contour>
      <point x="354" y="100" type="line"/>
      <point x="132" y="100" type="line"/>
      <point x="132" y="308" type="line"/>
      <point x="238" y="308" type="line"/>
      <point x="269" y="413" type="line"/>
      <point x="132" y="413" type="line"/>
      <point x="132" y="588" type="line"/>
      <point x="356" y="588" type="line"/>
      <point x="356" y="698" type="line"/>
      <point x="22" y="698" type="line"/>
      <point x="22" y="0" type="line"/>
      <point x="354" y="0" type="line"/>
    </contour>
    <contour>
      <point x="328" y="803" type="curve" smooth="yes"/>
      <point x="328" y="836"/>
      <point x="301" y="862"/>
      <point x="268" y="862" type="curve" smooth="yes"/>
      <point x="235" y="862"/>
      <point x="209" y="836"/>
      <point x="209" y="803" type="curve" smooth="yes"/>
      <point x="209" y="770"/>
      <point x="235" y="744"/>
      <point x="268" y="744" type="curve" smooth="yes"/>
      <point x="301" y="744"/>
      <point x="328" y="770"/>
    </contour>
    <contour>
      <point x="170" y="803" type="curve" smooth="yes"/>
      <point x="170" y="836"/>
      <point x="143" y="862"/>
      <point x="110" y="862" type="curve" smooth="yes"/>
      <point x="77" y="862"/>
      <point x="51" y="836"/>
      <point x="51" y="803" type="curve" smooth="yes"/>
      <point x="51" y="770"/>
      <point x="77" y="744"/>
      <point x="110" y="744" type="curve" smooth="yes"/>
      <point x="143" y="744"/>
      <point x="170" y="770"/>
    </contour>
  </outline>
</glyph>
<glyph name="Igrave" format="1">
  <advance width="222"/>
  <unicode hex="00CC"/>
  <outline>
    <contour>
      <point x="67" y="0" type="line"/>
      <point x="177" y="0" type="line"/>
      <point x="177" y="698" type="line"/>
      <point x="5" y="698" type="line"/>
      <point x="5" y="593" type="line"/>
      <point x="67" y="591" type="line"/>
    </contour>
    <contour>
      <point x="125" y="858" type="curve" smooth="yes"/>
      <point x="95" y="741" type="line"/>
      <point x="139" y="741" type="line"/>
      <point x="198" y="817" type="line" smooth="yes"/>
      <point x="216" y="839"/>
      <point x="218" y="873"/>
      <point x="190" y="889" type="curve"/>
      <point x="163" y="901"/>
      <point x="133" y="886"/>
    </contour>
  </outline>
</glyph>
<glyph name="Icircumflex" format="1">
  <advance width="252"/>
  <unicode hex="00CE"/>
  <outline>
    <contour>
      <point x="75" y="0" type="line"/>
      <point x="185" y="0" type="line"/>
      <point x="185" y="698" type="line"/>
      <point x="12" y="698" type="line"/>
      <point x="12" y="593" type="line"/>
      <point x="75" y="591" type="line"/>
    </contour>
    <contour>
      <point x="133" y="822" type="line"/>
      <point x="208" y="740" type="line"/>
      <point x="261" y="793" type="line"/>
      <point x="133" y="919" type="line"/>
      <point x="1" y="791" type="line"/>
      <point x="53" y="740" type="line"/>
    </contour>
  </outline>
</glyph>
<glyph name="Idieresis" format="1">
  <advance width="262"/>
  <unicode hex="00CF"/>
  <outline>
    <contour>
      <point x="98" y="0" type="line"/>
      <point x="208" y="0" type="line"/>
      <point x="208" y="698" type="line"/>
      <point x="35" y="698" type="line"/>
      <point x="35" y="593" type="line"/>
      <point x="98" y="591" type="line"/>
    </contour>
    <contour>
      <point x="205" y="861" type="curve" smooth="yes"/>
      <point x="172" y="861"/>
      <point x="144" y="835"/>
      <point x="144" y="802" type="curve" smooth="yes"/>
      <point x="144" y="769"/>
      <point x="172" y="741"/>
      <point x="205" y="741" type="curve" smooth="yes"/>
      <point x="238" y="741"/>
      <point x="263" y="769"/>
      <point x="263" y="802" type="curve" smooth="yes"/>
      <point x="263" y="835"/>
      <point x="238" y="861"/>
    </contour>
    <contour>
      <point x="45" y="861" type="curve" smooth="yes"/>
      <point x="12" y="861"/>
      <point x="-13" y="835"/>
      <point x="-13" y="802" type="curve" smooth="yes"/>
      <point x="-13" y="769"/>
      <point x="12" y="741"/>
      <point x="45" y="741" type="curve" smooth="yes"/>
      <point x="78" y="741"/>
      <point x="106" y="769"/>
      <point x="106" y="802" type="curve" smooth="yes"/>
      <point x="106" y="835"/>
      <point x="78" y="861"/>
    </contour>
  </outline>
</glyph>
<glyph name="Eth" format="1">
  <advance width="459"/>
  <unicode hex="00D0"/>
  <outline>
    <contour>
      <point x="209" y="700" type="curve" smooth="yes"/>
      <point x="22" y="700" type="line"/>
      <point x="22" y="0" type="line"/>
      <point x="229" y="0" type="line" smooth="yes"/>
      <point x="370" y="0"/>
      <point x="441" y="74"/>
      <point x="441" y="206" type="curve" smooth="yes"/>
      <point x="441" y="473" type="line" smooth="yes"/>
      <point x="441" y="609"/>
      <point x="360" y="700"/>
    </contour>
    <contour>
      <point x="213" y="101" type="curve" smooth="yes"/>
      <point x="132" y="101" type="line"/>
      <point x="132" y="310" type="line"/>
      <point x="233" y="310" type="line"/>
      <point x="261" y="413" type="line"/>
      <point x="132" y="413" type="line"/>
      <point x="132" y="588" type="line"/>
      <point x="219" y="588" type="line" smooth="yes"/>
      <point x="295" y="588"/>
      <point x="331" y="555"/>
      <point x="331" y="483" type="curve" smooth="yes"/>
      <point x="331" y="196" type="line" smooth="yes"/>
      <point x="331" y="156"/>
      <point x="326" y="101"/>
    </contour>
  </outline>
</glyph>
<glyph name="Ntilde" format="1">
  <advance width="536"/>
  <unicode hex="00D1"/>
  <outline>
    <contour>
      <point x="403" y="230" type="line"/>
      <point x="132" y="698" type="line"/>
      <point x="22" y="698" type="line"/>
      <point x="22" y="0" type="line"/>
      <point x="132" y="0" type="line"/>
      <point x="132" y="472" type="line"/>
      <point x="403" y="0" type="line"/>
      <point x="514" y="0" type="line"/>
      <point x="514" y="698" type="line"/>
      <point x="403" y="698" type="line"/>
    </contour>
    <contour>
      <point x="399" y="781" type="curve"/>
      <point x="373" y="840" type="line"/>
      <point x="360" y="829"/>
      <point x="342" y="823"/>
      <point x="327" y="822" type="curve"/>
      <point x="290" y="822"/>
      <point x="258" y="840"/>
      <point x="226" y="840" type="curve" smooth="yes"/>
      <point x="188" y="840"/>
      <point x="162" y="827"/>
      <point x="137" y="806" type="curve"/>
      <point x="165" y="749" type="line"/>
      <point x="174" y="755"/>
      <point x="186" y="766"/>
      <point x="211" y="768" type="curve"/>
      <point x="248" y="768"/>
      <point x="279" y="751"/>
      <point x="313" y="751" type="curve" smooth="yes"/>
      <point x="349" y="751"/>
      <point x="377" y="763"/>
    </contour>
  </outline>
</glyph>
<glyph name="Ograve" format="1">
  <advance width="457"/>
  <unicode hex="00D2"/>
  <outline>
    <contour>
      <point x="18" y="506" type="curve" smooth="yes"/>
      <point x="18" y="185" type="line" smooth="yes"/>
      <point x="18" y="56"/>
      <point x="110" y="-11"/>
      <point x="229" y="-11" type="curve" smooth="yes"/>
      <point x="354" y="-11"/>
      <point x="438" y="63"/>
      <point x="438" y="185" type="curve" smooth="yes"/>
      <point x="438" y="505" type="line" smooth="yes"/>
      <point x="438" y="636"/>
      <point x="362" y="715"/>
      <point x="230" y="715" type="curve" smooth="yes"/>
      <point x="98" y="715"/>
      <point x="18" y="642"/>
    </contour>
    <contour>
      <point x="128" y="204" type="curve" smooth="yes"/>
      <point x="128" y="470" type="line" smooth="yes"/>
      <point x="128" y="557"/>
      <point x="158" y="598"/>
      <point x="228" y="598" type="curve" smooth="yes"/>
      <point x="305" y="598"/>
      <point x="328" y="554"/>
      <point x="328" y="469" type="curve" smooth="yes"/>
      <point x="328" y="206" type="line" smooth="yes"/>
      <point x="328" y="143"/>
      <point x="291" y="101"/>
      <point x="228" y="101" type="curve" smooth="yes"/>
      <point x="161" y="101"/>
      <point x="128" y="140"/>
    </contour>
    <contour>
      <point x="155" y="828" type="curve" smooth="yes"/>
      <point x="215" y="752" type="line"/>
      <point x="258" y="752" type="line"/>
      <point x="228" y="869" type="line"/>
      <point x="217" y="897"/>
      <point x="189" y="913"/>
      <point x="162" y="900" type="curve"/>
      <point x="133" y="883"/>
      <point x="139" y="848"/>
    </contour>
  </outline>
</glyph>
<glyph name="Otilde" format="1">
  <advance width="457"/>
  <unicode hex="00D5"/>
  <outline>
    <contour>
      <point x="18" y="506" type="curve" smooth="yes"/>
      <point x="18" y="185" type="line" smooth="yes"/>
      <point x="18" y="56"/>
      <point x="110" y="-11"/>
      <point x="229" y="-11" type="curve" smooth="yes"/>
      <point x="354" y="-11"/>
      <point x="438" y="63"/>
      <point x="438" y="185" type="curve" smooth="yes"/>
      <point x="438" y="505" type="line" smooth="yes"/>
      <point x="438" y="636"/>
      <point x="362" y="715"/>
      <point x="230" y="715" type="curve" smooth="yes"/>
      <point x="98" y="715"/>
      <point x="18" y="642"/>
    </contour>
    <contour>
      <point x="128" y="204" type="curve" smooth="yes"/>
      <point x="128" y="470" type="line" smooth="yes"/>
      <point x="128" y="557"/>
      <point x="158" y="598"/>
      <point x="228" y="598" type="curve" smooth="yes"/>
      <point x="305" y="598"/>
      <point x="328" y="554"/>
      <point x="328" y="469" type="curve" smooth="yes"/>
      <point x="328" y="206" type="line" smooth="yes"/>
      <point x="328" y="143"/>
      <point x="291" y="101"/>
      <point x="228" y="101" type="curve" smooth="yes"/>
      <point x="161" y="101"/>
      <point x="128" y="140"/>
    </contour>
    <contour>
      <point x="359" y="773" type="curve"/>
      <point x="333" y="833" type="line"/>
      <point x="320" y="822"/>
      <point x="302" y="815"/>
      <point x="287" y="814" type="curve"/>
      <point x="250" y="814"/>
      <point x="219" y="833"/>
      <point x="186" y="833" type="curve" smooth="yes"/>
      <point x="148" y="833"/>
      <point x="122" y="818"/>
      <point x="97" y="799" type="curve"/>
      <point x="125" y="740" type="line"/>
      <point x="134" y="747"/>
      <point x="146" y="758"/>
      <point x="172" y="760" type="curve"/>
      <point x="208" y="760"/>
      <point x="241" y="741"/>
      <point x="276" y="741" type="curve" smooth="yes"/>
      <point x="309" y="741"/>
      <point x="338" y="756"/>
    </contour>
  </outline>
</glyph>
<glyph name="Odieresis" format="1">
  <advance width="457"/>
  <unicode hex="00D6"/>
  <outline>
    <contour>
      <point x="18" y="506" type="curve" smooth="yes"/>
      <point x="18" y="185" type="line" smooth="yes"/>
      <point x="18" y="56"/>
      <point x="110" y="-11"/>
      <point x="229" y="-11" type="curve" smooth="yes"/>
      <point x="354" y="-11"/>
      <point x="438" y="63"/>
      <point x="438" y="185" type="curve" smooth="yes"/>
      <point x="438" y="505" type="line" smooth="yes"/>
      <point x="438" y="636"/>
      <point x="362" y="715"/>
      <point x="230" y="715" type="curve" smooth="yes"/>
      <point x="98" y="715"/>
      <point x="18" y="642"/>
    </contour>
    <contour>
      <point x="128" y="204" type="curve" smooth="yes"/>
      <point x="128" y="470" type="line" smooth="yes"/>
      <point x="128" y="557"/>
      <point x="158" y="598"/>
      <point x="228" y="598" type="curve" smooth="yes"/>
      <point x="305" y="598"/>
      <point x="328" y="554"/>
      <point x="328" y="469" type="curve" smooth="yes"/>
      <point x="328" y="206" type="line" smooth="yes"/>
      <point x="328" y="143"/>
      <point x="291" y="101"/>
      <point x="228" y="101" type="curve" smooth="yes"/>
      <point x="161" y="101"/>
      <point x="128" y="140"/>
    </contour>
    <contour>
      <point x="150" y="871" type="curve" smooth="yes"/>
      <point x="117" y="871"/>
      <point x="89" y="844"/>
      <point x="89" y="811" type="curve" smooth="yes"/>
      <point x="89" y="778"/>
      <point x="117" y="751"/>
      <point x="150" y="751" type="curve" smooth="yes"/>
      <point x="183" y="751"/>
      <point x="209" y="778"/>
      <point x="209" y="811" type="curve" smooth="yes"/>
      <point x="209" y="844"/>
      <point x="183" y="871"/>
    </contour>
    <contour>
      <point x="307" y="871" type="curve" smooth="yes"/>
      <point x="274" y="871"/>
      <point x="248" y="844"/>
      <point x="248" y="811" type="curve" smooth="yes"/>
      <point x="248" y="778"/>
      <point x="274" y="751"/>
      <point x="307" y="751" type="curve" smooth="yes"/>
      <point x="340" y="751"/>
      <point x="367" y="778"/>
      <point x="367" y="811" type="curve" smooth="yes"/>
      <point x="367" y="844"/>
      <point x="340" y="871"/>
    </contour>
  </outline>
</glyph>
<glyph name="multiply" format="1">
  <advance width="352"/>
  <unicode hex="00D7"/>
  <outline>
    <contour>
      <point x="18" y="447" type="line"/>
      <point x="116" y="332" type="line"/>
      <point x="21" y="218" type="line"/>
      <point x="89" y="156" type="line"/>
      <point x="175" y="260" type="line"/>
      <point x="262" y="157" type="line"/>
      <point x="332" y="218" type="line"/>
      <point x="235" y="332" type="line"/>
      <point x="333" y="450" type="line"/>
      <point x="261" y="508" type="line"/>
      <point x="175" y="404" type="line"/>
      <point x="89" y="507" type="line"/>
    </contour>
  </outline>
</glyph>
<glyph name="Oslash" format="1">
  <advance width="471"/>
  <unicode hex="00D8"/>
  <outline>
    <contour>
      <point x="21" y="506" type="curve" smooth="yes"/>
      <point x="21" y="185" type="line" smooth="yes"/>
      <point x="21" y="56"/>
      <point x="113" y="-11"/>
      <point x="232" y="-11" type="curve" smooth="yes"/>
      <point x="356" y="-11"/>
      <point x="441" y="63"/>
      <point x="441" y="185" type="curve" smooth="yes"/>
      <point x="441" y="505" type="line" smooth="yes"/>
      <point x="441" y="636"/>
      <point x="365" y="715"/>
      <point x="233" y="715" type="curve" smooth="yes"/>
      <point x="101" y="715"/>
      <point x="21" y="642"/>
    </contour>
    <contour>
      <point x="131" y="204" type="curve" smooth="yes"/>
      <point x="131" y="470" type="line" smooth="yes"/>
      <point x="131" y="557"/>
      <point x="161" y="598"/>
      <point x="231" y="598" type="curve" smooth="yes"/>
      <point x="308" y="598"/>
      <point x="331" y="554"/>
      <point x="331" y="469" type="curve" smooth="yes"/>
      <point x="331" y="206" type="line" smooth="yes"/>
      <point x="331" y="143"/>
      <point x="294" y="101"/>
      <point x="231" y="101" type="curve" smooth="yes"/>
      <point x="163" y="101"/>
      <point x="131" y="140"/>
    </contour>
    <contour>
      <point x="460" y="816" type="line"/>
      <point x="340" y="816" type="line"/>
      <point x="16" y="-114" type="line"/>
      <point x="133" y="-114" type="line"/>
    </contour>
  </outline>
</glyph>
<glyph name="Ugrave" format="1">
  <advance width="459"/>
  <unicode hex="00D9"/>
  <outline>
    <contour>
      <point x="439" y="185" type="curve" smooth="yes"/>
      <point x="439" y="698" type="line"/>
      <point x="329" y="698" type="line"/>
      <point x="329" y="206" type="line" smooth="yes"/>
      <point x="329" y="172"/>
      <point x="318" y="144"/>
      <point x="299" y="127" type="curve" smooth="yes"/>
      <point x="282" y="110"/>
      <point x="258" y="101"/>
      <point x="229" y="101" type="curve" smooth="yes"/>
      <point x="199" y="101"/>
      <point x="176" y="108"/>
      <point x="161" y="122" type="curve" smooth="yes"/>
      <point x="140" y="140"/>
      <point x="129" y="168"/>
      <point x="129" y="204" type="curve" smooth="yes"/>
      <point x="129" y="698" type="line"/>
      <point x="19" y="698" type="line"/>
      <point x="19" y="185" type="line" smooth="yes"/>
      <point x="19" y="118"/>
      <point x="41" y="68"/>
      <point x="81" y="36" type="curve" smooth="yes"/>
      <point x="123" y="5"/>
      <point x="173" y="-11"/>
      <point x="230" y="-11" type="curve" smooth="yes"/>
      <point x="287" y="-11"/>
      <point x="337" y="5"/>
      <point x="377" y="36" type="curve" smooth="yes"/>
      <point x="418" y="68"/>
      <point x="439" y="118"/>
    </contour>
    <contour>
      <point x="156" y="820" type="curve" smooth="yes"/>
      <point x="216" y="744" type="line"/>
      <point x="260" y="744" type="line"/>
      <point x="229" y="860" type="line" smooth="yes"/>
      <point x="221" y="888"/>
      <point x="188" y="905"/>
      <point x="163" y="891" type="curve" smooth="yes"/>
      <point x="135" y="875"/>
      <point x="140" y="839"/>
    </contour>
  </outline>
</glyph>
<glyph name="Udieresis" format="1">
  <advance width="459"/>
  <unicode hex="00DC"/>
  <outline>
    <contour>
      <point x="439" y="185" type="curve" smooth="yes"/>
      <point x="439" y="698" type="line"/>
      <point x="329" y="698" type="line"/>
      <point x="329" y="206" type="line" smooth="yes"/>
      <point x="329" y="172"/>
      <point x="318" y="144"/>
      <point x="299" y="127" type="curve" smooth="yes"/>
      <point x="282" y="110"/>
      <point x="258" y="101"/>
      <point x="229" y="101" type="curve" smooth="yes"/>
      <point x="199" y="101"/>
      <point x="176" y="108"/>
      <point x="161" y="122" type="curve" smooth="yes"/>
      <point x="140" y="140"/>
      <point x="129" y="168"/>
      <point x="129" y="204" type="curve" smooth="yes"/>
      <point x="129" y="698" type="line"/>
      <point x="19" y="698" type="line"/>
      <point x="19" y="185" type="line" smooth="yes"/>
      <point x="19" y="118"/>
      <point x="41" y="68"/>
      <point x="81" y="36" type="curve" smooth="yes"/>
      <point x="123" y="5"/>
      <point x="173" y="-11"/>
      <point x="230" y="-11" type="curve" smooth="yes"/>
      <point x="287" y="-11"/>
      <point x="337" y="5"/>
      <point x="377" y="36" type="curve" smooth="yes"/>
      <point x="418" y="68"/>
      <point x="439" y="118"/>
    </contour>
    <contour>
      <point x="369" y="804" type="curve" smooth="yes"/>
      <point x="369" y="837"/>
      <point x="341" y="864"/>
      <point x="308" y="864" type="curve" smooth="yes"/>
      <point x="275" y="864"/>
      <point x="249" y="837"/>
      <point x="249" y="804" type="curve" smooth="yes"/>
      <point x="249" y="771"/>
      <point x="275" y="745"/>
      <point x="308" y="745" type="curve" smooth="yes"/>
      <point x="341" y="745"/>
      <point x="369" y="771"/>
    </contour>
    <contour>
      <point x="210" y="804" type="curve" smooth="yes"/>
      <point x="210" y="837"/>
      <point x="184" y="864"/>
      <point x="151" y="864" type="curve" smooth="yes"/>
      <point x="118" y="864"/>
      <point x="90" y="837"/>
      <point x="90" y="804" type="curve" smooth="yes"/>
      <point x="90" y="771"/>
      <point x="118" y="745"/>
      <point x="151" y="745" type="curve" smooth="yes"/>
      <point x="184" y="745"/>
      <point x="210" y="771"/>
    </contour>
  </outline>
</glyph>
<glyph name="Yacute" format="1">
  <advance width="479"/>
  <unicode hex="00DD"/>
  <outline>
    <contour>
      <point x="458" y="156" type="curve" smooth="yes"/>
      <point x="458" y="698" type="line"/>
      <point x="348" y="698" type="line"/>
      <point x="348" y="405" type="line" smooth="yes"/>
      <point x="348" y="375"/>
      <point x="335" y="346"/>
      <point x="315" y="328" type="curve" smooth="yes"/>
      <point x="296" y="310"/>
      <point x="271" y="300"/>
      <point x="244" y="300" type="curve" smooth="yes"/>
      <point x="207" y="300"/>
      <point x="177" y="309"/>
      <point x="158" y="327" type="curve" smooth="yes"/>
      <point x="135" y="348"/>
      <point x="124" y="380"/>
      <point x="124" y="422" type="curve" smooth="yes"/>
      <point x="124" y="698" type="line"/>
      <point x="14" y="698" type="line"/>
      <point x="14" y="413" type="line" smooth="yes"/>
      <point x="14" y="345"/>
      <point x="35" y="293"/>
      <point x="77" y="254" type="curve" smooth="yes"/>
      <point x="123" y="210"/>
      <point x="178" y="198"/>
      <point x="237" y="198" type="curve" smooth="yes"/>
      <point x="302" y="201"/>
      <point x="348" y="237"/>
      <point x="348" y="237" type="curve"/>
      <point x="348" y="164" type="line" smooth="yes"/>
      <point x="348" y="94"/>
      <point x="317" y="70"/>
      <point x="273" y="65" type="curve"/>
      <point x="308" y="-19" type="line"/>
      <point x="417" y="-8"/>
      <point x="458" y="51"/>
    </contour>
    <contour>
      <point x="239" y="859" type="curve"/>
      <point x="209" y="743" type="line"/>
      <point x="253" y="743" type="line"/>
      <point x="312" y="817" type="line" smooth="yes"/>
      <point x="331" y="839"/>
      <point x="331" y="873"/>
      <point x="305" y="889" type="curve" smooth="yes"/>
      <point x="279" y="904"/>
      <point x="248" y="884"/>
    </contour>
  </outline>
</glyph>
<glyph name="Thorn" format="1">
  <advance width="429"/>
  <unicode hex="00DE"/>
  <outline>
    <contour>
      <point x="415" y="290" type="curve" smooth="yes"/>
      <point x="415" y="435" type="line" smooth="yes"/>
      <point x="413" y="479"/>
      <point x="406" y="510"/>
      <point x="387" y="543" type="curve" smooth="yes"/>
      <point x="352" y="601"/>
      <point x="291" y="626"/>
      <point x="230" y="626" type="curve" smooth="yes"/>
      <point x="197" y="626"/>
      <point x="164" y="619"/>
      <point x="132" y="608" type="curve"/>
      <point x="132" y="698" type="line"/>
      <point x="22" y="698" type="line"/>
      <point x="22" y="0" type="line"/>
      <point x="132" y="0" type="line"/>
      <point x="132" y="113" type="line"/>
      <point x="190" y="102"/>
      <point x="250" y="100"/>
      <point x="302" y="118" type="curve" smooth="yes"/>
      <point x="372" y="140"/>
      <point x="415" y="193"/>
    </contour>
    <contour>
      <point x="218" y="532" type="curve" smooth="yes"/>
      <point x="246" y="532"/>
      <point x="278" y="520"/>
      <point x="293" y="497" type="curve" smooth="yes"/>
      <point x="301" y="484"/>
      <point x="306" y="468"/>
      <point x="306" y="448" type="curve" smooth="yes"/>
      <point x="307" y="290" type="line" smooth="yes"/>
      <point x="307" y="249"/>
      <point x="294" y="220"/>
      <point x="254" y="208" type="curve" smooth="yes"/>
      <point x="219" y="196"/>
      <point x="169" y="197"/>
      <point x="132" y="206" type="curve"/>
      <point x="132" y="514" type="line"/>
      <point x="157" y="524"/>
      <point x="191" y="532"/>
    </contour>
  </outline>
</glyph>
<glyph name="germandbls" format="1">
  <advance width="480"/>
  <unicode hex="00DF"/>
  <outline>
    <contour>
      <point x="131" y="0" type="curve"/>
      <point x="131" y="505" type="line" smooth="yes"/>
      <point x="131" y="565"/>
      <point x="151" y="595"/>
      <point x="191" y="595" type="curve" smooth="yes"/>
      <point x="220" y="595"/>
      <point x="234" y="576"/>
      <point x="234" y="555" type="curve" smooth="yes"/>
      <point x="234" y="532"/>
      <point x="216" y="506"/>
      <point x="183" y="506" type="curve"/>
      <point x="168" y="482"/>
      <point x="162" y="460"/>
      <point x="162" y="439" type="curve" smooth="yes"/>
      <point x="162" y="358"/>
      <point x="252" y="298"/>
      <point x="306" y="243" type="curve" smooth="yes"/>
      <point x="338" y="209"/>
      <point x="352" y="178"/>
      <point x="352" y="152" type="curve" smooth="yes"/>
      <point x="352" y="116"/>
      <point x="323" y="94"/>
      <point x="291" y="94" type="curve" smooth="yes"/>
      <point x="265" y="94"/>
      <point x="233" y="107"/>
      <point x="200" y="137" type="curve"/>
      <point x="184" y="103"/>
      <point x="168" y="71"/>
      <point x="152" y="37" type="curve"/>
      <point x="189" y="7"/>
      <point x="239" y="-12"/>
      <point x="294" y="-12" type="curve" smooth="yes"/>
      <point x="391" y="-12"/>
      <point x="468" y="53"/>
      <point x="468" y="148" type="curve" smooth="yes"/>
      <point x="468" y="205"/>
      <point x="444" y="251"/>
      <point x="410" y="288" type="curve" smooth="yes"/>
      <point x="360" y="345"/>
      <point x="275" y="393"/>
      <point x="275" y="444" type="curve" smooth="yes"/>
      <point x="275" y="455"/>
      <point x="279" y="465"/>
      <point x="286" y="476" type="curve"/>
      <point x="287" y="476"/>
      <point x="306" y="476"/>
      <point x="306" y="476" type="curve"/>
      <point x="343" y="515"/>
      <point x="349" y="568"/>
      <point x="335" y="610" type="curve" smooth="yes"/>
      <point x="316" y="667"/>
      <point x="250" y="700"/>
      <point x="182" y="700" type="curve" smooth="yes"/>
      <point x="101" y="698"/>
      <point x="21" y="651"/>
      <point x="21" y="536" type="curve" smooth="yes"/>
      <point x="21" y="358"/>
      <point x="21" y="178"/>
      <point x="21" y="0" type="curve"/>
      <point x="57" y="0"/>
      <point x="95" y="0"/>
    </contour>
  </outline>
</glyph>
<glyph name="agrave" format="1">
  <advance width="414"/>
  <unicode hex="00E0"/>
  <outline>
    <contour>
      <point x="287" y="334" type="curve"/>
      <point x="256" y="378"/>
      <point x="194" y="400"/>
      <point x="147" y="400" type="curve" smooth="yes"/>
      <point x="74" y="400"/>
      <point x="12" y="354"/>
      <point x="12" y="252" type="curve"/>
      <point x="12" y="252"/>
      <point x="12" y="155"/>
      <point x="12" y="155" type="curve"/>
      <point x="18" y="28"/>
      <point x="105" y="-11"/>
      <point x="217" y="-11" type="curve" smooth="yes"/>
      <point x="284" y="-11"/>
      <point x="342" y="-8"/>
      <point x="397" y="0" type="curve"/>
      <point x="397" y="0"/>
      <point x="397" y="194"/>
      <point x="397" y="306" type="curve" smooth="yes"/>
      <point x="397" y="398"/>
      <point x="374" y="442"/>
      <point x="350" y="464" type="curve" smooth="yes"/>
      <point x="306" y="504"/>
      <point x="242" y="508"/>
      <point x="189" y="508" type="curve"/>
      <point x="180" y="433" type="line"/>
      <point x="222" y="433"/>
      <point x="251" y="422"/>
      <point x="269" y="406" type="curve" smooth="yes"/>
      <point x="282" y="395"/>
      <point x="287" y="377"/>
    </contour>
    <contour>
      <point x="287" y="252" type="curve"/>
      <point x="287" y="252"/>
      <point x="287" y="94"/>
      <point x="287" y="94" type="curve"/>
      <point x="287" y="94"/>
      <point x="243" y="90"/>
      <point x="227" y="90" type="curve" smooth="yes"/>
      <point x="136" y="90"/>
      <point x="123" y="123"/>
      <point x="123" y="173" type="curve" smooth="yes"/>
      <point x="123" y="190"/>
      <point x="123" y="218"/>
      <point x="123" y="238" type="curve" smooth="yes"/>
      <point x="123" y="275"/>
      <point x="147" y="287"/>
      <point x="178" y="287" type="curve" smooth="yes"/>
      <point x="226" y="287"/>
      <point x="275" y="260"/>
    </contour>
    <contour>
      <point x="129" y="626" type="curve"/>
      <point x="188" y="551" type="line"/>
      <point x="232" y="551" type="line"/>
      <point x="202" y="667" type="line"/>
      <point x="191" y="694"/>
      <point x="162" y="712"/>
      <point x="136" y="697" type="curve" smooth="yes"/>
      <point x="107" y="682"/>
      <point x="112" y="645"/>
    </contour>
  </outline>
</glyph>
<glyph name="atilde" format="1">
  <advance width="416"/>
  <unicode hex="00E3"/>
  <outline>
    <contour>
      <point x="288" y="334" type="curve"/>
      <point x="257" y="378"/>
      <point x="195" y="400"/>
      <point x="148" y="400" type="curve" smooth="yes"/>
      <point x="75" y="400"/>
      <point x="13" y="354"/>
      <point x="13" y="252" type="curve"/>
      <point x="13" y="252"/>
      <point x="13" y="155"/>
      <point x="13" y="155" type="curve"/>
      <point x="19" y="28"/>
      <point x="106" y="-11"/>
      <point x="218" y="-11" type="curve" smooth="yes"/>
      <point x="285" y="-11"/>
      <point x="343" y="-8"/>
      <point x="398" y="0" type="curve"/>
      <point x="398" y="0"/>
      <point x="398" y="194"/>
      <point x="398" y="306" type="curve" smooth="yes"/>
      <point x="398" y="398"/>
      <point x="375" y="442"/>
      <point x="351" y="464" type="curve" smooth="yes"/>
      <point x="307" y="504"/>
      <point x="243" y="508"/>
      <point x="190" y="508" type="curve"/>
      <point x="182" y="433" type="line"/>
      <point x="223" y="433"/>
      <point x="252" y="422"/>
      <point x="271" y="406" type="curve" smooth="yes"/>
      <point x="283" y="395"/>
      <point x="288" y="377"/>
    </contour>
    <contour>
      <point x="288" y="252" type="curve"/>
      <point x="288" y="252"/>
      <point x="288" y="94"/>
      <point x="288" y="94" type="curve"/>
      <point x="288" y="94"/>
      <point x="244" y="90"/>
      <point x="228" y="90" type="curve" smooth="yes"/>
      <point x="137" y="90"/>
      <point x="124" y="123"/>
      <point x="124" y="173" type="curve" smooth="yes"/>
      <point x="124" y="190"/>
      <point x="124" y="218"/>
      <point x="124" y="238" type="curve" smooth="yes"/>
      <point x="124" y="275"/>
      <point x="148" y="287"/>
      <point x="179" y="287" type="curve" smooth="yes"/>
      <point x="227" y="287"/>
      <point x="276" y="260"/>
    </contour>
    <contour>
      <point x="338" y="581" type="curve"/>
      <point x="311" y="641" type="line"/>
      <point x="298" y="630"/>
      <point x="280" y="623"/>
      <point x="264" y="621" type="curve"/>
      <point x="226" y="621"/>
      <point x="195" y="641"/>
      <point x="159" y="641" type="curve" smooth="yes"/>
      <point x="108" y="639"/>
      <point x="88" y="618"/>
      <point x="75" y="608" type="curve"/>
      <point x="103" y="549" type="line"/>
      <point x="111" y="555"/>
      <point x="124" y="566"/>
      <point x="150" y="568" type="curve" smooth="yes"/>
      <point x="187" y="568"/>
      <point x="219" y="551"/>
      <point x="253" y="551" type="curve" smooth="yes"/>
      <point x="287" y="551"/>
      <point x="315" y="564"/>
    </contour>
  </outline>
</glyph>
<glyph name="ae" format="1">
  <advance width="664"/>
  <unicode hex="00E6"/>
  <outline>
    <contour>
      <point x="402" y="150" type="curve" smooth="yes"/>
      <point x="402" y="174" type="line"/>
      <point x="650" y="187" type="line"/>
      <point x="650" y="343" type="line" smooth="yes"/>
      <point x="650" y="450"/>
      <point x="572" y="510"/>
      <point x="474" y="510" type="curve" smooth="yes"/>
      <point x="425" y="510"/>
      <point x="382" y="497"/>
      <point x="344" y="469" type="curve"/>
      <point x="300" y="504"/>
      <point x="240" y="508"/>
      <point x="189" y="508" type="curve"/>
      <point x="186" y="483"/>
      <point x="184" y="459"/>
      <point x="180" y="433" type="curve"/>
      <point x="257" y="431"/>
      <point x="287" y="408"/>
      <point x="287" y="334" type="curve"/>
      <point x="256" y="378"/>
      <point x="194" y="400"/>
      <point x="147" y="400" type="curve" smooth="yes"/>
      <point x="74" y="400"/>
      <point x="12" y="354"/>
      <point x="12" y="252" type="curve" smooth="yes"/>
      <point x="12" y="155" type="line" smooth="yes"/>
      <point x="18" y="28"/>
      <point x="105" y="-11"/>
      <point x="218" y="-11" type="curve" smooth="yes"/>
      <point x="279" y="-11"/>
      <point x="333" y="-9"/>
      <point x="385" y="-2" type="curve"/>
      <point x="385" y="13" type="line"/>
      <point x="400" y="0"/>
      <point x="437" y="-12"/>
      <point x="471" y="-12" type="curve" smooth="yes"/>
      <point x="531" y="-12"/>
      <point x="579" y="7"/>
      <point x="625" y="36" type="curve"/>
      <point x="585" y="131" type="line"/>
      <point x="542" y="109"/>
      <point x="494" y="91"/>
      <point x="459" y="91" type="curve" smooth="yes"/>
      <point x="420" y="91"/>
      <point x="402" y="117"/>
    </contour>
    <contour>
      <point x="287" y="252" type="curve"/>
      <point x="287" y="94" type="line"/>
      <point x="287" y="94"/>
      <point x="243" y="90"/>
      <point x="227" y="90" type="curve" smooth="yes"/>
      <point x="136" y="90"/>
      <point x="123" y="123"/>
      <point x="123" y="173" type="curve" smooth="yes"/>
      <point x="123" y="238" type="line" smooth="yes"/>
      <point x="123" y="275"/>
      <point x="147" y="287"/>
      <point x="178" y="287" type="curve" smooth="yes"/>
      <point x="226" y="287"/>
      <point x="275" y="260"/>
    </contour>
    <contour>
      <point x="540" y="323" type="curve" smooth="yes"/>
      <point x="540" y="284" type="line"/>
      <point x="402" y="275" type="line"/>
      <point x="402" y="326" type="line" smooth="yes"/>
      <point x="402" y="380"/>
      <point x="424" y="403"/>
      <point x="473" y="405" type="curve" smooth="yes"/>
      <point x="528" y="405"/>
      <point x="540" y="367"/>
    </contour>
  </outline>
</glyph>
<glyph name="ccedilla" format="1">
  <advance width="350"/>
  <unicode hex="00E7"/>
  <outline>
    <contour>
      <point x="308" y="392" type="curve"/>
      <point x="333" y="477" type="line"/>
      <point x="275" y="503"/>
      <point x="211" y="518"/>
      <point x="152" y="505" type="curve" smooth="yes"/>
      <point x="107" y="495"/>
      <point x="67" y="471"/>
      <point x="42" y="427" type="curve" smooth="yes"/>
      <point x="22" y="395"/>
      <point x="15" y="363"/>
      <point x="13" y="319" type="curve"/>
      <point x="13" y="173" type="line" smooth="yes"/>
      <point x="13" y="75"/>
      <point x="57" y="23"/>
      <point x="125" y="1" type="curve" smooth="yes"/>
      <point x="196" y="-20"/>
      <point x="271" y="-12"/>
      <point x="335" y="5" type="curve"/>
      <point x="316" y="94" type="line"/>
      <point x="316" y="94"/>
      <point x="269" y="84"/>
      <point x="226" y="84" type="curve" smooth="yes"/>
      <point x="165" y="84"/>
      <point x="122" y="113"/>
      <point x="122" y="174" type="curve" smooth="yes"/>
      <point x="122" y="331" type="line" smooth="yes"/>
      <point x="122" y="351"/>
      <point x="128" y="367"/>
      <point x="135" y="380" type="curve" smooth="yes"/>
      <point x="147" y="398"/>
      <point x="168" y="409"/>
      <point x="191" y="413" type="curve"/>
      <point x="230" y="420"/>
      <point x="274" y="408"/>
    </contour>
    <contour>
      <point x="234" y="-37" type="curve" smooth="yes"/>
      <point x="231" y="-37"/>
      <point x="228" y="-37"/>
      <point x="209" y="-39" type="curve"/>
      <point x="234" y="4" type="line"/>
      <point x="167" y="4" type="line"/>
      <point x="122" y="-72" type="line"/>
      <point x="140" y="-110" type="line"/>
      <point x="180" y="-107"/>
      <point x="209" y="-103"/>
      <point x="230" y="-103" type="curve" smooth="yes"/>
      <point x="254" y="-103"/>
      <point x="264" y="-116"/>
      <point x="264" y="-134" type="curve" smooth="yes"/>
      <point x="264" y="-151"/>
      <point x="253" y="-164"/>
      <point x="226" y="-164" type="curve" smooth="yes"/>
      <point x="183" y="-164"/>
      <point x="127" y="-155"/>
      <point x="127" y="-155" type="curve"/>
      <point x="120" y="-184"/>
      <point x="118" y="-193"/>
      <point x="112" y="-220" type="curve"/>
      <point x="116" y="-220"/>
      <point x="166" y="-231"/>
      <point x="215" y="-231" type="curve" smooth="yes"/>
      <point x="296" y="-231"/>
      <point x="332" y="-189"/>
      <point x="332" y="-129" type="curve" smooth="yes"/>
      <point x="332" y="-83"/>
      <point x="296" y="-37"/>
    </contour>
  </outline>
</glyph>
<glyph name="eacute" format="1">
  <advance width="389"/>
  <unicode hex="00E9"/>
  <outline>
    <contour>
      <point x="125" y="148" type="curve" smooth="yes"/>
      <point x="125" y="173" type="line"/>
      <point x="374" y="186" type="line"/>
      <point x="374" y="342" type="line" smooth="yes"/>
      <point x="374" y="402"/>
      <point x="352" y="449"/>
      <point x="313" y="477" type="curve" smooth="yes"/>
      <point x="284" y="498"/>
      <point x="245" y="509"/>
      <point x="198" y="509" type="curve" smooth="yes"/>
      <point x="147" y="509"/>
      <point x="105" y="496"/>
      <point x="74" y="472" type="curve" smooth="yes"/>
      <point x="36" y="442"/>
      <point x="14" y="397"/>
      <point x="14" y="339" type="curve" smooth="yes"/>
      <point x="14" y="134" type="line" smooth="yes"/>
      <point x="14" y="80"/>
      <point x="34" y="43"/>
      <point x="65" y="20" type="curve" smooth="yes"/>
      <point x="95" y="-3"/>
      <point x="135" y="-13"/>
      <point x="179" y="-13" type="curve" smooth="yes"/>
      <point x="239" y="-13"/>
      <point x="302" y="5"/>
      <point x="350" y="35" type="curve"/>
      <point x="309" y="130" type="line"/>
      <point x="266" y="108"/>
      <point x="218" y="90"/>
      <point x="182" y="90" type="curve" smooth="yes"/>
      <point x="164" y="90"/>
      <point x="148" y="95"/>
      <point x="139" y="106" type="curve"/>
      <point x="131" y="116"/>
      <point x="125" y="129"/>
    </contour>
    <contour>
      <point x="263" y="312" type="curve" smooth="yes"/>
      <point x="263" y="305"/>
      <point x="263" y="289"/>
      <point x="263" y="283" type="curve"/>
      <point x="125" y="274" type="line"/>
      <point x="125" y="284"/>
      <point x="125" y="304"/>
      <point x="125" y="313" type="curve" smooth="yes"/>
      <point x="125" y="345"/>
      <point x="127" y="367"/>
      <point x="144" y="385" type="curve"/>
      <point x="155" y="395"/>
      <point x="173" y="403"/>
      <point x="197" y="404" type="curve" smooth="yes"/>
      <point x="218" y="404"/>
      <point x="232" y="397"/>
      <point x="242" y="388" type="curve" smooth="yes"/>
      <point x="262" y="371"/>
      <point x="263" y="348"/>
    </contour>
    <contour>
      <point x="197" y="664" type="curve" smooth="yes"/>
      <point x="167" y="549" type="line"/>
      <point x="211" y="549" type="line"/>
      <point x="271" y="624" type="line" smooth="yes"/>
      <point x="288" y="646"/>
      <point x="288" y="681"/>
      <point x="262" y="695" type="curve" smooth="yes"/>
      <point x="237" y="710"/>
      <point x="205" y="691"/>
    </contour>
  </outline>
</glyph>
<glyph name="igrave" format="1">
  <advance width="183"/>
  <unicode hex="00EC"/>
  <outline>
    <contour>
      <point x="163" y="499" type="line"/>
      <point x="53" y="499" type="line"/>
      <point x="53" y="0" type="line"/>
      <point x="163" y="0" type="line"/>
    </contour>
    <contour>
      <point x="26" y="620" type="curve" smooth="yes"/>
      <point x="86" y="544" type="line"/>
      <point x="130" y="544" type="line"/>
      <point x="99" y="661" type="line"/>
      <point x="90" y="689"/>
      <point x="58" y="705"/>
      <point x="34" y="691" type="curve"/>
      <point x="4" y="675"/>
      <point x="11" y="640"/>
    </contour>
  </outline>
</glyph>
<glyph name="iacute" format="1">
  <advance width="179"/>
  <unicode hex="00ED"/>
  <outline>
    <contour>
      <point x="130" y="499" type="line"/>
      <point x="20" y="499" type="line"/>
      <point x="20" y="0" type="line"/>
      <point x="130" y="0" type="line"/>
    </contour>
    <contour>
      <point x="79" y="661" type="curve" smooth="yes"/>
      <point x="50" y="544" type="line"/>
      <point x="94" y="544" type="line"/>
      <point x="152" y="620" type="line" smooth="yes"/>
      <point x="170" y="642"/>
      <point x="170" y="676"/>
      <point x="144" y="691" type="curve"/>
      <point x="119" y="706"/>
      <point x="86" y="686"/>
    </contour>
  </outline>
</glyph>
<glyph name="icircumflex" format="1">
  <advance width="266"/>
  <unicode hex="00EE"/>
  <outline>
    <contour>
      <point x="187" y="499" type="line"/>
      <point x="77" y="499" type="line"/>
      <point x="77" y="0" type="line"/>
      <point x="187" y="0" type="line"/>
    </contour>
    <contour>
      <point x="134" y="627" type="line"/>
      <point x="209" y="546" type="line"/>
      <point x="262" y="598" type="line"/>
      <point x="134" y="724" type="line"/>
      <point x="2" y="597" type="line"/>
      <point x="54" y="544" type="line"/>
    </contour>
  </outline>
</glyph>
<glyph name="idieresis" format="1">
  <advance width="284"/>
  <unicode hex="00EF"/>
  <outline>
    <contour>
      <point x="196" y="499" type="line"/>
      <point x="86" y="499" type="line"/>
      <point x="86" y="0" type="line"/>
      <point x="196" y="0" type="line"/>
    </contour>
    <contour>
      <point x="279" y="604" type="curve" smooth="yes"/>
      <point x="279" y="636"/>
      <point x="252" y="663"/>
      <point x="219" y="663" type="curve" smooth="yes"/>
      <point x="186" y="663"/>
      <point x="161" y="636"/>
      <point x="161" y="604" type="curve" smooth="yes"/>
      <point x="161" y="571"/>
      <point x="186" y="543"/>
      <point x="219" y="543" type="curve" smooth="yes"/>
      <point x="252" y="543"/>
      <point x="279" y="571"/>
    </contour>
    <contour>
      <point x="121" y="604" type="curve" smooth="yes"/>
      <point x="121" y="636"/>
      <point x="95" y="663"/>
      <point x="62" y="663" type="curve" smooth="yes"/>
      <point x="29" y="663"/>
      <point x="1" y="636"/>
      <point x="1" y="604" type="curve" smooth="yes"/>
      <point x="1" y="571"/>
      <point x="29" y="543"/>
      <point x="62" y="543" type="curve" smooth="yes"/>
      <point x="95" y="543"/>
      <point x="121" y="571"/>
    </contour>
  </outline>
</glyph>
<glyph name="ntilde" format="1">
  <advance width="408"/>
  <unicode hex="00F1"/>
  <outline>
    <contour>
      <point x="280" y="343" type="curve" smooth="yes"/>
      <point x="280" y="0" type="line"/>
      <point x="389" y="0" type="line"/>
      <point x="389" y="345" type="line" smooth="yes"/>
      <point x="389" y="473"/>
      <point x="307" y="509"/>
      <point x="228" y="509" type="curve" smooth="yes"/>
      <point x="187" y="509"/>
      <point x="146" y="488"/>
      <point x="129" y="476" type="curve"/>
      <point x="129" y="499" type="line"/>
      <point x="20" y="499" type="line"/>
      <point x="20" y="0" type="line"/>
      <point x="129" y="0" type="line"/>
      <point x="129" y="386" type="line"/>
      <point x="162" y="403"/>
      <point x="190" y="410"/>
      <point x="213" y="410" type="curve"/>
      <point x="256" y="408"/>
      <point x="280" y="380"/>
    </contour>
    <contour>
      <point x="335" y="579" type="curve"/>
      <point x="309" y="639" type="line"/>
      <point x="296" y="628"/>
      <point x="278" y="620"/>
      <point x="263" y="620" type="curve" smooth="yes"/>
      <point x="226" y="620"/>
      <point x="195" y="639"/>
      <point x="162" y="639" type="curve" smooth="yes"/>
      <point x="124" y="639"/>
      <point x="98" y="625"/>
      <point x="73" y="605" type="curve"/>
      <point x="101" y="547" type="line"/>
      <point x="110" y="553"/>
      <point x="123" y="565"/>
      <point x="147" y="565" type="curve" smooth="yes"/>
      <point x="185" y="565"/>
      <point x="217" y="549"/>
      <point x="252" y="549" type="curve" smooth="yes"/>
      <point x="285" y="549"/>
      <point x="313" y="562"/>
    </contour>
  </outline>
</glyph>
<glyph name="ograve" format="1">
  <advance width="397"/>
  <unicode hex="00F2"/>
  <outline>
    <contour>
      <point x="383" y="184" type="curve" smooth="yes"/>
      <point x="383" y="316" type="line" smooth="yes"/>
      <point x="383" y="437"/>
      <point x="317" y="510"/>
      <point x="201" y="510" type="curve" smooth="yes"/>
      <point x="80" y="510"/>
      <point x="13" y="443"/>
      <point x="13" y="316" type="curve" smooth="yes"/>
      <point x="13" y="184" type="line" smooth="yes"/>
      <point x="13" y="82"/>
      <point x="69" y="-10"/>
      <point x="201" y="-10" type="curve" smooth="yes"/>
      <point x="326" y="-10"/>
      <point x="383" y="71"/>
    </contour>
    <contour>
      <point x="272" y="322" type="curve" smooth="yes"/>
      <point x="272" y="176" type="line" smooth="yes"/>
      <point x="272" y="131"/>
      <point x="250" y="98"/>
      <point x="200" y="98" type="curve" smooth="yes"/>
      <point x="147" y="98"/>
      <point x="125" y="135"/>
      <point x="125" y="176" type="curve" smooth="yes"/>
      <point x="125" y="322" type="line" smooth="yes"/>
      <point x="125" y="373"/>
      <point x="152" y="400"/>
      <point x="200" y="400" type="curve" smooth="yes"/>
      <point x="248" y="400"/>
      <point x="272" y="370"/>
    </contour>
    <contour>
      <point x="121" y="624" type="curve"/>
      <point x="180" y="549" type="line"/>
      <point x="224" y="549" type="line"/>
      <point x="194" y="664" type="line" smooth="yes"/>
      <point x="185" y="693"/>
      <point x="153" y="708"/>
      <point x="129" y="695" type="curve" smooth="yes"/>
      <point x="99" y="680"/>
      <point x="105" y="642"/>
    </contour>
  </outline>
</glyph>
<glyph name="oacute" format="1">
  <advance width="398"/>
  <unicode hex="00F3"/>
  <outline>
    <contour>
      <point x="383" y="184" type="curve" smooth="yes"/>
      <point x="383" y="316" type="line" smooth="yes"/>
      <point x="383" y="437"/>
      <point x="317" y="510"/>
      <point x="201" y="510" type="curve" smooth="yes"/>
      <point x="80" y="510"/>
      <point x="13" y="443"/>
      <point x="13" y="316" type="curve" smooth="yes"/>
      <point x="13" y="184" type="line" smooth="yes"/>
      <point x="13" y="82"/>
      <point x="69" y="-10"/>
      <point x="201" y="-10" type="curve" smooth="yes"/>
      <point x="326" y="-10"/>
      <point x="383" y="71"/>
    </contour>
    <contour>
      <point x="272" y="322" type="curve" smooth="yes"/>
      <point x="272" y="176" type="line" smooth="yes"/>
      <point x="272" y="131"/>
      <point x="250" y="98"/>
      <point x="200" y="98" type="curve" smooth="yes"/>
      <point x="147" y="98"/>
      <point x="125" y="135"/>
      <point x="125" y="176" type="curve" smooth="yes"/>
      <point x="125" y="322" type="line" smooth="yes"/>
      <point x="125" y="373"/>
      <point x="152" y="400"/>
      <point x="200" y="400" type="curve" smooth="yes"/>
      <point x="248" y="400"/>
      <point x="272" y="370"/>
    </contour>
    <contour>
      <point x="200" y="664" type="curve" smooth="yes"/>
      <point x="170" y="549" type="line"/>
      <point x="215" y="549" type="line"/>
      <point x="273" y="624" type="line"/>
      <point x="293" y="646"/>
      <point x="293" y="680"/>
      <point x="266" y="695" type="curve" smooth="yes"/>
      <point x="240" y="710"/>
      <point x="208" y="691"/>
    </contour>
  </outline>
</glyph>
<glyph name="ocircumflex" format="1">
  <advance width="399"/>
  <unicode hex="00F4"/>
  <outline>
    <contour>
      <point x="384" y="184" type="curve" smooth="yes"/>
      <point x="384" y="316" type="line" smooth="yes"/>
      <point x="384" y="437"/>
      <point x="318" y="510"/>
      <point x="202" y="510" type="curve" smooth="yes"/>
      <point x="81" y="510"/>
      <point x="14" y="443"/>
      <point x="14" y="316" type="curve" smooth="yes"/>
      <point x="14" y="184" type="line" smooth="yes"/>
      <point x="14" y="82"/>
      <point x="70" y="-10"/>
      <point x="202" y="-10" type="curve" smooth="yes"/>
      <point x="327" y="-10"/>
      <point x="384" y="71"/>
    </contour>
    <contour>
      <point x="273" y="322" type="curve" smooth="yes"/>
      <point x="273" y="176" type="line" smooth="yes"/>
      <point x="273" y="131"/>
      <point x="251" y="98"/>
      <point x="201" y="98" type="curve" smooth="yes"/>
      <point x="148" y="98"/>
      <point x="127" y="135"/>
      <point x="127" y="176" type="curve" smooth="yes"/>
      <point x="127" y="322" type="line" smooth="yes"/>
      <point x="127" y="373"/>
      <point x="153" y="400"/>
      <point x="201" y="400" type="curve" smooth="yes"/>
      <point x="249" y="400"/>
      <point x="273" y="370"/>
    </contour>
    <contour>
      <point x="201" y="626" type="line"/>
      <point x="276" y="544" type="line"/>
      <point x="329" y="597" type="line"/>
      <point x="201" y="723" type="line"/>
      <point x="69" y="596" type="line"/>
      <point x="121" y="543" type="line"/>
    </contour>
  </outline>
</glyph>
<glyph name="otilde" format="1">
  <advance width="399"/>
  <unicode hex="00F5"/>
  <outline>
    <contour>
      <point x="384" y="184" type="curve" smooth="yes"/>
      <point x="384" y="316" type="line" smooth="yes"/>
      <point x="384" y="437"/>
      <point x="318" y="510"/>
      <point x="202" y="510" type="curve" smooth="yes"/>
      <point x="81" y="510"/>
      <point x="14" y="443"/>
      <point x="14" y="316" type="curve" smooth="yes"/>
      <point x="14" y="184" type="line" smooth="yes"/>
      <point x="14" y="82"/>
      <point x="70" y="-10"/>
      <point x="202" y="-10" type="curve" smooth="yes"/>
      <point x="327" y="-10"/>
      <point x="384" y="71"/>
    </contour>
    <contour>
      <point x="273" y="322" type="curve" smooth="yes"/>
      <point x="273" y="176" type="line" smooth="yes"/>
      <point x="273" y="131"/>
      <point x="251" y="98"/>
      <point x="201" y="98" type="curve" smooth="yes"/>
      <point x="148" y="98"/>
      <point x="127" y="135"/>
      <point x="127" y="176" type="curve" smooth="yes"/>
      <point x="127" y="322" type="line" smooth="yes"/>
      <point x="127" y="373"/>
      <point x="153" y="400"/>
      <point x="201" y="400" type="curve" smooth="yes"/>
      <point x="249" y="400"/>
      <point x="273" y="370"/>
    </contour>
    <contour>
      <point x="330" y="579" type="curve"/>
      <point x="305" y="639" type="line"/>
      <point x="291" y="628"/>
      <point x="273" y="620"/>
      <point x="258" y="620" type="curve" smooth="yes"/>
      <point x="219" y="620"/>
      <point x="187" y="640"/>
      <point x="153" y="640" type="curve"/>
      <point x="101" y="637"/>
      <point x="81" y="616"/>
      <point x="68" y="606" type="curve"/>
      <point x="97" y="547" type="line"/>
      <point x="106" y="554"/>
      <point x="118" y="565"/>
      <point x="142" y="565" type="curve" smooth="yes"/>
      <point x="180" y="565"/>
      <point x="212" y="549"/>
      <point x="246" y="549" type="curve" smooth="yes"/>
      <point x="280" y="549"/>
      <point x="308" y="563"/>
    </contour>
  </outline>
</glyph>
<glyph name="odieresis" format="1">
  <advance width="399"/>
  <unicode hex="00F6"/>
  <outline>
    <contour>
      <point x="384" y="184" type="curve" smooth="yes"/>
      <point x="384" y="316" type="line" smooth="yes"/>
      <point x="384" y="437"/>
      <point x="318" y="510"/>
      <point x="202" y="510" type="curve" smooth="yes"/>
      <point x="81" y="510"/>
      <point x="14" y="443"/>
      <point x="14" y="316" type="curve" smooth="yes"/>
      <point x="14" y="184" type="line" smooth="yes"/>
      <point x="14" y="82"/>
      <point x="70" y="-10"/>
      <point x="202" y="-10" type="curve" smooth="yes"/>
      <point x="327" y="-10"/>
      <point x="384" y="71"/>
    </contour>
    <contour>
      <point x="273" y="322" type="curve" smooth="yes"/>
      <point x="273" y="176" type="line" smooth="yes"/>
      <point x="273" y="131"/>
      <point x="251" y="98"/>
      <point x="201" y="98" type="curve" smooth="yes"/>
      <point x="148" y="98"/>
      <point x="127" y="135"/>
      <point x="127" y="176" type="curve" smooth="yes"/>
      <point x="127" y="322" type="line" smooth="yes"/>
      <point x="127" y="373"/>
      <point x="153" y="400"/>
      <point x="201" y="400" type="curve" smooth="yes"/>
      <point x="249" y="400"/>
      <point x="273" y="370"/>
    </contour>
    <contour>
      <point x="334" y="607" type="curve" smooth="yes"/>
      <point x="334" y="640"/>
      <point x="307" y="667"/>
      <point x="274" y="667" type="curve" smooth="yes"/>
      <point x="241" y="667"/>
      <point x="215" y="640"/>
      <point x="215" y="607" type="curve" smooth="yes"/>
      <point x="215" y="574"/>
      <point x="241" y="547"/>
      <point x="274" y="547" type="curve" smooth="yes"/>
      <point x="307" y="547"/>
      <point x="334" y="574"/>
    </contour>
    <contour>
      <point x="175" y="607" type="curve" smooth="yes"/>
      <point x="175" y="640"/>
      <point x="150" y="667"/>
      <point x="117" y="667" type="curve" smooth="yes"/>
      <point x="84" y="667"/>
      <point x="56" y="640"/>
      <point x="56" y="607" type="curve" smooth="yes"/>
      <point x="56" y="574"/>
      <point x="84" y="547"/>
      <point x="117" y="547" type="curve" smooth="yes"/>
      <point x="150" y="547"/>
      <point x="175" y="574"/>
    </contour>
  </outline>
</glyph>
<glyph name="divide" format="1">
  <advance width="356"/>
  <unicode hex="00F7"/>
  <outline>
    <contour>
      <point x="338" y="426" type="line"/>
      <point x="18" y="426" type="line"/>
      <point x="18" y="340" type="line"/>
      <point x="338" y="340" type="line"/>
    </contour>
    <contour>
      <point x="179" y="571" type="curve" smooth="yes"/>
      <point x="146" y="571"/>
      <point x="119" y="543"/>
      <point x="119" y="512" type="curve" smooth="yes"/>
      <point x="119" y="479"/>
      <point x="146" y="452"/>
      <point x="179" y="452" type="curve" smooth="yes"/>
      <point x="211" y="452"/>
      <point x="239" y="479"/>
      <point x="239" y="512" type="curve" smooth="yes"/>
      <point x="239" y="543"/>
      <point x="211" y="571"/>
    </contour>
    <contour>
      <point x="179" y="313" type="curve" smooth="yes"/>
      <point x="146" y="313"/>
      <point x="119" y="288"/>
      <point x="119" y="255" type="curve" smooth="yes"/>
      <point x="119" y="222"/>
      <point x="146" y="195"/>
      <point x="179" y="195" type="curve" smooth="yes"/>
      <point x="211" y="195"/>
      <point x="239" y="222"/>
      <point x="239" y="255" type="curve" smooth="yes"/>
      <point x="239" y="288"/>
      <point x="211" y="313"/>
    </contour>
  </outline>
</glyph>
<glyph name="oslash" format="1">
  <advance width="417"/>
  <unicode hex="00F8"/>
  <outline>
    <contour>
      <point x="384" y="184" type="curve" smooth="yes"/>
      <point x="384" y="316" type="line" smooth="yes"/>
      <point x="384" y="371"/>
      <point x="371" y="417"/>
      <point x="344" y="450" type="curve"/>
      <point x="404" y="586" type="line"/>
      <point x="296" y="586" type="line"/>
      <point x="261" y="504" type="line"/>
      <point x="242" y="509"/>
      <point x="223" y="510"/>
      <point x="202" y="510" type="curve" smooth="yes"/>
      <point x="81" y="510"/>
      <point x="14" y="443"/>
      <point x="14" y="316" type="curve" smooth="yes"/>
      <point x="14" y="184" type="line" smooth="yes"/>
      <point x="14" y="131"/>
      <point x="30" y="80"/>
      <point x="64" y="44" type="curve"/>
      <point x="15" y="-67" type="line"/>
      <point x="120" y="-67" type="line"/>
      <point x="147" y="-4" type="line"/>
      <point x="164" y="-8"/>
      <point x="183" y="-10"/>
      <point x="202" y="-10" type="curve" smooth="yes"/>
      <point x="327" y="-10"/>
      <point x="384" y="71"/>
    </contour>
    <contour>
      <point x="127" y="215" type="curve" smooth="yes"/>
      <point x="127" y="322" type="line" smooth="yes"/>
      <point x="127" y="373"/>
      <point x="153" y="400"/>
      <point x="201" y="400" type="curve" smooth="yes"/>
      <point x="207" y="400"/>
      <point x="211" y="400"/>
      <point x="217" y="400" type="curve"/>
      <point x="127" y="190" type="line"/>
      <point x="127" y="198"/>
      <point x="127" y="206"/>
    </contour>
    <contour>
      <point x="273" y="260" type="curve" smooth="yes"/>
      <point x="273" y="176" type="line" smooth="yes"/>
      <point x="273" y="131"/>
      <point x="251" y="98"/>
      <point x="201" y="98" type="curve" smooth="yes"/>
      <point x="198" y="98"/>
      <point x="195" y="98"/>
      <point x="193" y="98" type="curve"/>
      <point x="273" y="283" type="line"/>
      <point x="273" y="276"/>
      <point x="273" y="268"/>
    </contour>
  </outline>
</glyph>
<glyph name="ucircumflex" format="1">
  <advance width="404"/>
  <unicode hex="00FB"/>
  <outline>
    <contour>
      <point x="275" y="26" type="curve"/>
      <point x="275" y="0" type="line"/>
      <point x="385" y="0" type="line"/>
      <point x="385" y="501" type="line"/>
      <point x="275" y="501" type="line"/>
      <point x="275" y="175" type="line" smooth="yes"/>
      <point x="275" y="129"/>
      <point x="240" y="94"/>
      <point x="195" y="94" type="curve" smooth="yes"/>
      <point x="155" y="94"/>
      <point x="127" y="124"/>
      <point x="127" y="159" type="curve" smooth="yes"/>
      <point x="127" y="501" type="line"/>
      <point x="16" y="501" type="line"/>
      <point x="16" y="157" type="line" smooth="yes"/>
      <point x="16" y="29"/>
      <point x="98" y="-7"/>
      <point x="177" y="-7" type="curve" smooth="yes"/>
      <point x="218" y="-7"/>
      <point x="263" y="12"/>
    </contour>
    <contour>
      <point x="204" y="626" type="line"/>
      <point x="278" y="544" type="line"/>
      <point x="331" y="597" type="line"/>
      <point x="204" y="723" type="line"/>
      <point x="71" y="596" type="line"/>
      <point x="123" y="543" type="line"/>
    </contour>
  </outline>
</glyph>
<glyph name="udieresis" format="1">
  <advance width="406"/>
  <unicode hex="00FC"/>
  <outline>
    <contour>
      <point x="276" y="26" type="curve"/>
      <point x="276" y="0" type="line"/>
      <point x="386" y="0" type="line"/>
      <point x="386" y="501" type="line"/>
      <point x="276" y="501" type="line"/>
      <point x="276" y="175" type="line" smooth="yes"/>
      <point x="276" y="129"/>
      <point x="241" y="94"/>
      <point x="196" y="94" type="curve" smooth="yes"/>
      <point x="156" y="94"/>
      <point x="128" y="124"/>
      <point x="128" y="159" type="curve" smooth="yes"/>
      <point x="128" y="501" type="line"/>
      <point x="18" y="501" type="line"/>
      <point x="18" y="157" type="line" smooth="yes"/>
      <point x="18" y="29"/>
      <point x="99" y="-7"/>
      <point x="178" y="-7" type="curve" smooth="yes"/>
      <point x="219" y="-7"/>
      <point x="264" y="12"/>
    </contour>
    <contour>
      <point x="282" y="663" type="curve" smooth="yes"/>
      <point x="249" y="663"/>
      <point x="222" y="636"/>
      <point x="222" y="603" type="curve" smooth="yes"/>
      <point x="222" y="570"/>
      <point x="249" y="543"/>
      <point x="282" y="543" type="curve" smooth="yes"/>
      <point x="315" y="543"/>
      <point x="342" y="570"/>
      <point x="342" y="603" type="curve" smooth="yes"/>
      <point x="342" y="636"/>
      <point x="315" y="663"/>
    </contour>
    <contour>
      <point x="123" y="663" type="curve" smooth="yes"/>
      <point x="90" y="663"/>
      <point x="64" y="636"/>
      <point x="64" y="603" type="curve" smooth="yes"/>
      <point x="64" y="570"/>
      <point x="90" y="543"/>
      <point x="123" y="543" type="curve" smooth="yes"/>
      <point x="156" y="543"/>
      <point x="184" y="570"/>
      <point x="184" y="603" type="curve" smooth="yes"/>
      <point x="184" y="636"/>
      <point x="156" y="663"/>
    </contour>
  </outline>
</glyph>
<glyph name="thorn" format="1">
  <advance width="413"/>
  <unicode hex="00FE"/>
  <outline>
    <contour>
      <point x="132" y="491" type="curve"/>
      <point x="132" y="700" type="line"/>
      <point x="22" y="700" type="line"/>
      <point x="22" y="0" type="line"/>
      <point x="132" y="0" type="line"/>
      <point x="132" y="139" type="line"/>
      <point x="152" y="124"/>
      <point x="182" y="116"/>
      <point x="215" y="116" type="curve" smooth="yes"/>
      <point x="326" y="116"/>
      <point x="400" y="190"/>
      <point x="400" y="315" type="curve" smooth="yes"/>
      <point x="400" y="430"/>
      <point x="334" y="508"/>
      <point x="210" y="508" type="curve" smooth="yes"/>
      <point x="184" y="508"/>
      <point x="155" y="502"/>
    </contour>
    <contour>
      <point x="215" y="404" type="curve" smooth="yes"/>
      <point x="267" y="404"/>
      <point x="291" y="360"/>
      <point x="291" y="316" type="curve" smooth="yes"/>
      <point x="291" y="248"/>
      <point x="254" y="220"/>
      <point x="215" y="220" type="curve" smooth="yes"/>
      <point x="169" y="220"/>
      <point x="131" y="249"/>
      <point x="131" y="318" type="curve" smooth="yes"/>
      <point x="131" y="369"/>
      <point x="173" y="404"/>
    </contour>
  </outline>
</glyph>
<glyph name="ydieresis" format="1">
  <advance width="446"/>
  <unicode hex="00FF"/>
  <outline>
    <contour>
      <point x="433" y="433" type="curve"/>
      <point x="399" y="510" type="line"/>
      <point x="309" y="510"/>
      <point x="276" y="448"/>
      <point x="276" y="392" type="curve" smooth="yes"/>
      <point x="276" y="176" type="line" smooth="yes"/>
      <point x="276" y="129"/>
      <point x="237" y="94"/>
      <point x="194" y="94" type="curve" smooth="yes"/>
      <point x="151" y="95"/>
      <point x="127" y="124"/>
      <point x="127" y="161" type="curve" smooth="yes"/>
      <point x="127" y="501" type="line"/>
      <point x="16" y="501" type="line"/>
      <point x="16" y="158" type="line" smooth="yes"/>
      <point x="16" y="30"/>
      <point x="98" y="-6"/>
      <point x="177" y="-6" type="curve" smooth="yes"/>
      <point x="218" y="-6"/>
      <point x="264" y="13"/>
      <point x="276" y="28" type="curve"/>
      <point x="276" y="-48" type="line" smooth="yes"/>
      <point x="276" y="-72"/>
      <point x="269" y="-89"/>
      <point x="256" y="-101" type="curve" smooth="yes"/>
      <point x="242" y="-114"/>
      <point x="223" y="-124"/>
      <point x="206" y="-124" type="curve"/>
      <point x="235" y="-213" type="line"/>
      <point x="268" y="-213"/>
      <point x="311" y="-199"/>
      <point x="339" y="-179" type="curve" smooth="yes"/>
      <point x="371" y="-157"/>
      <point x="386" y="-116"/>
      <point x="386" y="-59" type="curve" smooth="yes"/>
      <point x="386" y="362" type="line" smooth="yes"/>
      <point x="386" y="395"/>
      <point x="395" y="425"/>
    </contour>
    <contour>
      <point x="294" y="663" type="curve" smooth="yes"/>
      <point x="261" y="663"/>
      <point x="233" y="636"/>
      <point x="233" y="603" type="curve" smooth="yes"/>
      <point x="233" y="570"/>
      <point x="261" y="543"/>
      <point x="294" y="543" type="curve" smooth="yes"/>
      <point x="327" y="543"/>
      <point x="353" y="570"/>
      <point x="353" y="603" type="curve" smooth="yes"/>
      <point x="353" y="636"/>
      <point x="327" y="663"/>
    </contour>
    <contour>
      <point x="135" y="663" type="curve" smooth="yes"/>
      <point x="102" y="663"/>
      <point x="76" y="636"/>
      <point x="76" y="603" type="curve" smooth="yes"/>
      <point x="76" y="570"/>
      <point x="102" y="543"/>
      <point x="135" y="543" type="curve" smooth="yes"/>
      <point x="168" y="543"/>
      <point x="195" y="570"/>
      <point x="195" y="603" type="curve" smooth="yes"/>
      <point x="195" y="636"/>
      <point x="168" y="663"/>
    </contour>
  </outline>
</glyph>
<glyph name="Abreve" format="1">
  <advance width="513"/>
  <unicode hex="0102"/>
  <outline>
    <contour>
      <point x="178" y="698" type="line"/>
      <point x="9" y="0" type="line"/>
      <point x="133" y="0" type="line"/>
      <point x="173" y="183" type="line"/>
      <point x="334" y="183" type="line"/>
      <point x="374" y="0" type="line"/>
      <point x="505" y="0" type="line"/>
      <point x="333" y="698" type="line"/>
    </contour>
    <contour>
      <point x="309" y="300" type="line"/>
      <point x="200" y="300" type="line"/>
      <point x="254" y="515" type="line"/>
    </contour>
    <contour>
      <point x="220" y="856" type="curve" smooth="yes"/>
      <point x="220" y="861" type="line"/>
      <point x="140" y="861" type="line"/>
      <point x="140" y="856" type="line" smooth="yes"/>
      <point x="140" y="793"/>
      <point x="191" y="741"/>
      <point x="253" y="741" type="curve" smooth="yes"/>
      <point x="316" y="741"/>
      <point x="367" y="793"/>
      <point x="367" y="856" type="curve" smooth="yes"/>
      <point x="367" y="861" type="line"/>
      <point x="287" y="861" type="line"/>
      <point x="287" y="856" type="line" smooth="yes"/>
      <point x="287" y="837"/>
      <point x="272" y="822"/>
      <point x="254" y="822" type="curve" smooth="yes"/>
      <point x="235" y="822"/>
      <point x="220" y="837"/>
    </contour>
  </outline>
</glyph>
<glyph name="abreve" format="1">
  <advance width="416"/>
  <unicode hex="0103"/>
  <outline>
    <contour>
      <point x="288" y="334" type="curve"/>
      <point x="257" y="378"/>
      <point x="195" y="400"/>
      <point x="148" y="400" type="curve" smooth="yes"/>
      <point x="75" y="400"/>
      <point x="13" y="354"/>
      <point x="13" y="252" type="curve"/>
      <point x="13" y="252"/>
      <point x="13" y="155"/>
      <point x="13" y="155" type="curve"/>
      <point x="19" y="28"/>
      <point x="106" y="-11"/>
      <point x="218" y="-11" type="curve" smooth="yes"/>
      <point x="285" y="-11"/>
      <point x="343" y="-8"/>
      <point x="398" y="0" type="curve"/>
      <point x="398" y="0"/>
      <point x="398" y="194"/>
      <point x="398" y="306" type="curve" smooth="yes"/>
      <point x="398" y="398"/>
      <point x="375" y="442"/>
      <point x="351" y="464" type="curve" smooth="yes"/>
      <point x="307" y="504"/>
      <point x="243" y="508"/>
      <point x="190" y="508" type="curve"/>
      <point x="182" y="433" type="line"/>
      <point x="223" y="433"/>
      <point x="252" y="422"/>
      <point x="271" y="406" type="curve" smooth="yes"/>
      <point x="283" y="395"/>
      <point x="288" y="377"/>
    </contour>
    <contour>
      <point x="288" y="252" type="curve"/>
      <point x="288" y="252"/>
      <point x="288" y="94"/>
      <point x="288" y="94" type="curve"/>
      <point x="288" y="94"/>
      <point x="244" y="90"/>
      <point x="228" y="90" type="curve" smooth="yes"/>
      <point x="137" y="90"/>
      <point x="124" y="123"/>
      <point x="124" y="173" type="curve" smooth="yes"/>
      <point x="124" y="190"/>
      <point x="124" y="218"/>
      <point x="124" y="238" type="curve" smooth="yes"/>
      <point x="124" y="275"/>
      <point x="148" y="287"/>
      <point x="179" y="287" type="curve" smooth="yes"/>
      <point x="227" y="287"/>
      <point x="276" y="260"/>
    </contour>
    <contour>
      <point x="319" y="662" type="curve" smooth="yes"/>
      <point x="319" y="669" type="line"/>
      <point x="239" y="669" type="line"/>
      <point x="239" y="662" type="line" smooth="yes"/>
      <point x="239" y="642"/>
      <point x="224" y="628"/>
      <point x="206" y="628" type="curve" smooth="yes"/>
      <point x="187" y="628"/>
      <point x="173" y="642"/>
      <point x="173" y="662" type="curve" smooth="yes"/>
      <point x="173" y="669" type="line"/>
      <point x="92" y="669" type="line"/>
      <point x="92" y="662" type="line" smooth="yes"/>
      <point x="92" y="598"/>
      <point x="143" y="549"/>
      <point x="206" y="549" type="curve" smooth="yes"/>
      <point x="268" y="549"/>
      <point x="319" y="598"/>
    </contour>
  </outline>
</glyph>
<glyph name="Aogonek" format="1">
  <advance width="550"/>
  <unicode hex="0104"/>
  <outline>
    <contour>
      <point x="178" y="698" type="line"/>
      <point x="9" y="0" type="line"/>
      <point x="133" y="0" type="line"/>
      <point x="173" y="183" type="line"/>
      <point x="333" y="183" type="line"/>
      <point x="374" y="0" type="line"/>
      <point x="505" y="0" type="line"/>
      <point x="333" y="698" type="line"/>
    </contour>
    <contour>
      <point x="309" y="300" type="line"/>
      <point x="200" y="300" type="line"/>
      <point x="254" y="515" type="line"/>
    </contour>
    <contour>
      <point x="415" y="-127" type="curve"/>
      <point x="496" y="-2" type="line"/>
      <point x="496" y="11" type="line"/>
      <point x="407" y="2" type="line"/>
      <point x="407" y="-2" type="line"/>
      <point x="352" y="-91" type="line" smooth="yes"/>
      <point x="300" y="-183"/>
      <point x="375" y="-253"/>
      <point x="463" y="-229" type="curve" smooth="yes"/>
      <point x="484" y="-223"/>
      <point x="565" y="-195"/>
      <point x="566" y="-194" type="curve"/>
      <point x="542" y="-123" type="line"/>
      <point x="542" y="-123"/>
      <point x="466" y="-149"/>
      <point x="439" y="-158" type="curve" smooth="yes"/>
      <point x="413" y="-168"/>
      <point x="404" y="-147"/>
    </contour>
  </outline>
</glyph>
<glyph name="aogonek" format="1">
  <advance width="452"/>
  <unicode hex="0105"/>
  <outline>
    <contour>
      <point x="287" y="334" type="curve"/>
      <point x="256" y="378"/>
      <point x="194" y="400"/>
      <point x="147" y="400" type="curve" smooth="yes"/>
      <point x="74" y="400"/>
      <point x="12" y="354"/>
      <point x="12" y="252" type="curve"/>
      <point x="12" y="252"/>
      <point x="12" y="155"/>
      <point x="12" y="155" type="curve"/>
      <point x="18" y="28"/>
      <point x="105" y="-11"/>
      <point x="218" y="-11" type="curve" smooth="yes"/>
      <point x="285" y="-11"/>
      <point x="342" y="-8"/>
      <point x="397" y="0" type="curve"/>
      <point x="397" y="0"/>
      <point x="397" y="194"/>
      <point x="397" y="306" type="curve" smooth="yes"/>
      <point x="397" y="398"/>
      <point x="374" y="442"/>
      <point x="351" y="464" type="curve" smooth="yes"/>
      <point x="307" y="504"/>
      <point x="242" y="508"/>
      <point x="189" y="508" type="curve"/>
      <point x="180" y="433" type="line"/>
      <point x="222" y="433"/>
      <point x="252" y="422"/>
      <point x="269" y="406" type="curve" smooth="yes"/>
      <point x="282" y="395"/>
      <point x="287" y="377"/>
    </contour>
    <contour>
      <point x="287" y="252" type="curve"/>
      <point x="287" y="252"/>
      <point x="287" y="94"/>
      <point x="287" y="94" type="curve"/>
      <point x="287" y="94"/>
      <point x="243" y="90"/>
      <point x="227" y="90" type="curve" smooth="yes"/>
      <point x="136" y="90"/>
      <point x="123" y="123"/>
      <point x="123" y="173" type="curve" smooth="yes"/>
      <point x="123" y="190"/>
      <point x="123" y="218"/>
      <point x="123" y="238" type="curve" smooth="yes"/>
      <point x="123" y="275"/>
      <point x="147" y="287"/>
      <point x="178" y="287" type="curve" smooth="yes"/>
      <point x="226" y="287"/>
      <point x="275" y="260"/>
    </contour>
    <contour>
      <point x="358" y="-238" type="curve" smooth="yes"/>
      <point x="380" y="-232"/>
      <point x="461" y="-204"/>
      <point x="462" y="-204" type="curve"/>
      <point x="438" y="-132" type="line"/>
      <point x="438" y="-132"/>
      <point x="363" y="-158"/>
      <point x="334" y="-168" type="curve"/>
      <point x="310" y="-178"/>
      <point x="299" y="-156"/>
      <point x="310" y="-138" type="curve" smooth="yes"/>
      <point x="392" y="-11" type="line"/>
      <point x="392" y="-7"/>
      <point x="392" y="-2"/>
      <point x="392" y="2" type="curve"/>
      <point x="376" y="1"/>
      <point x="302" y="-7"/>
      <point x="301" y="-7" type="curve"/>
      <point x="301" y="-11" type="line"/>
      <point x="301" y="-11"/>
      <point x="278" y="-50"/>
      <point x="248" y="-101" type="curve" smooth="yes"/>
      <point x="198" y="-189"/>
      <point x="265" y="-265"/>
    </contour>
  </outline>
</glyph>
<glyph name="cacute" format="1">
  <advance width="350"/>
  <unicode hex="0107"/>
  <outline>
    <contour>
      <point x="308" y="392" type="curve"/>
      <point x="333" y="477" type="line"/>
      <point x="275" y="503"/>
      <point x="211" y="518"/>
      <point x="152" y="505" type="curve" smooth="yes"/>
      <point x="107" y="495"/>
      <point x="67" y="471"/>
      <point x="42" y="427" type="curve" smooth="yes"/>
      <point x="22" y="395"/>
      <point x="15" y="363"/>
      <point x="13" y="319" type="curve"/>
      <point x="13" y="173" type="line" smooth="yes"/>
      <point x="13" y="75"/>
      <point x="57" y="23"/>
      <point x="125" y="1" type="curve" smooth="yes"/>
      <point x="196" y="-20"/>
      <point x="271" y="-12"/>
      <point x="335" y="5" type="curve"/>
      <point x="316" y="94" type="line"/>
      <point x="316" y="94"/>
      <point x="269" y="84"/>
      <point x="226" y="84" type="curve" smooth="yes"/>
      <point x="165" y="84"/>
      <point x="122" y="113"/>
      <point x="122" y="174" type="curve" smooth="yes"/>
      <point x="122" y="331" type="line" smooth="yes"/>
      <point x="122" y="351"/>
      <point x="128" y="367"/>
      <point x="135" y="380" type="curve" smooth="yes"/>
      <point x="147" y="398"/>
      <point x="168" y="409"/>
      <point x="191" y="413" type="curve"/>
      <point x="230" y="420"/>
      <point x="274" y="408"/>
    </contour>
    <contour>
      <point x="198" y="664" type="curve" smooth="yes"/>
      <point x="167" y="549" type="line"/>
      <point x="212" y="549" type="line"/>
      <point x="271" y="624" type="line" smooth="yes"/>
      <point x="289" y="646"/>
      <point x="289" y="680"/>
      <point x="263" y="695" type="curve" smooth="yes"/>
      <point x="238" y="710"/>
      <point x="206" y="691"/>
    </contour>
  </outline>
</glyph>
<glyph name="Ccircumflex" format="1">
  <advance width="392"/>
  <unicode hex="0108"/>
  <outline>
    <contour>
      <point x="324" y="582" type="curve"/>
      <point x="354" y="675" type="line"/>
      <point x="315" y="696"/>
      <point x="265" y="710"/>
      <point x="215" y="710" type="curve" smooth="yes"/>
      <point x="163" y="710"/>
      <point x="114" y="697"/>
      <point x="79" y="664" type="curve" smooth="yes"/>
      <point x="43" y="632"/>
      <point x="18" y="581"/>
      <point x="18" y="503" type="curve" smooth="yes"/>
      <point x="18" y="183" type="line" smooth="yes"/>
      <point x="18" y="113"/>
      <point x="41" y="64"/>
      <point x="77" y="32" type="curve" smooth="yes"/>
      <point x="112" y="2"/>
      <point x="161" y="-12"/>
      <point x="215" y="-12" type="curve" smooth="yes"/>
      <point x="266" y="-11"/>
      <point x="321" y="1"/>
      <point x="378" y="23" type="curve"/>
      <point x="362" y="127" type="line"/>
      <point x="350" y="127"/>
      <point x="282" y="100"/>
      <point x="221" y="100" type="curve" smooth="yes"/>
      <point x="193" y="100"/>
      <point x="168" y="105"/>
      <point x="152" y="120" type="curve" smooth="yes"/>
      <point x="136" y="133"/>
      <point x="128" y="154"/>
      <point x="128" y="185" type="curve" smooth="yes"/>
      <point x="128" y="512" type="line" smooth="yes"/>
      <point x="128" y="542"/>
      <point x="135" y="563"/>
      <point x="153" y="577" type="curve" smooth="yes"/>
      <point x="169" y="592"/>
      <point x="195" y="599"/>
      <point x="230" y="599" type="curve" smooth="yes"/>
      <point x="260" y="599"/>
      <point x="297" y="592"/>
    </contour>
    <contour>
      <point x="200" y="825" type="line"/>
      <point x="275" y="743" type="line"/>
      <point x="329" y="795" type="line"/>
      <point x="200" y="922" type="line"/>
      <point x="68" y="794" type="line"/>
      <point x="121" y="743" type="line"/>
    </contour>
  </outline>
</glyph>
<glyph name="ccircumflex" format="1">
  <advance width="355"/>
  <unicode hex="0109"/>
  <outline>
    <contour>
      <point x="309" y="392" type="curve"/>
      <point x="334" y="477" type="line"/>
      <point x="276" y="503"/>
      <point x="212" y="518"/>
      <point x="153" y="505" type="curve" smooth="yes"/>
      <point x="108" y="495"/>
      <point x="68" y="471"/>
      <point x="43" y="427" type="curve" smooth="yes"/>
      <point x="23" y="395"/>
      <point x="16" y="363"/>
      <point x="14" y="319" type="curve"/>
      <point x="14" y="173" type="line" smooth="yes"/>
      <point x="14" y="75"/>
      <point x="58" y="23"/>
      <point x="127" y="1" type="curve" smooth="yes"/>
      <point x="197" y="-20"/>
      <point x="272" y="-12"/>
      <point x="337" y="5" type="curve"/>
      <point x="317" y="94" type="line"/>
      <point x="317" y="94"/>
      <point x="271" y="84"/>
      <point x="227" y="84" type="curve" smooth="yes"/>
      <point x="166" y="84"/>
      <point x="123" y="113"/>
      <point x="123" y="174" type="curve" smooth="yes"/>
      <point x="123" y="331" type="line" smooth="yes"/>
      <point x="123" y="351"/>
      <point x="129" y="367"/>
      <point x="136" y="380" type="curve" smooth="yes"/>
      <point x="148" y="398"/>
      <point x="169" y="409"/>
      <point x="193" y="413" type="curve"/>
      <point x="231" y="420"/>
      <point x="275" y="408"/>
    </contour>
    <contour>
      <point x="210" y="630" type="line"/>
      <point x="286" y="549" type="line"/>
      <point x="339" y="601" type="line"/>
      <point x="210" y="727" type="line"/>
      <point x="78" y="599" type="line"/>
      <point x="131" y="548" type="line"/>
    </contour>
  </outline>
</glyph>
<glyph name="Ccaron" format="1">
  <advance width="392"/>
  <unicode hex="010C"/>
  <outline>
    <contour>
      <point x="324" y="582" type="curve"/>
      <point x="354" y="675" type="line"/>
      <point x="307" y="698"/>
      <point x="258" y="710"/>
      <point x="210" y="710" type="curve" smooth="yes"/>
      <point x="161" y="710"/>
      <point x="114" y="697"/>
      <point x="79" y="664" type="curve" smooth="yes"/>
      <point x="43" y="632"/>
      <point x="18" y="581"/>
      <point x="18" y="503" type="curve" smooth="yes"/>
      <point x="18" y="183" type="line" smooth="yes"/>
      <point x="18" y="113"/>
      <point x="41" y="64"/>
      <point x="77" y="32" type="curve" smooth="yes"/>
      <point x="112" y="2"/>
      <point x="161" y="-12"/>
      <point x="215" y="-12" type="curve" smooth="yes"/>
      <point x="266" y="-11"/>
      <point x="321" y="1"/>
      <point x="378" y="23" type="curve"/>
      <point x="362" y="127" type="line"/>
      <point x="350" y="127"/>
      <point x="282" y="100"/>
      <point x="221" y="100" type="curve" smooth="yes"/>
      <point x="193" y="100"/>
      <point x="168" y="105"/>
      <point x="152" y="120" type="curve" smooth="yes"/>
      <point x="136" y="133"/>
      <point x="128" y="154"/>
      <point x="128" y="185" type="curve" smooth="yes"/>
      <point x="128" y="512" type="line" smooth="yes"/>
      <point x="128" y="542"/>
      <point x="135" y="563"/>
      <point x="153" y="577" type="curve" smooth="yes"/>
      <point x="169" y="592"/>
      <point x="195" y="599"/>
      <point x="230" y="599" type="curve" smooth="yes"/>
      <point x="260" y="599"/>
      <point x="297" y="592"/>
    </contour>
    <contour>
      <point x="68" y="866" type="line"/>
      <point x="197" y="740" type="line"/>
      <point x="329" y="868" type="line"/>
      <point x="276" y="920" type="line"/>
      <point x="197" y="838" type="line"/>
      <point x="122" y="919" type="line"/>
    </contour>
  </outline>
</glyph>
